<svg xmlns="http://www.w3.org/2000/svg" height="196.09" width="168.24" fill="#4f5c67"><path d="M66.25 23.07l.18.4c1.06 2.25 3 4.42 3 4.42l.03-.02.01.01s.28-.2.84-.53l.67-.36c.6-.3 1.4-.66 2.4-1 2.33-.83 5.43-1.1 5.43-1.1s-2.9-4.02-3.44-9.83c-.3-3.3-.18-5.02-.14-5.12l-.6-.03a9.2 9.2 0 0 0-5.79 2.05l-.12.1a9.2 9.2 0 0 0-3.34 7.1 8.7 8.7 0 0 0 .3 2.3l.57 1.6m16.2.8c.6.64 1.18.92 1.7.92h.14c.53 0 1.12-.28 1.7-.92a16.2 16.2 0 0 0 3.6-5.95c1.33-3.72.94-6.86-.6-8.36-.77-.7-1.7-1.16-2.76-1.3-.23-.03-.63-.05-1.03-.07 1.8-.45 3.13-2.06 3.13-4 0-2.28-1.85-4.14-4.14-4.14S80.06 1.9 80.06 4.2c0 1.93 1.33 3.54 3.13 4l-.95.07a5.3 5.3 0 0 0-2.76 1.3c-1.55 1.5-1.94 4.64-.6 8.36.92 2.57 2.3 4.7 3.6 5.95m39.46 27.37c.95 1.5.9 3.38.9 3.38.01.01 1.9.33 2.85 1.27l.17-.17c1.28-1.58 3.65-4.17 4.33-7.92.55-3.06.2-7.34-.45-8.7-.02-.05-.04-.13-.07-.17.6-.7 1.62-2.36 4.42-2.36a6.3 6.3 0 0 1 2.69.64c1.23.6 1.98 1.37 1.98 1.37l-3.68 6.35a34.9 34.9 0 0 0-2.42 4.73c-1.08 2.4-1.37 3.97-1.2 5.7.16 1.43.92 4.18 1.25 6.94.63 5.3-.4 7.88-.4 7.88l.06-.04-.02.06s6.27-4.14 10.24-13.4c-.02 0-.03-.01-.04-.01a7 7 0 0 1-1.84-.61c-.52-.26-1-.6-1.48-.96-3.5-2.68-2.72-5.54-1.58-6.88l1-1.13 2.84-3.06a7.8 7.8 0 0 0 1.89-4.26l.12-1.36c0-3.9-1.9-6.54-4.3-7.87a8 8 0 0 0-2.52-.9c-2.7-.46-5.98.55-8.4 2.2-.92.62-2.43 2-2.85 3.06-.53 2.62.26 3.3 1.05 6 .02.05.05.1.07.15 1.65 6.03.8 8.95-4.64 10.1M95 45.87a14.6 14.6 0 0 0 2 2.96 1.8 1.8 0 0 1 .2.18s.7-.62 2.58-1.34c1.54-.6 3.5-.8 3.5-.8s-1.93-2.7-2.3-6.58c-.2-2.25-.12-3.42-.1-3.44h-.04v-.02c-1-.17-2 .03-2.94.47a9.5 9.5 0 0 0-1.7 1.19c-.84.74-1.4 1.58-1.6 2.47a5.9 5.9 0 0 0-.26 3.08 13.3 13.3 0 0 0 .65 1.84m8.6-4c.84 2.33 2.22 4.3 3.3 4.7.16.07.32.1.47.1h0c1.1-.13 2.57-2.36 3.28-5.1.66-2.55.2-4.7-.9-5.6a4.7 4.7 0 0 0-1.78-.82c-.05-.01-.1-.03-.15-.05.92-.45 1.54-1.46 1.48-2.6-.05-1.14-.74-2.1-1.68-2.46a2.4 2.4 0 0 0-1.04-.19c-1.4.06-2.5 1.34-2.44 2.86.05 1.15.76 2.1 1.72 2.47h0a4.5 4.5 0 0 0-1.85 1c-1.04 1-1.3 3.17-.4 5.66m7.54 4.8a20.8 20.8 0 0 0 6.59 1.31c.06.02.1.05.16.08a12.7 12.7 0 0 0 1.5-2.36 14.2 14.2 0 0 0 .65-1.84c.2-1.1.08-2.14-.26-3.1a5 5 0 0 0-1.6-2.47c-.48-.43-1.05-.82-1.7-1.18-.01 0-.02-.01-.02-.01s-.01-.01-.02-.01a5 5 0 0 0-2.94-.47c.02.02.1 1.2-.1 3.44-.36 3.9-2.3 6.58-2.3 6.58l.05.01-.01.02M89.66 24.9a26 26 0 0 0 5.44 1.09 22.3 22.3 0 0 1 2.4 1l.67.36.85.53c.01.01.03.02.03.02s1.94-2.17 3-4.42l.18-.4a22.1 22.1 0 0 0 .57-1.59c.2-.74.3-1.5.3-2.3a9.2 9.2 0 0 0-3.34-7.1l-.12-.1a9.2 9.2 0 0 0-5.8-2.05c-.2 0-.4.02-.6.03.04.1.16 1.83-.14 5.12-.54 5.8-3.44 9.83-3.44 9.83m2.04 8.92l.58 2.63c.01-.01.22.01.22.02 1.38-.55 4.1-1.36 4.1-2.27v-2.9c0-.53-.53-1.02-1.46-1.45-1.9-.9-5.5-1.5-9.55-1.58h-2.36c-4.2.04-7.96.67-9.93 1.6-.94.43-1.48.92-1.48 1.45v2.9c0 .9 2.74 1.7 4.12 2.27 0-.01.22-.02.23-.02.22-.8.6-2.63.6-2.63s-.3-.12-.35-.24c-.17-.36.14-.57.65-.86a5 5 0 0 1 2.06-.47c.43 1.6.5 4.08.4 6.22-.2 4.3-1 9.67-3.54 13.34a25.8 25.8 0 0 1 3.12 3.72c2.64-5.05 3.05-10.58 3.27-16.28.1-2.5 0-5.44 0-7.45.24 0 1.06-.1 1.87-.1s1.62.1 1.86.1c0 2-.1 4.94 0 7.45.22 5.8.64 11.43 3.4 16.55 1-1.47 1.98-2.64 2.9-3.58l.2-.27c-2.62-3.66-3.44-9.14-3.63-13.48-.1-2.14-.03-4.63.4-6.22.7.03 1.55.2 2.06.47.5.3.8.5.65.86-.05.12-.36.24-.36.24m35.5 40.47h0c-.01-.01-.02-.02-.04-.02-.04-.01-.08-.02-.12-.01H127l-.43.04a10 10 0 0 1-4.19-.49 7.1 7.1 0 0 1-1.85-1.02l-1.94-1.72c-1.1-1.04-3.2-2.56-5.38-2.78-2.45-.24-4 .65-5.76 1.34-.16.07-.3.22-.3.4-.01.2.1.4.3.46.06.03.13.06.2.06a23.9 23.9 0 0 1 4.96.88 11.1 11.1 0 0 1 3.23 1.37c1.2.85 2.24 1.94 2.93 2.38.9.57 1.7 1.12 2.72 1.32 1.08.18 2.2.1 3.26-.17l.14-.04a6.1 6.1 0 0 0 .82-.28 7.7 7.7 0 0 0 1.05-.51l.04-.02c.22-.13.44-.23.64-.38.01 0 .01-.01.02-.01.13-.1.2-.25.2-.42-.02-.22-.2-.38-.4-.4m-6.74-16.14c.1.35.48.7.9.96 1.3.76 1.77 1.87-.18 2.1-1.43.17-2.9-.78-8.18.67-3.1.85-6.73 3.97-8 5.4a16.6 16.6 0 0 0-1.17 1.5c-1.22 1.77-1.2 4.14.1 5.83.8 1 1.67 1.66 1.92 1.83 4.63 3.13 8.97.54 9.44.07.38-.38.4-.53.33-.63-.01-.01-.02-.01-.03-.02-.02-.02-1.48.77-3.53.77a8.2 8.2 0 0 1-3.34-.65c-.72-.33-2.4-1.22-3.4-2.8-.64-1.03-.5-2.35.27-3.28.78-.93 1.72-1.8 2.6-2.46 2-1.46 4.26-2.34 6.9-2.38h.2a12.2 12.2 0 0 1 3.8.62 12.7 12.7 0 0 1 1.75.73 12.3 12.3 0 0 1 4.29 3.64c.02 0 .03.01.04.02a13.8 13.8 0 0 0 1.33-3.38l.2-.85c.6-2.6.42-8.6-5.3-8.6-.1 0-.2.05-.32.07-.6.16-.76.5-.64.84M26.46 44.15l2.84 3.06 1 1.13c1.14 1.34 1.93 4.2-1.58 6.88a9.3 9.3 0 0 1-1.48.96 6.6 6.6 0 0 1-1.85.6c-.01.01-.02.01-.04.02 3.97 9.25 10.24 13.4 10.24 13.4l-.02-.06a2.1 2.1 0 0 1 .06.04s-1.04-2.6-.4-7.88c.33-2.76 1.1-5.5 1.25-6.94.2-1.7-.1-3.3-1.2-5.7a34.9 34.9 0 0 0-2.42-4.73c-1.26-2.05-3.68-6.35-3.68-6.35s.76-.78 1.98-1.37a6.3 6.3 0 0 1 2.69-.64c2.8 0 3.8 1.65 4.42 2.36-.02.04-.04.12-.07.17-.65 1.37-1 5.65-.45 8.7.68 3.75 3.04 6.34 4.33 7.92a4.8 4.8 0 0 0 .17.17c.94-.94 2.84-1.26 2.85-1.27 0 0-.05-1.88.9-3.38-5.44-1.15-6.3-4.06-4.64-10.1.02-.06.05-.1.07-.15.8-2.7 1.58-3.38 1.05-6-.42-1.05-1.93-2.43-2.85-3.06-2.4-1.64-5.7-2.65-8.4-2.2a8 8 0 0 0-2.52.9c-2.4 1.33-4.3 3.98-4.3 7.87 0 .47.06.92.12 1.36a7.8 7.8 0 0 0 1.89 4.26m38.24 2.73a16.2 16.2 0 0 0 3.51.81c1.87.72 2.57 1.34 2.57 1.34l.2-.2a13.8 13.8 0 0 0 2.02-2.95 14.4 14.4 0 0 0 .65-1.84 5.9 5.9 0 0 0-.26-3.08 5 5 0 0 0-1.6-2.47c-.48-.43-1.05-.83-1.7-1.2-.94-.44-1.96-.63-2.94-.47h0-.04c.02.02.12 1.18-.1 3.44-.36 3.9-2.3 6.58-2.3 6.58m-4.07-.13h0c.15 0 .3-.04.47-.1 1.07-.4 2.46-2.37 3.3-4.7.9-2.5.63-4.66-.4-5.66-.52-.46-1.14-.82-1.85-1h0c.96-.37 1.67-1.32 1.72-2.47.07-1.52-1.03-2.8-2.44-2.86a2.4 2.4 0 0 0-1.04.19c-.94.37-1.63 1.32-1.68 2.46-.05 1.15.57 2.16 1.48 2.6l-.15.05a4.7 4.7 0 0 0-.95.32c-.3.13-.58.3-.83.5-1.12.9-1.57 3.04-.9 5.6.7 2.73 2.18 4.96 3.28 5.1m-12.06-1.05a13 13 0 0 0 1.51 2.36c.05-.03.1-.06.15-.08 3.3-1.3 6.6-1.3 6.6-1.3v-.02l.05-.01s-1.94-2.7-2.3-6.58c-.2-2.25-.12-3.42-.1-3.44a5 5 0 0 0-2.94.47c-.01 0-.01.01-.02.01s-.02.01-.02.01c-.65.36-1.22.75-1.7 1.18-.84.74-1.4 1.58-1.6 2.47-.34.95-.46 2-.26 3.1a13.3 13.3 0 0 0 .65 1.84M60.3 70.6c.07 0 .14-.03.2-.06.18-.08.3-.26.3-.46-.01-.2-.14-.35-.3-.4-1.75-.7-3.32-1.6-5.76-1.34-2.17.2-4.27 1.74-5.38 2.78l-1.94 1.72a7.1 7.1 0 0 1-1.85 1.02c-1.2.47-2.68.6-4.18.5l-.5-.05c-.04 0-.08.01-.12.01-.01 0-.02.02-.04.02h0c-.2.03-.37.2-.4.4-.02.17.06.33.18.42.01.01.01.01.02.01.2.15.43.26.64.38l.04.02a7.2 7.2 0 0 0 1.05.5l.82.28.14.04c1.05.27 2.18.35 3.26.17 1.03-.2 1.82-.76 2.72-1.32.7-.44 1.73-1.52 2.93-2.38.9-.65 2.07-1.02 3.23-1.37a23.6 23.6 0 0 1 4.96-.88m-19.15-4.74l.2.85a13.8 13.8 0 0 0 1.33 3.38c.01-.01.02-.02.03-.04 1.13-1.5 2.6-2.75 4.3-3.62.56-.28 1.15-.53 1.75-.73 1.2-.4 2.47-.62 3.8-.62h.2c2.65.04 4.92.92 6.9 2.38.88.65 1.83 1.53 2.6 2.46a2.8 2.8 0 0 1 .27 3.28 8.1 8.1 0 0 1-3.38 2.8c-1 .44-2.18.65-3.34.65-2.05 0-3.5-.8-3.52-.78-.02.01-.03.01-.04.02-.07.1-.05.25.33.63.47.47 4.82 3.07 9.44-.07.26-.17 1.14-.83 1.92-1.83a4.9 4.9 0 0 0 .1-5.83l-1.17-1.5c-1.27-1.44-4.9-4.56-8-5.4-5.27-1.45-6.76-.5-8.18-.67-1.96-.23-1.5-1.34-.18-2.1.42-.24.78-.6.9-.96s-.03-.68-.64-.84c-.1-.03-.2-.07-.32-.07-5.72 0-5.9 6.02-5.3 8.6m69.63 88.3v.06h.03c-.02-.02-.02-.04-.04-.06M87.23 95.8c.2.38.94.98 1.1 2.15.02.13 2.9-3.05 2.9-3.05v-3.04l-3.06 1.3-.93 2.65m-18.7 79.87a42.4 42.4 0 0 0 4-1.3l2-.9a15.7 15.7 0 0 0 1.97-1.18 8.2 8.2 0 0 0 1.72-1.63 4.7 4.7 0 0 0 .64-1.03l.24-.57.13-.52c.1-.36-.13-.73-.5-.82-.14-.03-.28-.01-.4.03a.7.7 0 0 0-.31.21 4.7 4.7 0 0 1-1.35 1.1c-.48.25-1 .43-1.54.6a24.5 24.5 0 0 1-3.61.66l-3.82.42-3.77.22-3.96.13a24.4 24.4 0 0 0-4.45.52c-.62.15-1.3.34-2 .66a5.9 5.9 0 0 0-.7.37c-.9.56-1.8 1.47-2.24 2.53a5 5 0 0 0-.34 3 4.8 4.8 0 0 0 1.2 2.34c.26.27.64.33.97.2.1-.04.4-.3.4-.3 1.14-1.84 3.58-2.83 4.06-2.94 1.97-.46 4.8-.6 7.5-.98 1.38-.2 2.77-.46 4.16-.83m-12.4-7.6c-.03.37.25.68.62.7.15.01.3-.03.4-.1l.02-.01.23-.15a7 7 0 0 1 .95-.53c.97-.44 1.96-.6 2.93-.63a20.5 20.5 0 0 1 4.24.4 21.5 21.5 0 0 0 5.4.29c.93-.07 1.87-.25 2.83-.5.48-.16.96-.32 1.46-.58a.2.2 0 0 1 .04-.02c.45-.26 1.1-.6 1.4-1.3.12-.27 0-.6-.27-.7-.04-.02-.08-.04-.13-.04l-2.62-.57-2.37-.6-4.9-1.04c-1.85-.32-4.04-.3-6.1.5a6.8 6.8 0 0 0-.76.35c-1.74.9-3.24 2.5-3.38 4.56m2.7-6.6c.08-.02 1.17-.4 1.7-.58.01-.01-6.42-2.33-2.77-6.47l.02-.16c-.01.01-.02-.03-.03-.02-.6-.08-1.23-.03-1.8.2a3.7 3.7 0 0 0-1.5 1.12c-1.74 2.16.65 4.5.7 4.56l-1.57-.2c-1.55-1.06-4.12-3.67-.43-9.2-.1-.01-.2-.02-.28-.02a3.2 3.2 0 0 0-1.55.3 5.5 5.5 0 0 0-.83.34c-1.82.9-3.06 2.6-3.06 4.6a4.8 4.8 0 0 0 .59 2.26 5.2 5.2 0 0 0 1.04 1.34l-1.73-.18c-1.7-1.94-3.56-5.58.04-9.84l-.28-.02c-.53-.02-1.06.08-1.55.3a5 5 0 0 0-.9.43c-2 1.14-2.97 3.32-2.97 5.12 0 .8.3 2.14.6 2.86 2.37 5.8 13.55 4.04 16.58 3.28m56.84 11.13a6.8 6.8 0 0 0-.7-.37 10.1 10.1 0 0 0-1.99-.66 24.4 24.4 0 0 0-4.45-.52l-3.96-.13-3.78-.22-3.82-.42-3.6-.66c-.55-.17-1.06-.35-1.54-.6-.48-.26-.93-.6-1.35-1.1-.08-.1-.2-.17-.3-.2-.13-.04-.26-.06-.4-.03a.7.7 0 0 0-.5.82l.01.02.12.5c.06.18.16.38.24.57a5.3 5.3 0 0 0 .64 1.03 8.2 8.2 0 0 0 1.72 1.63 15.8 15.8 0 0 0 1.97 1.18l2 .9 4 1.3c1.4.36 2.78.63 4.16.83l7.5.98a8.1 8.1 0 0 1 4.06 2.94s.28.25.4.3c.32.14.7.08.97-.2a4.8 4.8 0 0 0 1.21-2.34 5 5 0 0 0-.33-3c-.44-1.06-1.34-1.97-2.24-2.53"/><path d="M93.24 166.9c.01 0 .02.01.03.01.5.27 1 .43 1.47.6a14.4 14.4 0 0 0 2.83.5 21.5 21.5 0 0 0 5.4-.29 20.3 20.3 0 0 1 4.24-.4c.97.02 1.95.18 2.93.63a6.9 6.9 0 0 1 .95.53l.2.14.04.02a.6.6 0 0 0 .42.1c.36-.02.64-.34.6-.7-.14-2.05-1.64-3.67-3.38-4.56l-.76-.35c-2.05-.8-4.24-.8-6.1-.5l-4.9 1.04-2.37.6c-.76.22-2.62.57-2.62.57-.04.01-.08.02-.12.04-.27.12-.4.44-.27.7.32.7.95 1.03 1.4 1.3m30.65-16.63a9.3 9.3 0 0 0-.9-.43 3.5 3.5 0 0 0-1.55-.3l-.28.02c3.6 4.26 1.74 7.9.05 9.84-.28.08-1.46.16-1.73.18a5.2 5.2 0 0 0 1.04-1.34 4.8 4.8 0 0 0 .6-2.26c0-2-1.24-3.7-3.06-4.6a5.5 5.5 0 0 0-.83-.34c-.5-.22-1-.32-1.55-.3l-.28.02c3.7 5.53 1.12 8.15-.43 9.2l-1.57.2c.07-.04 2.46-2.4.7-4.56a3.7 3.7 0 0 0-1.5-1.12c-.57-.24-1.2-.3-1.8-.2-.01-.01-.02.03-.03.02l.02.16c3.64 4.14-2.78 6.46-2.76 6.46H108l1.7.58c3.02.76 14.2 2.52 16.57-3.28a9.2 9.2 0 0 0 .6-2.86c0-1.8-.97-3.98-2.97-5.12m-29.24-16.96c-.06-.08-.26-.12-.26-.12-.1-.02-.2-.01-.27.04-.55.33-.88.7-1.2 1.05a4.3 4.3 0 0 0-.64 1.12c-.14.38-.26.77-.17 1.18a2.3 2.3 0 0 0 .87 1.3c.13.1.62.3.96.18.7-.23 1.05-.54 1.3-.9.23-.35.27-.75.28-1.16a4.2 4.2 0 0 0-.17-1.28 4.5 4.5 0 0 0-.71-1.42m5.65-19c.23.2.45.46.65.73l.2.32.24.47a11.7 11.7 0 0 1 .91 2.91 1.8 1.8 0 0 0-.58-.09 4.1 4.1 0 0 0-4.48 3.73s.83-.63 1.53-.8c.62-.15 1.5-.04 1.5-.04l-3.12 3.47c-.2-.5-.52-.85-.92-.93-.42-.08-.87.16-1.3.6l-1.64-4.02s.75-.07 1.38.22a4.8 4.8 0 0 1 1.39 1.22 6.1 6.1 0 0 0-.2-2.3c-.4-1.26-1.34-2.06-2.87-2.25a3.3 3.3 0 0 0-.89.02c1.17-1.8 2.5-3.15 3.87-3.8-.38 2.86 3.53 3.44 4.33.54zm1.76 14.54a20.8 20.8 0 0 1-.72 2.95 25.2 25.2 0 0 1-1.02 2.64c-.65-.86-1.9-2.94-3.18-5.3l.15-.62a8.5 8.5 0 0 0 .15-1.24c1.33-1.3 2.6-2.83 3.92-4.33 0 0 .62.6.4 1.67-.2 1-1.12 1.62-1.12 1.62.86.02 1.2.07 1.98-.26-.1.78-.4 2.1-.54 2.9zm-9.26 12.35c-1.33-.17-2.07-.94-2.5-1.45-1.22-1.42-1.36-2.78-1.36-2.8l4.73-5.77c.25.72.78.97.9 1 .01 0 .02.01.03.01.44.08.9-.17 1.32-.65a137 137 0 0 0 2.97 5.45c-1.7 2.8-4.33 4.45-6.1 4.2zm-3.82-15.36l.4-1.95c.02.02.26.62.86 1.03.7.48 1.14.5 1.5.55 0 0-.5-.73-.64-1.67-.16-1.2.4-2.15.4-2.15.3.48 1.73 3.97 2.3 5.13l-.26.98a5.8 5.8 0 0 0-.08.56l-.05.3c-.1.08-4 4.85-4.95 5.8-.54-3.24.1-6.2.52-8.6zm6.63-15.33l-.03-.03-.18.12a9.3 9.3 0 0 0-2.35 1.5c-3.1 2.63-5.8 7.56-6.97 13.47-1.12 5.65-.6 10.9 1.1 14.4 1.14 2.32 2.8 3.88 4.86 4.23 2.03.34 4.14-.53 6.07-2.27 2.98-2.7 5.53-7.47 6.66-13.18 1.16-5.84.57-11.26-1.28-14.74-1.13-2.13-2.73-3.55-4.7-3.88a5.9 5.9 0 0 0-3.2.41"/><path d="M81.52 119.63l-7.33 2.84 4.83-8.38c.01.04.23 1.18 2.2 2-.06.3.3 3.55.3 3.55zm2.62 36.96c-.03 0-.07-.01-.1-.01-8.6-.05-16.2-5.82-20.8-14.6l6.57-11.5a1389.4 1389.4 0 0 1 2.88 12.3s-3.12 1.35-1.54 2.3 4.93.25 4.93.25a20.8 20.8 0 0 0 1.77 1.41 10.7 10.7 0 0 0 3.66 1.79l.85.32s-.3 1.48.16 2.24c.2.3.36.56.96.56a1.6 1.6 0 0 0 .52-.1 3.9 3.9 0 0 0 1.3-.9c.72-.74.98-1.27 1.52-2-.02-.03.01-.08.05-.14 1.28-.35 2.63-.8 3.9-2.4-3.12-1.22-5.77-4.07-6.78-8.78-.37-1.72-.58-3.6-.6-5.57a34 34 0 0 1 .56-6.46c.01-.08.03-.15.05-.23 1.47-7.72 6.26-13.6 7.65-14.1-.43-1-.25-3.5-3.6-4.9-.72-.3-2.97-.43-3.18-1.47 1.06-.72 1.86-2.07 2.06-3.7.27-2.18-.65-4.14-2.12-4.84.35-.8 1.2-1.9 1.2-1.9l-1.68-1.8-2.17 1.16s.55 1.57.55 2.42c-1.44.48-2.52 1.62-2.76 3.65-.12 1 .42 2.53 1.55 3.66.6.6.73 1.12.35 1.5-.83.83-2.54.62-3.42 1.9-.55.8-1.22 2.67-1.22 2.67-.4.84-2.85 6.67-4.04 8.73-.3.52-1.5 2.43-1.5 2.43s-.53.36-1.12.84c-.48.4-1 .85-1.32 1.26-.92 1.18-.55 3.3.01 4.18l-7.08 12.94c-.28-.6-.4-.92-.4-.92-2-4.86-3.12-10.43-3.12-16.35 0-18.13 10.62-33 23.96-34.06h3.1c1.47.12 2.9.42 4.3.86a20.9 20.9 0 0 1 2.15.82c10.14 4.5 17.48 17.32 17.48 32.4 0 18.82-11.44 34.12-25.5 34.12zm83.98-58.92a1.9 1.9 0 0 0-.96-1.16c-.43-.24-.96-.3-1.48-.16l-.08.03c-2.22.66-4.54 1.36-6.82 1.88l-3.4.8c-1.13.24-2.25.43-3.48.6-2.4.32-4.8.6-7.18.8a121.5 121.5 0 0 1-4.64.3l.67-.18c.67-.18 1.32-.37 1.97-.58a82.6 82.6 0 0 0 3.82-1.3 125.1 125.1 0 0 0 7.38-2.99c2.43-1.04 4.98-2.22 7.24-3.68 2.27-1.5 4.4-3.06 6.4-5 .6-.6.77-1.56.32-2.34-.2-.35-.5-.6-.84-.78-.56-.28-1.24-.28-1.82.05l-.08.05a97.7 97.7 0 0 1-6.55 3.53c-2.25 1.1-4.38 2.15-6.77 2.97a120 120 0 0 1-7.22 2.28 82 82 0 0 1-3.62.92l-.8.17a40.2 40.2 0 0 0 1.78-.81 63.5 63.5 0 0 0 3.8-2.02c2.45-1.4 4.8-2.93 7.1-4.5a50 50 0 0 0 6.74-5.28 42.5 42.5 0 0 0 5.57-6.5c.48-.72.44-1.7-.17-2.37a2 2 0 0 0-.63-.46c-.7-.33-1.53-.23-2.12.3l-.07.07a88.7 88.7 0 0 1-5.98 5.05 56.8 56.8 0 0 1-6.37 4.45c-.43.25-.86.48-1.28.72-1.9 1.07-3.8 2.1-5.72 3.03-.37.18-.74.35-1.12.52-.7.32-1.4.63-2.1.9l.38-.26c.82-.58 1.6-1.2 2.36-1.8l1.25-1.02c2.25-1.92 4.35-3.94 6.37-6l.08-.08c2.14-2.17 4.13-4.4 5.83-6.88 1.67-2.5 3.17-5.02 4.34-7.88.33-.8.07-1.77-.67-2.3-.01-.01-.02-.01-.04-.02-.87-.62-2.07-.4-2.68.46l-.06.08c-1.54 2.2-3.24 4.45-5.03 6.52l-1.6 1.86a43.8 43.8 0 0 1-3.97 4.08L144 75.6a84.3 84.3 0 0 1-3.93 3.15l.6-.8a79 79 0 0 0 3.09-4.61 128.3 128.3 0 0 0 1.97-3.25c1.12-1.88 2.15-3.8 3.04-5.8.4-.9.78-1.8 1.1-2.7 1.07-2.97 1.92-5.93 2.38-9.15.13-.88-.4-1.76-1.26-2.07-.02-.01-.03-.02-.04-.02-1-.36-2.1.17-2.45 1.17l-.03.1a77.5 77.5 0 0 1-2.84 6.89c-.17.36-.32.73-.5 1.1a69 69 0 0 1-3.9 7.13l-.25.4a107.3 107.3 0 0 1-3.4 4.67c-3.6 4-9.64 8-12.9 9.6-1.6.77-3.22 1.83-4.85 2.63-.03.01-.05.03-.08.04a5.7 5.7 0 0 0-2.6 2.47 6.6 6.6 0 0 0-.35.87 5.4 5.4 0 0 0-.28 1.67 5.7 5.7 0 0 0 2.85 5 4.2 4.2 0 0 0 1.88.51c.1 0 .2-.01.3-.02.6-.06.9-.3.9-.3s-.46-1.23.24-1.78c.12-.08.24-.14.37-.2a2.5 2.5 0 0 1 1.06-.23 2.6 2.6 0 0 1 2.55 2.57c0 1.3-.98 2.38-2.24 2.55-.57.22-1.67.26-2.37.26a23.4 23.4 0 0 1-4.24-.4 22.9 22.9 0 0 1-5.38-1.72c-2.04-.94-5.8-3.7-5.74-3.85-3.86-3.6-6.3-8.5-6.52-13.97-.01-.25-.04-.5-.04-.75a20.9 20.9 0 0 1 .15-2.4 20.4 20.4 0 0 1 .88-3.94 20.3 20.3 0 0 1 3.36-6.26 30.8 30.8 0 0 1 1.66-1.75l.18-.18a22.2 22.2 0 0 1 3.06-2.6 5.7 5.7 0 0 1-.27-.25 8.4 8.4 0 0 1-.32-.33c-1.78-.17-2.4-1.02-2.7-1.74-.01-.02-.02-.04-.03-.07l-.07-.17c-.1-.27-.1-1.08-.05-1.2a3.4 3.4 0 0 1 .86-1.63 3.7 3.7 0 0 1 .5-.47c.54-.4 1.14-.64 1.8-.77.16-.03.32-.07.5-.08.02 0 .04-.01.06-.01 1.65-.17 3.28.54 3.94 2.23l.01.01c-.1.07-1.05.24-1.05.24h0c-.34-.72-.9-1.03-1.56-.98-.22.01-.45.07-.7.17-.16.06-.3.14-.4.23-1.06.9-.13 3.18 1.34 3.35.23.02.47 0 .72-.1.01 0 .02-.01.03-.01a66.8 66.8 0 0 1 7.2-1.63 14.6 14.6 0 0 1 1.21-.15c.01-.01.02-.01.03-.02.43-.7.45-5.25-3.13-6.73-2.83-1.17-5.3-1.36-7.52-1.36-2.02 0-3.85.2-5.73.62-7.3 1.6-11.74 5.83-15.8 14.97h0c-2.75 5.4-3.74 10.6-4.14 12h-.4c-.4-1.53-1.4-6.68-4.1-12h0c-4.07-9.14-8.53-13.37-15.82-14.97a26.2 26.2 0 0 0-5.75-.62 18.8 18.8 0 0 0-7.52 1.36C47 51 47 55.54 47.44 56.23c.01.01.02.01.03.02a14.7 14.7 0 0 1 1.21.15c2.47.4 6.56 1.37 7.2 1.63.01 0 .02.01.03.01.25.1.5.12.72.1 1.62-.18 2.6-2.93.95-3.58a2.3 2.3 0 0 0-.7-.17c-.66-.05-1.22.26-1.56.98h0s-1-.2-1.05-.25l.01-.01c.65-1.7 2.3-2.4 3.94-2.23.02 0 .04.01.06.01a4.7 4.7 0 0 1 .49.08 3.9 3.9 0 0 1 2.3 1.25c.34.32.73.97.86 1.63a4 4 0 0 1-.06 1.19 3.9 3.9 0 0 1-.07.17c-.01.02-.02.04-.03.07-.3.72-.93 1.56-2.7 1.73a6 6 0 0 1-.32.33c-.1.1-.22.2-.28.24 1.04.68 2.27 1.8 3.25 2.78.85.85 1.52 1.58 1.66 1.76 1.46 1.83 2.6 3.97 3.36 6.26a20.4 20.4 0 0 1 .88 3.94 21.3 21.3 0 0 1 .15 2.41c0 .25-.03.52-.04.77a19.4 19.4 0 0 1-.1 1.35 30.5 30.5 0 0 1-3.4 9.13c-.1.14-.2.3-.3.42h.03a14 14 0 0 1-2.53 3.02c.06.16-3.7 2.9-5.74 3.85a22.9 22.9 0 0 1-5.37 1.72 23.7 23.7 0 0 1-4.24.4c-.7 0-1.8-.04-2.37-.26-1.26-.17-2.24-1.24-2.24-2.55a2.6 2.6 0 0 1 2.55-2.57c.38 0 .74.1 1.06.23.13.06.25.12.37.2.7.55.24 1.78.24 1.78s.33.26.9.3c.1.01.18.03.3.02a4.2 4.2 0 0 0 1.88-.51 5.7 5.7 0 0 0 2.85-5 5.1 5.1 0 0 0-.28-1.67c-.1-.3-.2-.6-.35-.87a5.7 5.7 0 0 0-2.6-2.47c-.03-.01-.05-.03-.08-.04-1.63-.8-3.26-1.86-4.85-2.63a49.5 49.5 0 0 1-12.91-9.59 99.4 99.4 0 0 1-3.39-4.67c-.1-.14-.17-.27-.25-.4-1.45-2.27-2.7-4.68-3.9-7.13-.17-.35-.32-.73-.5-1.1a77.7 77.7 0 0 1-2.84-6.89l-.03-.1c-.35-1-1.45-1.52-2.45-1.17-.01 0-.02.01-.03.02-.88.3-1.4 1.2-1.27 2.08a45.8 45.8 0 0 0 2.38 9.15 41.6 41.6 0 0 0 1.11 2.7c.9 1.98 1.9 3.92 3.04 5.8l1.97 3.25a75.6 75.6 0 0 0 3.1 4.6l.6.8a83.4 83.4 0 0 1-3.93-3.15l-2.14-1.83a45 45 0 0 1-3.97-4.08l-1.6-1.86a83.7 83.7 0 0 1-5.03-6.52l-.06-.08a1.9 1.9 0 0 0-2.67-.46c-.01.01-.03.01-.04.02-.74.52-1 1.5-.67 2.3 1.17 2.86 2.67 5.38 4.34 7.88 1.7 2.47 3.7 4.7 5.83 6.88.02.03.05.05.08.08a96 96 0 0 0 6.37 6l1.25 1.02c.76.6 1.53 1.22 2.36 1.8l.38.26c-.7-.28-1.4-.6-2.1-.9l-1.12-.52a95.3 95.3 0 0 1-5.72-3.03l-1.28-.72c-2.27-1.3-4.3-2.86-6.37-4.45a88.5 88.5 0 0 1-5.98-5.05l-.07-.07a1.9 1.9 0 0 0-2.12-.3 2 2 0 0 0-.64.46c-.6.67-.65 1.65-.17 2.37a42.5 42.5 0 0 0 5.57 6.5c2.04 1.97 4.4 3.7 6.74 5.28a102.8 102.8 0 0 0 7.1 4.5 63.3 63.3 0 0 0 3.8 2.02 32 32 0 0 0 1.78.8l-.8-.17c-1.2-.28-2.4-.6-3.62-.92a120.5 120.5 0 0 1-7.22-2.28c-2.4-.82-4.53-1.87-6.77-2.97a98.4 98.4 0 0 1-6.55-3.53L3 83.96a1.9 1.9 0 0 0-1.82-.05c-.34.16-.64.42-.84.78-.45.78-.3 1.74.32 2.34a42.5 42.5 0 0 0 6.4 5.01c2.25 1.46 4.8 2.64 7.24 3.68a132.4 132.4 0 0 0 7.38 3c1.25.46 2.52.9 3.82 1.3l1.97.58.67.18a121.7 121.7 0 0 1-4.64-.3 132.4 132.4 0 0 1-7.18-.8 44.5 44.5 0 0 1-3.48-.6c-1.14-.25-2.27-.52-3.4-.8-2.28-.53-4.6-1.22-6.82-1.88l-.08-.03c-.5-.15-1.04-.08-1.48.16-.45.23-.8.64-.96 1.16-.25.85.1 1.74.84 2.2a40.6 40.6 0 0 0 6.94 3.34c2.37.9 5 1.5 7.43 2 2.45.53 4.9 1 7.38 1.43a111.5 111.5 0 0 0 6.72.93l-4.26.47-6.87.56c-.57.04-1.13.06-1.72.08l-1.64.03-3.32-.06c-2.23-.02-4.52-.18-6.73-.3H4.8c-.4-.02-.78.08-1.1.27-.55.32-.93.9-.97 1.57-.05.88.5 1.65 1.3 1.93 2.35.8 4.67 1.3 7.08 1.68a35.9 35.9 0 0 0 3.64.34 43.3 43.3 0 0 0 1.85.05l1.77.03a208.9 208.9 0 0 0 7.08.03l3.63-.08.22.7L22 117c-2.12.6-4.13 1-6.22 1.42-2.07.47-4.22.84-6.3 1.27h-.06a2.2 2.2 0 0 0-.4.13c-.83.35-1.33 1.25-1.14 2.16.18.86.9 1.46 1.72 1.53a44.6 44.6 0 0 0 6.85 0c2.28-.15 4.58-.67 6.76-1.07 2.2-.4 5.4-1.17 7.58-1.62l.17.54c-.9.52-2.85 1.56-3.76 2.06a77.5 77.5 0 0 1-2.7 1.4l-2.7 1.3c-.01.01-.02.01-.03.02l-5.5 2.82c-.94.5-1.3 1.68-.78 2.62.4.76 1.26 1.13 2.06.98a52.5 52.5 0 0 0 6.2-1.67c2.03-.68 4-1.62 5.93-2.47l3.05-1.32.35 1.6-1.45 1.02-2.23 1.93c-1.47 1.3-2.84 2.74-4.14 4.27-.7.82-.6 2.05.2 2.74.62.53 1.48.6 2.16.24.01-.01.02-.01.03-.01a41.5 41.5 0 0 0 5.1-3.12l1.7-1 1.18 7.93c.76 7.2.54 15.5 1.32 16.47.65.8 1.94.62 3.1.66-.08-.27-.12-.53-.18-.8 0-.03.01-.05 0-.08-.83-3.86.32-6.7 1.03-7.87.01-.02.01-.04.02-.07.02-.02.08-.25.08-.3-.25-4.58-.87-11.97-1.9-17.7l-5.2-27.95a.7.7 0 0 1 .2-.63c.17-.15.42-.23.67-.17 2.8.7 7.42 1.12 10.4 1.32 2.22.15 7.53.13 13-1.55a47.2 47.2 0 0 0-3.64 18.4c0 13.07 5.07 24.63 12.8 31.56a15.9 15.9 0 0 0-1.78.34c-2 .7-3.55 1.7-4.43 2.2-.02.01-.04.03-.06.05-.06.03-.12.05-.17.08-.3.17-.32.5-.25.85a8.3 8.3 0 0 0 1.24 2.82c.1.15.23.3.42.3 7.23.36 12.54.9 16.8 3.6.02.01.04.02.06.04.12.07.22.17.34.24 2 1.6 2.82 4.86 1.18 7.2a42.2 42.2 0 0 1-1.73 1.68c-1.98 1.7-4.13 3.16-6.4 4.25-2.26 1.1-4.62 1.8-7 2.13-2.4.44-4.8.76-7.95 1.5h-.02a.9.9 0 0 0-.28.13c-.26.17-.4.48-.33.8.03.13.1.25.18.34 2.3 2.5 5.7 3.47 9 3.3 2.5-.2 4.9-.9 7.1-1.96a24.6 24.6 0 0 0 2.14-1.16c2.74-1.7 5.1-3.9 6.87-6.5.04-.05.07-.1.1-.16l-.02.08c-.4 1.4-1.74 5.1-2.8 6.32-1.08 1.25-2.08 2.44-3.22 3.37a14.7 14.7 0 0 1-2.75 1.79 15.8 15.8 0 0 1-1.02.46c-1.44.6-3.1 1-5.05 1.4h-.02c-.1.02-.2.06-.27.12a.7.7 0 0 0-.33.75c.04.18.14.33.28.43 1.73 1.23 3.92 1.8 6.18 1.67a10.6 10.6 0 0 0 3.37-.79 11.4 11.4 0 0 0 2.96-1.77c.3-.24.53-.5.8-.8.5 1 1.03 2 1.4 2.98.5 1.2.9 2.37 1.56 3.55.15.27.47.4.6.36a1 1 0 0 0 .65-.36c.65-1.18 1.1-2.37 1.6-3.55.4-1 .9-1.98 1.4-2.98.27.27.5.54.8.8a11.4 11.4 0 0 0 2.96 1.77 10.6 10.6 0 0 0 3.37.79c2.27.13 4.45-.44 6.18-1.67.14-.1.24-.25.28-.43.06-.3-.08-.6-.33-.75-.08-.06-.17-.1-.27-.12h-.02c-1.95-.42-3.6-.8-5.05-1.4a14.3 14.3 0 0 1-1.02-.46 14.5 14.5 0 0 1-2.75-1.8c-1.14-.94-2.13-2.13-3.22-3.37-1.07-1.23-2.4-4.92-2.8-6.32v-.08c.04.05.07.1.1.16 1.78 2.6 4.13 4.8 6.87 6.5a27.5 27.5 0 0 0 2.14 1.16 20.2 20.2 0 0 0 7.1 1.96c3.3.18 6.7-.8 9-3.3.1-.1.15-.2.18-.34.08-.32-.07-.63-.33-.8-.08-.06-.17-.1-.28-.13h-.02c-3.14-.74-5.54-1.06-7.95-1.5a23.3 23.3 0 0 1-7-2.13c-2.26-1.1-4.4-2.54-6.38-4.25a42 42 0 0 1-1.73-1.68c-1.64-2.33-.83-5.6 1.18-7.2.1-.08.22-.17.34-.24.02-.01.04-.02.06-.04 4.26-2.7 9.57-3.25 16.8-3.6.2-.01.3-.16.42-.3a8.6 8.6 0 0 0 1.24-2.82c.07-.34.05-.68-.25-.85-.05-.03-.12-.05-.18-.08-.02-.01-.04-.04-.06-.05-.88-.5-2.45-1.5-4.44-2.2a11.9 11.9 0 0 0-1.7-.32c7.74-6.93 12.83-18.5 12.83-31.58a47.2 47.2 0 0 0-3.65-18.39c5.44 1.66 10.72 1.67 12.93 1.53 2.98-.2 7.6-.6 10.4-1.32.26-.07.5.01.67.17.15.16.24.38.2.63l-5.2 27.95a159.6 159.6 0 0 0-1.9 17.7c0 .05.06.28.08.3.01.02.01.05.02.07a11 11 0 0 1 1.03 7.87c-.01.03.01.06 0 .08-.06.27-.1.53-.18.8 1.16-.03 2.45.15 3.1-.66.78-.97.56-9.26 1.32-16.47.24-2.3 1.17-7.9 1.18-7.93l1.7 1a41.6 41.6 0 0 0 5.08 3.12c.02.01.03.01.04.02.68.36 1.54.3 2.16-.24.82-.7.9-1.92.2-2.74a45.2 45.2 0 0 0-4.14-4.27l-2.23-1.93c-.01-.01-1.14-.8-1.45-1.02l.35-1.6 3.05 1.32c1.93.85 3.9 1.8 5.93 2.47 2.04.65 4.06 1.26 6.2 1.67.8.15 1.65-.22 2.06-.98.5-.94.16-2.1-.78-2.62l-.03-.02c-1.8-.98-3.67-1.87-5.48-2.8-.01 0-.02-.01-.03-.02h-.01l-2.7-1.3a60.1 60.1 0 0 1-2.71-1.4l-3.76-2.06.17-.54 7.58 1.62c2.17.4 4.48.92 6.76 1.07 2.3.15 4.53.2 6.85 0 .83-.08 1.54-.68 1.72-1.53.2-.9-.3-1.8-1.14-2.16-.13-.05-.26-.1-.4-.13h-.06l-6.3-1.27c-2.1-.43-4.1-.83-6.22-1.42a210.9 210.9 0 0 1-7.27-2.16l.22-.7 3.63.08 7.08-.03 1.77-.03a43.3 43.3 0 0 0 1.84-.05 33.7 33.7 0 0 0 3.64-.34c2.4-.4 4.73-.87 7.08-1.68.8-.27 1.35-1.05 1.3-1.93-.04-.68-.42-1.25-.97-1.57a1.8 1.8 0 0 0-1.1-.27h-.08c-2.2.12-4.5.28-6.73.3l-3.33.06-1.64-.03-1.72-.08a224.4 224.4 0 0 1-6.87-.56l-4.26-.47c2.33-.24 4.5-.56 6.72-.93a165.7 165.7 0 0 0 7.38-1.43 49.5 49.5 0 0 0 7.43-2 41.3 41.3 0 0 0 6.94-3.34c.72-.45 1.1-1.34.84-2.2m-124.76 28.9h-1.65v-1.32h3.22v6.38h-1.57v-5.05m3.8 6.74l3.44-6.67h-3.78v-1.4h5.36v1.1l-3.65 7.43-1.37-.46m68.72-2.84c.8-.62 3.23-2.07 3.23-2.94 0-.7-.48-.9-1.18-.9-.6 0-1.2.2-1.5.34l-.38-1.1a4.4 4.4 0 0 1 1.95-.48c2.07 0 2.58 1.06 2.58 2.08 0 1.37-1.84 2.48-2.8 3h3.1v1.22h-5v-1.24m9.18.03v-3.33l-1.88 3.33zm0 1.23h-3.44v-1.23l2.77-4.9h2.17v4.9h1.18v1.23h-1.18v2.15h-1.5v-2.15"/></svg>