<?xml version="1.0" encoding="UTF-8" standalone="no"?>
<svg
   xmlns:dc="http://purl.org/dc/elements/1.1/"
   xmlns:cc="http://creativecommons.org/ns#"
   xmlns:rdf="http://www.w3.org/1999/02/22-rdf-syntax-ns#"
   xmlns:svg="http://www.w3.org/2000/svg"
   xmlns="http://www.w3.org/2000/svg"
   viewBox="0 0 168.24001 196.09332"
   height="196.09332"
   width="168.24001"
   xml:space="preserve"
   id="svg2"
   version="1.1"><metadata
     id="metadata8"><rdf:RDF><cc:Work
         rdf:about=""><dc:format>image/svg+xml</dc:format><dc:type
           rdf:resource="http://purl.org/dc/dcmitype/StillImage" /></cc:Work></rdf:RDF></metadata><defs
     id="defs6" /><g
     transform="matrix(1.3333333,0,0,-1.3333333,0,196.09333)"
     id="g10"><g
       transform="scale(0.1)"
       id="g12"><path
         id="path14"
         style="fill:#4f5c67;fill-opacity:1;fill-rule:nonzero;stroke:none"
         d="m 496.969,1298.02 c 0.449,-1.1 0.898,-2.13 1.328,-3.07 7.93,-16.86 22.461,-33.16 22.461,-33.16 0,0 0.156,0.11 0.254,0.17 l 0.039,-0.04 c 0,0 2.09,1.58 6.328,3.99 1.434,0.8 3.105,1.7 5.039,2.67 4.59,2.29 10.547,4.92 17.949,7.54 17.5,6.19 40.77,8.15 40.77,8.15 0,0 -21.688,30.15 -25.77,73.75 -2.304,24.68 -1.347,37.65 -1.086,38.39 -1.465,0.1 -2.918,0.24 -4.414,0.24 -16.465,0 -31.57,-5.76 -43.465,-15.35 -0.304,-0.24 -0.597,-0.47 -0.89,-0.71 -15.301,-12.71 -25.047,-31.91 -25.047,-53.36 0,-5.99 0.828,-11.75 2.254,-17.3 1.125,-3.54 2.676,-8.07 4.25,-11.91" /><path
         id="path16"
         style="fill:#4f5c67;fill-opacity:1;fill-rule:nonzero;stroke:none"
         d="m 618.492,1292.02 c 4.434,-4.79 8.848,-6.89 12.86,-6.89 h 0.011 1.016 0.019 c 4.004,0 8.438,2.1 12.86,6.89 9.726,9.39 19.98,25.31 26.906,44.61 9.981,27.91 7.07,51.5 -4.59,62.71 -5.781,5.18 -12.851,8.68 -20.695,9.81 -1.738,0.25 -4.727,0.41 -7.723,0.49 13.477,3.4 23.485,15.49 23.485,30.02 0,17.13 -13.895,31.03 -31.036,31.03 -17.148,0 -31.042,-13.9 -31.042,-31.05 0,-14.5 10,-26.59 23.457,-29.98 -2.629,-0.1 -5.352,-0.26 -7.161,-0.51 -7.832,-1.13 -14.91,-4.65 -20.691,-9.83 -11.652,-11.21 -14.57,-34.78 -4.59,-62.69 6.934,-19.3 17.188,-35.22 26.914,-44.61" /><path
         id="path18"
         style="fill:#4f5c67;fill-opacity:1;fill-rule:nonzero;stroke:none"
         d="m 914.742,1086.59 c 7.11,-11.27 6.758,-25.37 6.758,-25.37 0.098,-0.04 14.336,-2.48 21.367,-9.51 0,0 1.102,1.07 1.258,1.27 9.629,11.83 27.355,31.25 32.461,59.41 4.16,22.93 1.477,55.06 -3.367,65.33 -0.176,0.37 -0.332,0.94 -0.508,1.25 4.59,5.33 12.187,17.7 33.179,17.7 7.73,0 14.59,-2.13 20.18,-4.77 9.22,-4.45 14.88,-10.29 14.88,-10.29 0,0 -18.1,-32.25 -27.6,-47.62 -4.84,-7.85 -8.37,-13.96 -18.131,-35.47 -8.125,-17.93 -10.313,-29.8 -8.906,-42.65 1.183,-10.76 6.906,-31.37 9.367,-52.09 4.74,-39.69 -3.086,-59.085 -3.086,-59.085 0,0 0.203,0.137 0.476,0.313 -0.066,-0.156 -0.175,-0.449 -0.175,-0.449 0,0 47.065,31.074 76.805,100.471 -0.12,0.02 -0.19,0.06 -0.32,0.08 0,0 0.02,0.03 0.03,0.05 -5.54,1.02 -9.92,2.54 -13.87,4.52 -3.92,1.97 -7.4,4.39 -11.07,7.2 -26.33,20.14 -20.41,41.55 -11.84,51.62 2.44,2.88 4.97,5.65 7.58,8.44 6.62,7.07 13.77,14.18 21.29,22.95 9.51,11.07 12.95,22.15 14.16,31.93 0.41,3.34 0.89,6.72 0.89,10.22 0,29.18 -14.16,49.06 -32.2,59.02 -6,3.34 -12.42,5.59 -18.91,6.72 -20.17,3.48 -44.877,-4.12 -62.924,-16.4 -6.875,-4.67 -18.215,-15.08 -21.379,-22.92 -3.953,-19.68 1.926,-24.66 7.89,-45.01 0.129,-0.41 0.383,-0.71 0.5,-1.14 12.364,-45.23 6.016,-67.13 -34.785,-75.72" /><path
         id="path20"
         style="fill:#4f5c67;fill-opacity:1;fill-rule:nonzero;stroke:none"
         d="m 712.711,1126.98 c 5.312,-11.29 15.039,-22.19 15.039,-22.19 0,0 0.078,0.04 0.098,0.06 0.058,-0.06 1.425,-1.44 1.425,-1.44 0,0 5.332,4.66 19.325,10.09 11.574,4.5 26.359,6.08 26.359,6.08 0,0 -14.512,20.19 -17.246,49.37 -1.594,16.9 -0.879,25.65 -0.723,25.78 -0.097,0.02 -0.215,0 -0.312,0.02 l 0.019,0.12 c -7.402,1.25 -15.039,-0.19 -22.07,-3.51 -4.855,-2.7 -9.141,-5.69 -12.734,-8.89 -6.27,-5.57 -10.469,-11.84 -12.09,-18.52 -2.571,-7.13 -3.477,-15 -1.953,-23.14 0.136,-0.7 2.656,-9.12 4.863,-13.83" /><path
         id="path22"
         style="fill:#4f5c67;fill-opacity:1;fill-rule:nonzero;stroke:none"
         d="m 777.145,1156.88 c 6.277,-17.5 16.66,-32.17 24.707,-35.25 1.23,-0.51 2.421,-0.84 3.523,-0.84 h 0.012 c 8.289,1 19.285,17.73 24.609,38.22 4.981,19.16 1.582,35.22 -6.797,41.99 -1.914,1.45 -4.023,2.68 -6.25,3.66 -2.246,1.03 -4.609,1.83 -7.09,2.38 -0.39,0.08 -0.761,0.23 -1.152,0.35 6.883,3.38 11.523,10.94 11.133,19.59 -0.371,8.54 -5.567,15.65 -12.61,18.46 -2.41,1.01 -5.046,1.54 -7.8,1.42 -10.586,-0.48 -18.789,-10.07 -18.282,-21.46 0.411,-8.65 5.731,-15.8 12.911,-18.54 h 0.007 c -5.3,-1.38 -9.988,-4.04 -13.855,-7.52 -7.793,-7.5 -9.746,-23.77 -3.066,-42.46" /><path
         id="path24"
         style="fill:#4f5c67;fill-opacity:1;fill-rule:nonzero;stroke:none"
         d="m 833.844,1121.14 c 0,0 24.746,-0.18 49.461,-9.84 0.441,-0.16 0.754,-0.41 1.164,-0.61 3.301,4.22 8.105,10.88 11.316,17.72 2.219,4.68 4.738,13.1 4.875,13.8 1.524,8.15 0.606,16.02 -1.965,23.15 -1.629,6.7 -5.828,12.95 -12.078,18.53 -3.594,3.21 -7.883,6.18 -12.734,8.87 -0.059,0.02 -0.117,0.04 -0.176,0.08 -0.051,0.02 -0.098,0.06 -0.137,0.08 -7.023,3.32 -14.668,4.76 -22.05,3.53 0.156,-0.13 0.859,-8.9 -0.723,-25.8 -2.734,-29.16 -17.246,-49.35 -17.246,-49.35 0,0 0.234,-0.02 0.371,-0.04 l -0.078,-0.12" /><path
         id="path26"
         style="fill:#4f5c67;fill-opacity:1;fill-rule:nonzero;stroke:none"
         d="m 672.602,1284.27 c 0,0 23.273,-1.96 40.773,-8.15 7.402,-2.62 13.359,-5.25 17.957,-7.54 1.926,-0.97 3.606,-1.87 5.031,-2.67 4.239,-2.41 6.328,-3.99 6.328,-3.99 l 0.039,0.04 c 0.106,-0.06 0.262,-0.17 0.262,-0.17 0,0 14.524,16.3 22.453,33.16 0.438,0.94 0.887,1.97 1.328,3.07 1.582,3.84 3.125,8.37 4.258,11.91 1.426,5.55 2.254,11.31 2.254,17.3 0,21.45 -9.746,40.65 -25.047,53.36 -0.293,0.24 -0.597,0.47 -0.89,0.71 -11.903,9.59 -27,15.35 -43.477,15.35 -1.484,0 -2.937,-0.14 -4.414,-0.24 0.273,-0.74 1.231,-13.71 -1.082,-38.39 -4.082,-43.6 -25.773,-73.75 -25.773,-73.75" /><path
         id="path28"
         style="fill:#4f5c67;fill-opacity:1;fill-rule:nonzero;stroke:none"
         d="m 687.973,1217.23 c 0,0 2.726,-13.61 4.355,-19.7 0.098,0.04 1.672,-0.06 1.672,-0.14 10.352,4.16 30.652,10.24 30.652,17.01 v 17.23 4.47 c 0,3.95 -3.964,7.64 -10.984,10.88 -14.316,6.68 -41.164,11.31 -71.66,11.88 l -17.715,0.03 c -31.484,-0.33 -59.746,-5.03 -74.492,-11.91 -7.024,-3.24 -11.125,-6.93 -11.125,-10.88 v -4.47 -17.23 c 0,-6.77 20.519,-12.85 30.871,-17.01 0,0.08 1.648,0.18 1.738,0.14 1.649,6.09 4.422,19.7 4.422,19.7 0,0 -2.215,0.9 -2.644,1.8 -1.25,2.72 1.035,4.3 4.882,6.45 3.809,2.09 10.118,3.34 15.469,3.53 3.242,-11.91 3.711,-30.6 3.027,-46.64 -1.406,-32.19 -7.5,-72.58 -26.562,-100.06 7.246,-7.03 15.234,-16.17 23.437,-27.87 19.774,37.91 22.891,79.4 24.551,122.13 0.723,18.81 -0.031,40.84 0,55.9 1.836,0.02 7.957,0.76 14.063,0.76 6.074,0 12.117,-0.74 13.965,-0.76 0.019,-15.06 -0.743,-37.09 0,-55.9 1.679,-43.5 4.785,-85.72 25.527,-124.18 7.508,11 14.891,19.84 21.719,26.82 0.488,0.68 0.918,1.31 1.414,2.01 -19.637,27.48 -25.821,68.55 -27.254,101.15 -0.684,16.04 -0.227,34.73 3.027,46.64 5.36,-0.19 11.649,-1.44 15.469,-3.53 3.828,-2.15 6.113,-3.73 4.844,-6.45 -0.411,-0.9 -2.668,-1.8 -2.668,-1.8" /><path
         id="path30"
         style="fill:#4f5c67;fill-opacity:1;fill-rule:nonzero;stroke:none"
         d="m 954.555,913.465 h -0.02 c -0.105,0.039 -0.164,0.137 -0.281,0.156 -0.305,0.039 -0.586,0.117 -0.899,0.098 l -0.507,-0.039 c -1.153,-0.098 -2.188,-0.215 -3.243,-0.332 -11.308,-0.703 -22.304,0.136 -31.398,3.691 -5.144,1.699 -9.578,4.609 -13.894,7.656 -0.997,0.821 -12.512,10.996 -14.571,12.91 -8.34,7.813 -24.082,19.239 -40.351,20.84 -18.36,1.836 -30.078,-4.902 -43.235,-10.078 -1.218,-0.488 -2.176,-1.679 -2.273,-3.086 -0.078,-1.543 0.82,-2.89 2.148,-3.476 0.469,-0.254 0.957,-0.45 1.524,-0.469 13.008,-0.938 25.418,-3.164 37.187,-6.621 8.731,-2.637 17.403,-5.449 24.238,-10.313 9.012,-6.406 16.797,-14.55 21.973,-17.832 6.719,-4.257 12.676,-8.379 20.379,-9.922 8.098,-1.367 16.535,-0.8 24.445,1.25 0.34,0.098 0.684,0.215 1.043,0.313 2.102,0.527 4.114,1.309 6.125,2.07 2.743,1.094 5.41,2.324 7.899,3.789 0.109,0.059 0.207,0.118 0.304,0.176 1.622,0.957 3.321,1.738 4.825,2.871 0.039,0.02 0.097,0.039 0.136,0.078 0.946,0.723 1.512,1.895 1.395,3.164 -0.137,1.641 -1.395,2.852 -2.949,3.106" /><path
         id="path32"
         style="fill:#4f5c67;fill-opacity:1;fill-rule:nonzero;stroke:none"
         d="m 904.125,1034.68 c 0.832,-2.6 3.594,-5.36 6.711,-7.17 9.805,-5.71 13.301,-14.05 -1.387,-15.78 -10.703,-1.27 -21.855,5.86 -61.386,-5 -23.184,-6.37 -50.508,-29.769 -60.012,-40.55 -2.938,-3.34 -5.957,-7.207 -8.778,-11.289 -9.179,-13.243 -9.082,-31.055 0.84,-43.77 5.899,-7.539 12.5,-12.461 14.422,-13.75 34.707,-23.516 67.297,-4.043 70.832,-0.488 2.852,2.832 3.028,3.965 2.481,4.707 -0.059,0.078 -0.168,0.058 -0.235,0.117 -0.019,0 -0.05,0 -0.07,-0.019 -0.008,0.019 0.012,0.039 0.012,0.039 -0.078,0.097 -11.035,-5.821 -26.426,-5.821 -8.731,0 -17.676,1.543 -25.09,4.864 -5.437,2.48 -17.996,9.179 -25.398,21.035 -4.786,7.695 -3.789,17.617 2.011,24.57 5.828,6.992 12.891,13.574 19.512,18.457 14.902,10.938 31.992,17.559 51.836,17.871 0.488,0 0.957,0.059 1.426,0.059 9.98,0 19.539,-1.739 28.535,-4.688 4.539,-1.504 8.926,-3.34 13.125,-5.469 12.723,-6.523 23.75,-15.878 32.168,-27.304 0.019,0.019 0.047,0.078 0.066,0.117 0.071,-0.098 0.168,-0.176 0.235,-0.273 3.234,5.527 6.894,13.789 9.992,25.39 0.555,2.051 1.094,4.121 1.601,6.367 4.403,19.453 3.125,64.608 -39.816,64.608 -0.789,0 -1.582,-0.35 -2.371,-0.55 -4.57,-1.21 -5.664,-3.69 -4.836,-6.28" /><path
         id="path34"
         style="fill:#4f5c67;fill-opacity:1;fill-rule:nonzero;stroke:none"
         d="m 198.492,1139.89 c 7.528,-8.77 14.676,-15.88 21.289,-22.95 2.617,-2.79 5.145,-5.56 7.578,-8.44 8.575,-10.07 14.5,-31.48 -11.828,-51.62 -3.679,-2.81 -7.156,-5.23 -11.074,-7.2 -3.945,-1.98 -8.328,-3.5 -13.875,-4.52 0.02,-0.02 0.039,-0.05 0.039,-0.05 -0.117,-0.02 -0.215,-0.06 -0.332,-0.08 29.746,-69.397 76.816,-100.471 76.816,-100.471 0,0 -0.117,0.293 -0.175,0.449 0.273,-0.176 0.468,-0.313 0.468,-0.313 0,0 -7.832,19.395 -3.085,59.085 2.468,20.72 8.191,41.33 9.375,52.09 1.406,12.85 -0.782,24.72 -8.907,42.65 -9.758,21.51 -13.293,27.62 -18.144,35.47 -9.473,15.37 -27.598,47.62 -27.598,47.62 0,0 5.664,5.84 14.883,10.29 5.594,2.64 12.461,4.77 20.176,4.77 21.015,0 28.601,-12.37 33.191,-17.7 -0.176,-0.31 -0.332,-0.88 -0.508,-1.25 -4.843,-10.27 -7.527,-42.4 -3.367,-65.33 5.106,-28.16 22.832,-47.58 32.461,-59.41 0.156,-0.2 1.25,-1.27 1.25,-1.27 7.031,7.03 21.289,9.47 21.387,9.51 0,0 -0.352,14.1 6.758,25.37 -40.813,8.59 -47.168,30.49 -34.797,75.72 0.129,0.43 0.382,0.73 0.5,1.14 5.976,20.35 11.843,25.33 7.89,45.01 -3.164,7.84 -14.511,18.25 -21.386,22.92 -18.047,12.28 -42.754,19.88 -62.93,16.4 -6.484,-1.13 -12.91,-3.38 -18.899,-6.72 -18.046,-9.96 -32.195,-29.84 -32.195,-59.02 0,-3.5 0.469,-6.88 0.879,-10.22 1.211,-9.78 4.668,-20.86 14.16,-31.93" /><path
         id="path36"
         style="fill:#4f5c67;fill-opacity:1;fill-rule:nonzero;stroke:none"
         d="m 485.035,1119.58 c 0,0 14.785,-1.58 26.367,-6.08 14.004,-5.43 19.317,-10.09 19.317,-10.09 0,0 1.367,1.38 1.433,1.44 0.02,-0.02 0.11,-0.06 0.11,-0.06 0,0 9.715,10.9 15.019,22.19 2.207,4.71 4.735,13.13 4.864,13.83 1.523,8.14 0.625,16.01 -1.954,23.14 -1.621,6.68 -5.82,12.95 -12.089,18.52 -3.594,3.2 -7.872,6.19 -12.727,8.89 -7.031,3.32 -14.676,4.76 -22.07,3.51 l 0.019,-0.12 c -0.105,-0.02 -0.215,0 -0.32,-0.02 0.164,-0.13 0.879,-8.88 -0.715,-25.78 -2.734,-29.18 -17.254,-49.37 -17.254,-49.37" /><path
         id="path38"
         style="fill:#4f5c67;fill-opacity:1;fill-rule:nonzero;stroke:none"
         d="m 454.625,1120.79 v 0 c 1.102,0 2.285,0.33 3.523,0.84 8.04,3.08 18.43,17.75 24.719,35.25 6.668,18.69 4.727,34.96 -3.086,42.46 -3.867,3.48 -8.547,6.14 -13.847,7.52 h 0.007 c 7.18,2.74 12.493,9.89 12.903,18.54 0.515,11.39 -7.696,20.98 -18.281,21.46 -2.754,0.12 -5.372,-0.41 -7.793,-1.42 -7.051,-2.81 -12.239,-9.92 -12.618,-18.46 -0.39,-8.65 4.258,-16.21 11.133,-19.59 -0.39,-0.12 -0.754,-0.27 -1.144,-0.35 -2.489,-0.55 -4.852,-1.35 -7.098,-2.38 -2.227,-0.98 -4.328,-2.21 -6.242,-3.66 -8.387,-6.77 -11.778,-22.83 -6.797,-41.99 5.324,-20.49 16.32,-37.22 24.621,-38.22" /><path
         id="path40"
         style="fill:#4f5c67;fill-opacity:1;fill-rule:nonzero;stroke:none"
         d="m 364.215,1128.41 c 3.203,-6.84 8.008,-13.5 11.328,-17.72 0.398,0.2 0.703,0.45 1.152,0.61 24.707,9.66 49.453,9.84 49.453,9.84 l -0.078,0.12 c 0.137,0.02 0.379,0.04 0.379,0.04 0,0 -14.519,20.19 -17.246,49.35 -1.59,16.9 -0.887,25.67 -0.711,25.8 -7.402,1.23 -15.039,-0.21 -22.07,-3.53 -0.039,-0.02 -0.078,-0.06 -0.129,-0.08 -0.047,-0.04 -0.117,-0.06 -0.176,-0.08 -4.851,-2.69 -9.129,-5.66 -12.722,-8.87 -6.27,-5.58 -10.469,-11.83 -12.09,-18.53 -2.578,-7.13 -3.477,-15 -1.953,-23.15 0.117,-0.7 2.656,-9.12 4.863,-13.8" /><path
         id="path42"
         style="fill:#4f5c67;fill-opacity:1;fill-rule:nonzero;stroke:none"
         d="m 452.445,941.336 c 0.559,0.019 1.067,0.215 1.516,0.469 1.336,0.586 2.234,1.933 2.148,3.476 -0.089,1.407 -1.035,2.598 -2.265,3.086 -13.164,5.176 -24.883,11.914 -43.223,10.078 -16.289,-1.601 -32.031,-13.027 -40.351,-20.84 -2.071,-1.914 -13.586,-12.089 -14.59,-12.91 -4.309,-3.047 -8.75,-5.957 -13.887,-7.656 -9.102,-3.555 -20.078,-4.394 -31.387,-3.691 -1.066,0.117 -2.109,0.234 -3.242,0.332 l -0.508,0.039 c -0.312,0.019 -0.605,-0.059 -0.918,-0.098 -0.109,-0.019 -0.168,-0.117 -0.273,-0.156 h -0.02 c -1.554,-0.254 -2.812,-1.465 -2.949,-3.106 -0.117,-1.269 0.449,-2.441 1.387,-3.164 0.039,-0.039 0.097,-0.058 0.144,-0.078 1.504,-1.133 3.215,-1.914 4.817,-2.871 0.105,-0.058 0.215,-0.117 0.312,-0.176 2.481,-1.465 5.157,-2.695 7.899,-3.789 2.011,-0.761 4.015,-1.543 6.125,-2.07 0.351,-0.098 0.703,-0.215 1.054,-0.313 7.891,-2.05 16.329,-2.617 24.434,-1.25 7.695,1.543 13.652,5.665 20.379,9.922 5.176,3.282 12.961,11.426 21.965,17.832 6.855,4.864 15.508,7.676 24.238,10.313 11.777,3.457 24.18,5.683 37.195,6.621" /><path
         id="path44"
         style="fill:#4f5c67;fill-opacity:1;fill-rule:nonzero;stroke:none"
         d="m 308.844,976.902 c 0.508,-2.246 1.054,-4.316 1.601,-6.367 3.106,-11.601 6.758,-19.863 10,-25.39 0.067,0.097 0.157,0.175 0.235,0.273 0.019,-0.039 0.039,-0.098 0.058,-0.117 8.426,11.426 19.453,20.781 32.168,27.304 4.219,2.129 8.594,3.965 13.133,5.469 8.996,2.949 18.547,4.688 28.527,4.688 0.489,0 0.946,-0.059 1.426,-0.059 19.844,-0.312 36.934,-6.933 51.836,-17.871 6.621,-4.883 13.692,-11.465 19.512,-18.457 5.801,-6.953 6.805,-16.875 2.012,-24.57 -7.403,-11.856 -19.961,-18.555 -25.391,-21.035 -7.422,-3.321 -16.359,-4.864 -25.078,-4.864 -15.41,0 -26.367,5.918 -26.426,5.821 0,0 0,-0.02 0,-0.039 -0.019,0.019 -0.051,0.019 -0.07,0.019 -0.067,-0.059 -0.164,-0.039 -0.242,-0.117 -0.547,-0.742 -0.364,-1.875 2.48,-4.707 3.543,-3.555 36.133,-23.028 70.84,0.488 1.922,1.289 8.515,6.211 14.414,13.75 9.922,12.715 10.019,30.527 0.848,43.77 -2.821,4.082 -5.848,7.949 -8.789,11.289 -9.5,10.781 -36.805,34.18 -60.008,40.55 -39.532,10.86 -50.684,3.73 -61.387,5 -14.68,1.73 -11.191,10.07 -1.379,15.78 3.117,1.81 5.871,4.57 6.699,7.17 0.84,2.59 -0.254,5.07 -4.824,6.28 -0.789,0.2 -1.59,0.55 -2.371,0.55 -42.941,0 -44.219,-45.155 -39.824,-64.608" /><path
         id="path46"
         style="fill:#4f5c67;fill-opacity:1;fill-rule:nonzero;stroke:none"
         d="m 831.188,314.59 0.078,-0.469 c 0.078,0.02 0.156,-0.019 0.234,0 -0.117,0.149 -0.176,0.309 -0.312,0.469" /><path
         id="path48"
         style="fill:#4f5c67;fill-opacity:1;fill-rule:nonzero;stroke:none"
         d="m 654.371,752.332 c 1.465,-2.852 7.07,-7.383 8.289,-16.113 0.129,-0.938 21.653,22.851 21.653,22.851 v 22.832 l -22.969,-9.687 -6.973,-19.883" /><path
         id="path50"
         style="fill:#4f5c67;fill-opacity:1;fill-rule:nonzero;stroke:none"
         d="m 514.137,153.141 c 10.418,2.789 19.883,5.98 29.949,9.839 4.973,1.961 9.973,4.129 14.902,6.649 5.012,2.531 9.953,5.43 14.766,8.82 4.746,3.301 9.133,7.5 12.883,12.231 1.914,2.32 3.437,4.941 4.804,7.699 0.645,1.441 1.368,2.961 1.836,4.312 l 0.938,3.77 0.027,0.117 c 0.676,2.711 -0.965,5.492 -3.679,6.172 -1.055,0.25 -2.09,0.102 -3.04,-0.23 -0.906,-0.301 -1.726,-0.821 -2.351,-1.551 -3.145,-3.688 -6.516,-6.25 -10.137,-8.219 -3.594,-1.871 -7.422,-3.238 -11.543,-4.531 -8.398,-2.418 -17.617,-3.707 -27.051,-4.918 -9.316,-1.192 -19.445,-2.231 -28.691,-3.129 -9.277,-0.844 -18.711,-1.332 -28.301,-1.66 l -29.707,-0.973 c -10.312,-0.527 -21.054,-1.078 -33.379,-3.91 -4.668,-1.129 -9.746,-2.539 -14.922,-4.981 -1.738,-0.796 -3.496,-1.738 -5.246,-2.808 -6.746,-4.199 -13.484,-11.059 -16.785,-19.012 -3.469,-7.906 -3.867,-15.816 -2.519,-22.5 1.562,-6.719 4.297,-12.519 9.101,-17.539 1.942,-2.008 4.824,-2.48 7.266,-1.437 0.82,0.289 2.93,2.148 2.93,2.148 8.554,13.809 26.875,21.211 30.449,22.07 14.785,3.45 35.937,4.391 56.289,7.379 10.351,1.5 20.781,3.461 31.211,6.192" /><path
         id="path52"
         style="fill:#4f5c67;fill-opacity:1;fill-rule:nonzero;stroke:none"
         d="m 421,210.328 c -0.195,-2.758 1.887,-5.117 4.621,-5.289 1.152,-0.078 2.227,0.25 3.106,0.84 l 0.175,0.109 c 0.039,0.043 0.086,0 0.086,0 l 1.621,1.121 c 2.356,1.582 4.739,2.891 7.121,4 7.313,3.321 14.688,4.532 21.954,4.692 9.98,0.289 20.117,-0.922 31.777,-3.012 12.586,-2.25 26.777,-3.277 40.547,-2.168 6.972,0.508 14.043,1.859 21.211,3.809 3.582,1.191 7.226,2.398 10.918,4.34 0.039,0.019 0.078,0.039 0.078,0.039 0.098,0.05 0.156,0.07 0.223,0.089 3.39,1.942 8.156,4.403 10.546,9.653 0.93,2.051 0.02,4.429 -2.019,5.347 -0.293,0.161 -0.625,0.282 -0.938,0.321 0,0 -13.984,2.633 -19.668,4.269 l -17.773,4.571 c -12.188,2.972 -23.789,5.57 -36.836,7.781 -13.867,2.379 -30.332,2.281 -45.684,-3.711 -1.933,-0.731 -3.847,-1.609 -5.722,-2.598 C 433.266,237.828 422.035,225.719 421,210.328" /><path
         id="path54"
         style="fill:#4f5c67;fill-opacity:1;fill-rule:nonzero;stroke:none"
         d="m 441.039,259.488 c 0.637,0.16 8.801,3.082 12.656,4.371 0,0 -0.086,0.02 -0.105,0.02 0.156,0.043 -48.027,17.441 -20.684,48.48 l 0.117,1.192 c -0.089,-0.102 -0.148,0.238 -0.214,0.14 -4.59,0.579 -9.258,0.188 -13.536,-1.582 -4.296,-1.718 -8.078,-4.55 -11.191,-8.398 -13.086,-16.231 4.863,-33.852 5.332,-34.18 -2.676,0.188 -9.121,1.149 -11.797,1.457 -11.64,7.953 -30.937,27.563 -3.254,69.082 -0.703,0.102 -1.406,0.121 -2.109,0.16 -3.992,0.2 -7.93,-0.55 -11.602,-2.191 -2.156,-0.699 -4.218,-1.539 -6.199,-2.559 -13.633,-6.64 -22.93,-19.511 -22.93,-34.468 0,-6.09 1.668,-11.793 4.415,-16.953 1.992,-3.75 4.687,-7.11 7.812,-10.059 -2.043,0.18 -10.879,0.719 -12.969,1.352 -12.695,14.589 -26.711,41.867 0.332,73.828 -0.703,0.07 -1.406,0.109 -2.101,0.148 -3.992,0.184 -7.93,-0.578 -11.61,-2.199 -2.433,-0.899 -4.707,-1.981 -6.836,-3.207 C 319.594,335.391 312.281,319 312.281,305.5 c 0,-6.09 2.207,-16.031 4.414,-21.441 17.762,-43.457 101.66,-30.289 124.344,-24.571" /><path
         id="path56"
         style="fill:#4f5c67;fill-opacity:1;fill-rule:nonzero;stroke:none"
         d="m 867.691,175.84 c -1.757,1.07 -3.515,2.012 -5.253,2.808 -5.176,2.442 -10.235,3.852 -14.922,4.981 -12.317,2.832 -23.067,3.383 -33.379,3.91 l -29.688,0.973 c -9.59,0.328 -19.043,0.816 -28.32,1.66 -9.238,0.898 -19.367,1.937 -28.684,3.129 -9.433,1.211 -18.66,2.5 -27.039,4.918 -4.14,1.293 -7.968,2.66 -11.554,4.531 -3.622,1.969 -6.993,4.531 -10.145,8.219 -0.617,0.73 -1.437,1.25 -2.344,1.551 -0.949,0.332 -1.984,0.48 -3.027,0.23 -2.727,-0.68 -4.375,-3.461 -3.691,-6.172 l 0.039,-0.117 0.925,-3.77 c 0.481,-1.351 1.192,-2.871 1.836,-4.312 1.368,-2.758 2.891,-5.379 4.805,-7.699 3.75,-4.731 8.137,-8.93 12.883,-12.231 4.805,-3.39 9.765,-6.289 14.754,-8.82 4.953,-2.52 9.933,-4.688 14.914,-6.649 10.066,-3.859 19.531,-7.05 29.941,-9.839 10.438,-2.731 20.879,-4.692 31.211,-6.192 20.36,-2.988 41.512,-3.929 56.309,-7.379 3.554,-0.859 21.875,-8.261 30.429,-22.07 0,0 2.118,-1.859 2.95,-2.148 2.422,-1.043 5.312,-0.571 7.246,1.437 4.824,5.02 7.558,10.82 9.101,17.539 1.356,6.684 0.957,14.594 -2.511,22.5 -3.309,7.953 -10.047,14.813 -16.786,19.012" /><path
         id="path58"
         style="fill:#4f5c67;fill-opacity:1;fill-rule:nonzero;stroke:none"
         d="m 699.449,218.898 c 0.067,-0.019 0.125,-0.039 0.196,-0.078 0.039,-0.011 0.078,-0.031 0.078,-0.031 3.711,-1.961 7.363,-3.168 10.937,-4.359 7.176,-1.95 14.238,-3.301 21.211,-3.809 13.77,-1.109 27.969,-0.082 40.547,2.168 11.68,2.09 21.805,3.301 31.785,3.012 7.258,-0.16 14.641,-1.371 21.945,-4.692 2.391,-1.109 4.766,-2.418 7.129,-4 l 1.582,-1.078 c 0.039,-0.043 0.098,0 0.098,0 l 0.195,-0.152 c 0.879,-0.59 1.961,-0.918 3.125,-0.84 2.735,0.172 4.805,2.531 4.61,5.289 -1.035,15.391 -12.278,27.5 -25.332,34.203 -1.887,0.989 -3.801,1.867 -5.735,2.598 -15.351,5.992 -31.824,6.09 -45.683,3.711 -13.047,-2.211 -24.637,-4.809 -36.824,-7.781 l -17.774,-4.571 c -5.695,-1.636 -19.68,-4.269 -19.68,-4.269 -0.32,-0.039 -0.632,-0.16 -0.937,-0.321 -2.039,-0.918 -2.957,-3.296 -2.02,-5.347 2.391,-5.25 7.149,-7.711 10.547,-9.653" /><path
         id="path60"
         style="fill:#4f5c67;fill-opacity:1;fill-rule:nonzero;stroke:none"
         d="m 929.32,343.922 c -2.129,1.226 -4.402,2.308 -6.843,3.207 -3.672,1.621 -7.618,2.383 -11.602,2.199 -0.703,-0.039 -1.406,-0.078 -2.109,-0.148 27.05,-31.961 13.027,-59.239 0.351,-73.828 -2.109,-0.633 -10.937,-1.172 -12.988,-1.352 3.133,2.949 5.82,6.309 7.812,10.059 2.754,5.16 4.414,10.863 4.414,16.953 0,14.957 -9.296,27.828 -22.929,34.468 -1.973,1.02 -4.043,1.86 -6.192,2.559 -3.671,1.641 -7.609,2.391 -11.601,2.191 -0.703,-0.039 -1.406,-0.058 -2.11,-0.16 27.696,-41.519 8.379,-61.129 -3.261,-69.082 -2.676,-0.308 -9.114,-1.269 -11.797,-1.457 0.488,0.328 18.437,17.949 5.351,34.18 -3.125,3.848 -6.914,6.68 -11.211,8.398 -4.269,1.77 -8.937,2.161 -13.515,1.582 -0.078,0.098 -0.137,-0.242 -0.215,-0.14 l 0.117,-1.192 c 27.324,-31.039 -20.84,-48.437 -20.703,-48.48 l -0.098,-0.02 c 3.856,-1.289 12.012,-4.211 12.657,-4.371 22.683,-5.718 106.582,-18.886 124.336,24.571 2.207,5.41 4.421,15.351 4.421,21.441 0,13.5 -7.312,29.891 -22.285,38.422" /><path
         id="path62"
         style="fill:#4f5c67;fill-opacity:1;fill-rule:nonzero;stroke:none"
         d="m 710.133,471.383 c -0.449,0.586 -1.914,0.937 -1.914,0.937 -0.684,0.118 -1.406,0.078 -2.012,-0.273 -4.102,-2.477 -6.633,-5.156 -8.906,-7.906 -2.071,-2.743 -3.781,-5.532 -4.805,-8.403 -1.055,-2.847 -1.933,-5.758 -1.281,-8.847 0.695,-3.102 2.219,-6.313 6.496,-9.84 0.945,-0.801 4.629,-2.172 7.207,-1.313 5.273,1.703 7.891,4.082 9.707,6.703 1.758,2.618 2.031,5.618 2.117,8.688 0.137,3.051 -0.398,6.269 -1.297,9.57 -1.093,3.403 -2.433,6.86 -5.312,10.684" /><path
         id="path64"
         style="fill:#4f5c67;fill-opacity:1;fill-rule:nonzero;stroke:none"
         d="m 752.328,613.941 c 1.731,-1.601 3.352,-3.437 4.883,-5.507 0.578,-0.918 0.969,-1.582 1.457,-2.403 0.605,-1.152 1.191,-2.304 1.777,-3.515 3.192,-6.68 5.274,-13.692 6.836,-21.856 -1.476,0.508 -2.734,0.664 -4.375,0.703 -19.472,0.508 -30.254,-10.605 -33.593,-27.988 0,0 6.218,4.746 11.492,6.094 4.66,1.133 11.191,0.293 11.191,0.293 -7.371,-8.946 -15.242,-17.578 -23.418,-25.996 -1.59,3.847 -3.933,6.406 -6.902,6.992 -3.176,0.625 -6.543,-1.172 -9.668,-4.57 -3.262,7.363 -10.801,25.839 -12.324,30.156 0,0 5.644,0.547 10.371,-1.621 5.261,-2.422 10.429,-9.121 10.429,-9.121 0.821,4.277 0,12.519 -1.484,17.148 -3.039,9.434 -10.059,15.43 -21.543,16.875 -2.258,0.293 -4.492,0.156 -6.699,-0.156 8.789,13.613 18.847,23.594 29.062,28.535 -2.832,-21.445 26.504,-25.84 32.508,-4.063 z m 13.195,-109.043 c -1.484,-8.437 -2.96,-14.472 -5.39,-22.109 -1.887,-5.937 -5.195,-14.488 -7.688,-19.789 -4.851,6.488 -14.168,22.074 -23.886,39.848 0.421,1.543 0.832,3.066 1.152,4.687 0.637,3.223 0.949,6.328 1.094,9.297 9.972,9.766 19.425,21.25 29.386,32.52 0,0 4.618,-4.493 2.969,-12.539 -1.543,-7.461 -8.41,-12.188 -8.41,-12.188 6.438,-0.137 9.074,-0.508 14.836,1.973 -0.703,-5.821 -3.008,-15.664 -4.063,-21.7 z M 696.09,412.262 c -9.992,1.308 -15.508,7.066 -18.781,10.879 -9.149,10.648 -10.184,20.82 -10.215,20.937 l 35.5,43.262 c 1.902,-5.391 5.82,-7.266 6.855,-7.402 0.078,-0.02 0.137,-0.079 0.215,-0.098 3.281,-0.625 6.738,1.308 9.93,4.902 0.89,-2.226 21.496,-40.254 22.304,-40.863 -12.851,-21.09 -32.507,-33.379 -45.808,-31.617 z m -28.672,115.234 c 0.527,3.027 2.461,11.68 3.086,14.609 0.137,-0.156 1.961,-4.648 6.484,-7.753 5.274,-3.633 8.555,-3.789 11.192,-4.122 0,0 -3.84,5.489 -4.766,12.52 -1.191,8.945 2.957,16.152 2.957,16.152 2.199,-3.574 13,-29.785 17.199,-38.476 -0.754,-2.344 -1.425,-4.766 -1.945,-7.344 -0.281,-1.426 -0.437,-2.812 -0.625,-4.219 -0.105,-0.8 -0.293,-1.562 -0.379,-2.363 -0.683,-0.625 -30.078,-36.41 -37.109,-43.5 -4.043,24.34 0.781,46.605 3.906,64.496 z m 49.727,114.981 c -0.071,0.078 -0.137,0.156 -0.196,0.234 l -1.367,-0.879 c -5.988,-2.617 -11.906,-6.367 -17.629,-11.211 -23.348,-19.726 -43.465,-56.68 -52.254,-101.016 -8.398,-42.363 -4.472,-81.734 8.34,-107.945 8.535,-17.441 20.957,-29.101 36.434,-31.738 15.215,-2.563 31.035,3.976 45.5,17.047 22.351,20.179 41.453,56.051 49.949,98.886 8.683,43.79 4.25,84.434 -9.598,110.586 -8.476,16.016 -20.469,26.622 -35.176,29.122 -7.929,1.328 -16.015,0.136 -24.003,-3.086" /><path
         id="path66"
         style="fill:#4f5c67;fill-opacity:1;fill-rule:nonzero;stroke:none"
         d="m 611.527,573.648 c 0,0 -37.234,-14.101 -54.968,-21.269 l 36.269,62.891 c 0.098,-0.313 1.719,-8.829 16.465,-15 -0.449,-2.266 2.234,-26.622 2.234,-26.622 z m 19.661,-277.25 c -0.247,0 -0.489,0.043 -0.743,0.043 -64.484,0.348 -121.476,43.649 -155.949,109.571 16.067,27.09 49.27,86.211 49.27,86.211 3.132,-12.11 21.64,-92.282 21.64,-92.282 0,0 -23.398,-10.101 -11.562,-17.351 11.816,-7.219 36.972,-1.871 36.972,-1.871 0,0 6.387,-5.778 13.301,-10.61 8.203,-6.168 17.481,-10.738 27.481,-13.429 3.797,-1.45 6.414,-2.391 6.414,-2.391 0,0 -2.344,-11.07 1.203,-16.828 1.406,-2.25 2.715,-4.199 7.215,-4.199 1.3,0 2.617,0.289 3.937,0.758 3.887,1.46 7.637,4.57 9.766,6.781 5.41,5.558 7.344,9.527 11.387,14.918 -0.157,0.23 0.058,0.621 0.41,1.031 9.597,2.602 19.726,6.102 29.336,18.109 -23.399,9.161 -43.262,30.532 -50.899,65.86 -2.793,12.89 -4.375,26.91 -4.523,41.758 -0.164,15.468 1.125,31.738 4.172,48.437 0.097,0.586 0.234,1.133 0.351,1.699 10.996,57.891 46.973,102.09 57.383,105.879 -3.223,7.403 -1.855,26.27 -27.07,36.68 -5.43,2.246 -22.305,3.262 -23.867,10.996 7.929,5.41 13.964,15.547 15.449,27.734 2.011,16.36 -4.875,31.047 -15.899,36.301 2.637,6.035 9.11,14.277 9.11,14.277 l -12.586,13.477 -2.52,-1.348 -13.73,-7.343 c 0,0 4.129,-11.797 4.101,-18.145 -10.84,-3.633 -18.906,-12.168 -20.742,-27.363 -0.918,-7.434 3.164,-18.977 11.621,-27.453 4.571,-4.571 5.477,-8.438 2.645,-11.27 -6.199,-6.211 -19.032,-4.687 -25.633,-14.297 -4.16,-6.054 -9.172,-20.058 -9.172,-20.058 -3.113,-6.289 -21.355,-50.059 -30.32,-65.489 -2.246,-3.867 -11.348,-18.203 -11.348,-18.203 0,0 -3.945,-2.734 -8.398,-6.308 -3.614,-2.91 -7.52,-6.348 -9.922,-9.434 -6.926,-8.828 -4.121,-24.668 0.097,-31.367 l -53.105,-97.051 c -2.07,4.41 -3.066,6.871 -3.066,6.871 -14.934,36.449 -23.438,78.266 -23.438,122.68 0,135.976 79.637,247.531 179.766,255.519 h 10.468 12.715 c 11.043,-0.918 21.817,-3.125 32.285,-6.425 5.489,-1.739 10.86,-3.789 16.153,-6.133 76.062,-33.828 131.101,-129.953 131.101,-242.961 0,-141.149 -85.789,-255.981 -191.257,-255.981 z m 629.982,442.047 c -1.17,3.907 -3.85,6.953 -7.19,8.672 -3.26,1.797 -7.23,2.344 -11.07,1.211 l -0.62,-0.195 c -16.64,-4.981 -34.05,-10.176 -51.17,-14.141 -8.56,-2.148 -17.08,-4.179 -25.6,-6.035 -8.49,-1.816 -16.87,-3.262 -26.07,-4.492 -17.91,-2.395 -35.92,-4.406 -53.87,-5.949 -11.52,-0.957 -23.33,-1.758 -34.8,-2.266 1.64,0.43 3.27,0.859 4.99,1.328 5,1.387 9.91,2.813 14.76,4.336 9.71,3.039 19.23,6.301 28.64,9.758 18.85,6.894 37.13,14.394 55.4,22.422 18.24,7.812 37.38,16.679 54.29,27.597 17.03,11.25 33.03,22.969 48,37.559 4.6,4.512 5.79,11.719 2.41,17.539 -1.52,2.637 -3.75,4.609 -6.31,5.82 -4.2,2.09 -9.32,2.129 -13.69,-0.39 l -0.58,-0.352 c -15.78,-9.121 -32.48,-18.476 -49.14,-26.465 -16.85,-8.261 -32.85,-16.132 -50.82,-22.265 -17.84,-6.231 -36.04,-12.071 -54.13,-17.129 -9.06,-2.52 -18.12,-4.863 -27.14,-6.934 l -6.02,-1.269 c 4.56,1.953 9.01,3.945 13.34,6.054 9.84,4.786 19.26,9.883 28.5,15.176 18.41,10.606 36.03,21.973 53.26,33.77 17.65,11.914 35.25,24.863 50.58,39.629 15.3,15.097 29.4,30.507 41.76,48.769 3.63,5.371 3.29,12.754 -1.27,17.774 -1.38,1.503 -3.02,2.617 -4.76,3.418 -5.14,2.441 -11.45,1.738 -15.89,-2.325 l -0.55,-0.488 c -14.13,-12.852 -29.34,-26.094 -44.85,-37.852 -15.57,-11.972 -30.74,-23.632 -47.77,-33.398 -3.19,-1.855 -6.43,-3.574 -9.62,-5.391 -14.17,-8.027 -28.45,-15.781 -42.89,-22.714 -2.79,-1.352 -5.58,-2.602 -8.37,-3.868 -5.27,-2.421 -10.53,-4.707 -15.79,-6.836 0.97,0.645 1.94,1.29 2.88,1.934 6.18,4.375 12.01,8.906 17.69,13.516 3.15,2.539 6.31,5.078 9.38,7.675 16.91,14.375 32.67,29.59 47.77,44.981 0.19,0.195 0.4,0.391 0.58,0.586 16.02,16.289 31.02,33.105 43.75,51.64 12.54,18.77 23.76,37.637 32.55,59.102 2.49,6.073 0.56,13.303 -5.03,17.223 -0.07,0.06 -0.18,0.06 -0.27,0.12 -0.01,0.02 -0.02,0.02 -0.02,0.02 -6.52,4.61 -15.49,3.05 -20.08,-3.46 l -0.43,-0.6 c -11.56,-16.428 -24.3,-33.381 -37.71,-48.889 -3.99,-4.687 -8.01,-9.355 -12.07,-13.965 -9.48,-10.801 -19.22,-21.289 -29.81,-30.644 -5.3,-4.707 -10.67,-9.199 -16.03,-13.731 -9.72,-8.203 -19.51,-16.191 -29.51,-23.652 1.54,1.992 3.12,4.004 4.6,6.016 8.28,11.367 15.9,22.91 23.19,34.55 5.06,8.086 9.98,16.211 14.77,24.395 8.43,14.121 16.13,28.613 22.81,43.496 2.99,6.68 5.83,13.414 8.33,20.274 8,22.3 14.44,44.47 17.86,68.63 0.94,6.62 -2.89,13.22 -9.43,15.55 -0.03,0 -0.06,0.02 -0.08,0.02 -0.08,0.02 -0.15,0.1 -0.24,0.12 -7.48,2.67 -15.71,-1.25 -18.37,-8.75 l -0.24,-0.71 c -6.05,-17.13 -13.38,-34.74 -21.31,-51.72 -1.26,-2.69 -2.38,-5.5 -3.67,-8.16 -8.95,-18.4 -18.28,-36.504 -29.18,-53.516 -0.64,-1.015 -1.24,-2.051 -1.89,-3.066 -8.18,-11.992 -16.7,-23.653 -25.43,-35 -26.92,-29.981 -72.281,-60 -96.82,-71.934 -11.953,-5.801 -24.16,-13.75 -36.387,-19.746 -0.195,-0.098 -0.382,-0.195 -0.566,-0.293 -8.242,-4.004 -15.332,-10.39 -19.512,-18.555 -1.054,-2.07 -1.906,-4.257 -2.648,-6.503 -1.289,-3.965 -2.098,-8.125 -2.098,-12.52 0,-15.723 8.555,-30.781 21.395,-37.5 4.269,-2.324 9.035,-3.672 14.133,-3.832 0.839,-0.016 1.503,0.102 2.226,0.18 4.395,0.445 6.836,2.363 6.836,2.363 0,0 -3.43,9.219 1.824,13.379 0.871,0.566 1.789,1.055 2.754,1.484 2.434,1.094 5.11,1.739 7.942,1.739 2.664,0 5.183,-0.528 7.488,-1.485 6.836,-3.008 11.613,-9.805 11.613,-17.754 0,-9.824 -7.344,-17.851 -16.816,-19.121 -4.297,-1.68 -12.559,-1.953 -17.793,-1.953 -10.891,0 -21.524,1.133 -31.817,3.027 -14.179,2.618 -27.707,7.09 -40.324,12.871 -15.34,7.071 -43.484,27.715 -43.055,28.887 -28.984,26.914 -47.304,63.867 -48.886,104.766 -0.071,1.875 -0.293,3.73 -0.293,5.625 0,5.879 0.41,12.285 1.094,18.008 1.191,10.058 3.464,19.961 6.628,29.55 5.657,17.129 14.25,33.164 25.215,46.934 1.067,1.328 6.028,6.797 12.434,13.145 0.371,0.37 0.762,0.74 1.141,1.13 0.07,0.06 0.128,0.12 0.207,0.2 7.058,6.95 15.625,14.72 22.949,19.51 0,0 -0.012,0 -0.02,0 0.028,0.02 0.059,0.04 0.078,0.04 -0.507,0.33 -1.308,1.05 -2.121,1.83 -0.945,0.92 -1.902,1.92 -2.41,2.48 -13.34,1.31 -18.086,7.66 -20.324,13.03 -0.067,0.16 -0.137,0.33 -0.195,0.49 -0.176,0.43 -0.379,0.9 -0.516,1.27 -0.684,2.01 -0.664,8.09 -0.41,8.95 0.996,4.92 3.953,9.8 6.484,12.2 1.192,1.35 2.442,2.52 3.75,3.54 4.024,3.1 8.582,4.8 13.438,5.74 1.211,0.25 2.429,0.49 3.66,0.61 0.156,0.01 0.312,0.05 0.461,0.07 12.39,1.31 24.629,-4.06 29.551,-16.73 l 0.039,-0.08 c -0.684,-0.49 -7.844,-1.82 -7.844,-1.82 h -0.008 -0.019 c -2.54,5.43 -6.778,7.72 -11.731,7.34 -1.648,-0.11 -3.387,-0.54 -5.164,-1.25 -1.164,-0.44 -2.141,-1.05 -2.969,-1.75 -7.949,-6.78 -0.969,-23.89 10.059,-25.1 1.719,-0.18 3.543,0.02 5.43,0.72 0.058,0.02 0.136,0.06 0.195,0.08 4.844,1.91 35.574,9.3 54.062,12.21 3.555,0.56 6.7,0.97 9.082,1.13 0.059,0.04 0.137,0.08 0.215,0.12 0,0.02 0,0.04 0,0.04 0.02,0 0.039,0.02 0.039,0.02 3.203,5.19 3.34,39.33 -23.554,50.46 -21.262,8.79 -39.707,10.2 -56.407,10.24 -15.136,0.02 -28.886,-1.54 -42.988,-4.65 -54.727,-12.03 -88.047,-43.73 -118.535,-112.305 v -0.019 c -20.664,-40.547 -28.086,-79.434 -31.074,-90.118 0,0 -1.133,-0.019 -3.028,-0.039 -3.066,11.465 -10.488,50.137 -30.84,90.098 v 0.02 c -30.507,68.593 -63.984,100.293 -118.71,112.323 -14.102,3.09 -28.028,4.65 -43.165,4.63 -16.699,-0.02 -35.148,-1.45 -56.406,-10.22 -26.894,-11.13 -26.758,-45.29 -23.566,-50.48 0.07,-0.04 0.148,-0.08 0.226,-0.12 2.364,-0.16 5.508,-0.57 9.063,-1.13 18.496,-2.91 49.219,-10.3 54.062,-12.21 0.059,-0.02 0.145,-0.06 0.204,-0.08 1.886,-0.7 3.703,-0.9 5.429,-0.72 12.149,1.33 19.406,21.99 7.141,26.82 -1.778,0.7 -3.508,1.13 -5.168,1.25 -4.949,0.37 -9.18,-1.92 -11.719,-7.37 h -0.027 v 0 c 0,0 -7.559,1.41 -7.91,1.86 l 0.058,0.1 c 4.903,12.67 17.149,18.04 29.531,16.73 0.157,-0.02 0.313,-0.06 0.469,-0.07 1.231,-0.12 2.442,-0.36 3.66,-0.61 6.457,-1.25 12.434,-3.87 17.246,-9.34 2.532,-2.38 5.481,-7.26 6.485,-12.2 0.246,-0.84 0.273,-6.92 -0.418,-8.93 -0.137,-0.37 -0.332,-0.86 -0.508,-1.27 -0.059,-0.17 -0.117,-0.33 -0.195,-0.51 -2.239,-5.37 -6.973,-11.72 -20.332,-13 -0.508,-0.59 -1.465,-1.59 -2.403,-2.5 -0.812,-0.79 -1.621,-1.51 -2.121,-1.82 7.805,-5.12 17.024,-13.61 24.348,-20.88 6.406,-6.367 11.367,-11.835 12.441,-13.183 10.977,-13.75 19.551,-29.805 25.215,-46.934 3.164,-9.59 5.43,-19.511 6.629,-29.57 0.676,-5.723 1.106,-12.188 1.106,-18.066 0,-1.895 -0.235,-3.868 -0.313,-5.743 -0.129,-3.418 -0.391,-6.796 -0.754,-10.156 -3.633,-17.129 -11.277,-44.98 -25.437,-68.496 -0.723,-1.074 -1.446,-2.148 -2.207,-3.184 h 0.234 c -5.402,-8.476 -11.699,-16.273 -19.004,-22.656 0.43,-1.172 -27.726,-21.816 -43.059,-28.887 -12.625,-5.781 -26.14,-10.253 -40.32,-12.871 -10.293,-1.894 -20.93,-3.027 -31.828,-3.027 -5.234,0 -13.496,0.273 -17.781,1.953 -9.485,1.27 -16.817,9.297 -16.817,19.121 0,7.949 4.774,14.746 11.602,17.754 2.305,0.957 4.844,1.485 7.488,1.485 2.844,0 5.52,-0.645 7.961,-1.739 0.957,-0.429 1.875,-0.918 2.742,-1.484 5.246,-4.16 1.828,-13.379 1.828,-13.379 0,0 2.442,-1.918 6.836,-2.363 0.723,-0.078 1.387,-0.196 2.227,-0.18 5.098,0.16 9.852,1.508 14.121,3.832 12.852,6.719 21.395,21.777 21.395,37.5 0,4.395 -0.801,8.555 -2.098,12.52 -0.742,2.246 -1.582,4.433 -2.637,6.503 -4.179,8.165 -11.269,14.551 -19.511,18.555 -0.196,0.098 -0.372,0.195 -0.567,0.293 -12.226,5.996 -24.433,13.945 -36.387,19.746 -24.543,11.934 -69.902,41.953 -96.816,71.934 -8.73,11.347 -17.266,23.008 -25.43,35 -0.664,1.015 -1.25,2.051 -1.894,3.066 -10.899,17.012 -20.246,35.116 -29.18,53.516 -1.301,2.66 -2.414,5.47 -3.672,8.16 -7.929,16.98 -15.254,34.59 -21.308,51.72 l -0.254,0.71 c -2.657,7.5 -10.879,11.42 -18.36,8.75 -0.097,-0.02 -0.148,-0.1 -0.234,-0.12 -0.02,0 -0.059,-0.02 -0.078,-0.02 -6.555,-2.33 -10.371,-8.93 -9.434,-15.55 3.418,-24.16 9.864,-46.33 17.852,-68.63 2.508,-6.86 5.351,-13.594 8.34,-20.274 6.668,-14.883 14.363,-29.375 22.812,-43.496 4.774,-8.184 9.707,-16.309 14.754,-24.395 7.297,-11.64 14.922,-23.183 23.195,-34.55 1.485,-2.012 3.067,-4.024 4.61,-6.016 -10,7.461 -19.805,15.449 -29.512,23.652 -5.371,4.532 -10.742,9.024 -16.035,13.731 -10.586,9.355 -20.332,19.843 -29.805,30.644 -4.062,4.61 -8.086,9.278 -12.07,13.965 -13.41,15.508 -26.1525,32.461 -37.715,48.889 l -0.4414,0.6 c -4.5703,6.51 -13.5547,8.07 -20.0664,3.48 0,0 -0.0117,-0.02 -0.0195,-0.04 -0.0899,-0.06 -0.1954,-0.06 -0.2735,-0.12 -5.5859,-3.92 -7.5195,-11.15 -5.039,-17.223 8.7968,-21.465 20.0195,-40.332 32.5664,-59.102 12.7264,-18.535 27.7144,-35.351 43.7424,-51.64 0.183,-0.195 0.39,-0.391 0.574,-0.586 15.109,-15.391 30.871,-30.606 47.785,-44.981 3.067,-2.597 6.219,-5.136 9.375,-7.675 5.684,-4.61 11.504,-9.141 17.695,-13.516 0.938,-0.644 1.915,-1.289 2.872,-1.934 -5.266,2.129 -10.52,4.415 -15.782,6.836 -2.793,1.266 -5.586,2.516 -8.379,3.868 -14.433,6.933 -28.711,14.687 -42.89,22.714 -3.196,1.817 -6.438,3.536 -9.629,5.391 -17.012,9.766 -32.199,21.426 -47.7541,33.398 -15.5078,11.758 -30.7343,25 -44.8554,37.852 l -0.5469,0.488 c -4.4414,4.063 -10.75,4.766 -15.8867,2.325 -1.75,-0.801 -3.3789,-1.915 -4.7656,-3.418 -4.5625,-5.02 -4.9024,-12.403 -1.2696,-17.774 12.3633,-18.262 26.4649,-33.672 41.7578,-48.769 15.3321,-14.766 32.918,-27.715 50.5855,-39.629 17.227,-11.797 34.833,-23.164 53.262,-33.77 9.238,-5.293 18.653,-10.39 28.496,-15.176 4.325,-2.109 8.778,-4.101 13.34,-6.054 l -6.027,1.269 c -9.012,2.071 -18.086,4.414 -27.137,6.934 -18.086,5.058 -36.289,10.898 -54.133,17.129 -17.968,6.133 -33.9646,14.004 -50.8083,22.265 -16.6602,7.989 -33.3594,17.344 -49.1524,26.465 l -0.5859,0.352 c -4.3555,2.519 -9.4805,2.48 -13.67971,0.39 -2.5586,-1.211 -4.78516,-3.183 -6.3086,-5.82 -3.378903,-5.82 -2.187496,-13.027 2.40235,-17.539 14.98046,-14.59 30.97656,-26.309 48.00786,-37.559 16.914,-10.918 36.0546,-19.785 54.2967,-27.597 18.262,-8.028 36.543,-15.528 55.391,-22.422 9.414,-3.457 18.926,-6.719 28.633,-9.758 4.863,-1.523 9.773,-2.949 14.773,-4.336 1.711,-0.469 3.352,-0.898 4.992,-1.328 -11.476,0.508 -23.281,1.309 -34.804,2.266 -17.95,1.543 -35.958,3.554 -53.868,5.949 -9.211,1.23 -17.578,2.676 -26.0739,4.492 -8.5156,1.856 -17.043,3.887 -25.6055,6.035 -17.1093,3.965 -34.5234,9.16 -51.164,14.141 l -0.6133,0.195 c -3.8594,1.133 -7.8125,0.586 -11.07424,-1.211 C 4.44922,745.398 1.77344,742.352 0.601563,738.445 -1.29297,732.039 1.44141,725.359 6.87109,722.02 23.707,711.617 40.875,703.98 58.9219,696.988 76.6953,690.191 96.5,685.836 114.684,682.047 c 18.359,-3.984 36.746,-7.598 55.332,-10.723 16.718,-2.754 32.968,-5.176 50.449,-6.992 -10.625,-1.25 -21.309,-2.461 -31.965,-3.535 -17.137,-1.66 -34.324,-3.086 -51.504,-4.199 -4.266,-0.313 -8.504,-0.469 -12.918,-0.625 l -12.324,-0.196 -24.9415,0.469 c -16.6992,0.176 -33.8867,1.367 -50.4687,2.266 l -0.5665,0.019 c -3,0.157 -5.8203,-0.605 -8.2226,-2.031 -4.1211,-2.383 -7.0117,-6.68 -7.2852,-11.758 -0.3515,-6.601 3.7774,-12.402 9.7461,-14.453 17.6172,-6.055 35.0469,-9.668 53.1133,-12.617 9.0156,-1.309 18.1171,-2.129 27.3361,-2.52 4.59,-0.254 9.219,-0.332 13.848,-0.39 l 13.261,-0.196 c 17.715,-0.39 35.43,-0.468 53.145,-0.234 12.273,0.137 14.941,0.156 27.246,0.566 l 1.621,-5.332 c -20.266,-6.367 -34.094,-10.527 -54.531,-16.23 -15.899,-4.492 -30.977,-7.461 -46.66,-10.684 -15.528,-3.496 -31.6528,-6.289 -47.2583,-9.511 l -0.4297,-0.098 c -1.0625,-0.234 -2.0703,-0.586 -3.0156,-0.996 -6.2305,-2.637 -9.9414,-9.375 -8.5351,-16.231 1.3281,-6.425 6.6992,-10.937 12.9101,-11.503 17.4024,-1.543 34.1996,-1.094 51.4066,0 17.097,1.152 34.394,5 50.683,8.027 16.446,3.047 40.586,8.769 56.856,12.168 l 1.297,-4.082 c -6.766,-3.887 -21.414,-11.68 -28.192,-15.43 -6.769,-3.75 -13.535,-7.148 -20.324,-10.469 -6.707,-3.261 -13.426,-6.464 -20.164,-9.824 l -0.051,-0.039 c -0.086,-0.059 -0.164,-0.098 -0.254,-0.117 -13.543,-7.012 -27.578,-13.711 -41.082,-21.035 l -0.246,-0.137 c -7.039,-3.77 -9.656,-12.578 -5.848,-19.629 3.086,-5.703 9.434,-8.496 15.477,-7.344 15.988,3.047 31.145,7.598 46.477,12.5 15.242,5.098 30.027,12.168 44.511,18.516 3.848,1.66 19.012,8.203 22.852,9.902 l 2.617,-12.07 c -2.363,-1.66 -10.852,-7.578 -10.879,-7.617 l -16.738,-14.492 c -11.016,-9.844 -21.32,-20.582 -31.074,-32.012 -5.246,-6.149 -4.532,-15.367 1.609,-20.59 4.641,-3.98 11.094,-4.469 16.211,-1.789 0.07,0.039 0.129,0.07 0.207,0.09 0.027,0.019 0.066,0.019 0.098,0.039 13.379,6.961 26.101,14.75 38.144,23.402 l 12.735,7.438 c 0.039,-0.27 7.011,-42.129 8.828,-59.469 5.703,-54.039 4.082,-116.23 9.922,-123.52 4.871,-6.05 14.57,-4.679 23.269,-4.941 -0.586,2.051 -0.879,3.992 -1.316,6 -0.02,0.191 0.058,0.41 0,0.609 -6.231,28.961 2.371,50.352 7.715,59.063 0.085,0.148 0.039,0.328 0.117,0.488 0.117,0.172 0.613,1.91 0.593,2.281 -1.882,34.379 -6.492,89.829 -14.265,132.891 -12.383,68.652 -33.176,178.594 -39.082,209.707 -0.344,1.875 0.312,3.535 1.472,4.707 1.301,1.153 3.118,1.738 5.051,1.25 21.055,-5.332 55.653,-8.437 77.989,-9.902 16.687,-1.113 56.503,-0.996 97.519,11.601 -17.383,-41.015 -27.305,-88.105 -27.305,-138.105 0,-98.051 38.067,-184.77 96.036,-236.777 -6.856,-1.071 -11.954,-2.051 -13.379,-2.563 -14.922,-5.23 -26.641,-12.769 -33.204,-16.578 -0.156,-0.082 -0.273,-0.25 -0.421,-0.352 -0.438,-0.199 -0.926,-0.41 -1.297,-0.609 -2.266,-1.27 -2.403,-3.801 -1.856,-6.34 1.524,-7.109 5.457,-15.941 9.317,-21.191 0.859,-1.141 1.699,-2.27 3.125,-2.348 54.218,-2.691 94.07,-6.812 126.015,-27.07 0.137,-0.102 0.282,-0.172 0.43,-0.27 0.879,-0.551 1.68,-1.25 2.539,-1.82 15.098,-11.891 21.172,-36.481 8.867,-53.981 -4.238,-4.359 -8.644,-8.601 -13.008,-12.601 C 577.223,157.07 561.098,146.172 544.164,138 c -16.934,-8.262 -34.637,-13.391 -52.578,-15.969 -18.055,-3.32 -36.063,-5.711 -59.637,-11.293 l -0.136,-0.019 c -0.774,-0.199 -1.477,-0.547 -2.071,-0.981 -1.953,-1.269 -3.027,-3.629 -2.472,-6.027 0.234,-1 0.734,-1.883 1.378,-2.582 17.293,-18.6681 42.852,-26.0587 67.5,-24.6876 18.653,1.4492 36.739,6.7969 53.282,14.707 5.535,2.6602 10.898,5.5704 16.054,8.711 20.536,12.6996 38.184,29.2186 51.512,48.6916 0.285,0.39 0.539,0.84 0.813,1.23 -0.059,-0.211 -0.118,-0.41 -0.168,-0.621 -3.028,-10.531 -13.055,-38.172 -21.082,-47.41 -8.137,-9.3516 -15.567,-18.2812 -24.141,-25.3086 -6.418,-5.25 -13.145,-9.7109 -20.625,-13.4609 -2.461,-1.211 -5,-2.3789 -7.637,-3.4297 -10.812,-4.4922 -23.242,-7.4024 -37.851,-10.5313 l -0.137,-0.039 c -0.742,-0.1719 -1.406,-0.4688 -1.992,-0.9024 -1.875,-1.1484 -2.942,-3.3593 -2.453,-5.6562 0.304,-1.3711 1.066,-2.5 2.121,-3.2422 12.988,-9.2188 29.375,-13.5391 46.375,-12.5391 8.605,0.5196 17.199,2.5899 25.312,5.9297 8.028,3.2695 15.598,7.7813 22.219,13.2695 2.215,1.8321 3.984,3.8594 5.977,5.8907 3.738,-7.461 7.695,-14.9219 10.574,-22.3399 3.789,-8.8906 6.808,-17.7695 11.672,-26.6406 1.093,-1.988281 3.535,-2.910156 4.472,-2.7304687 0,-0.1796873 3.817,0.7421877 4.91,2.7304687 4.875,8.8711 8.321,17.75 12.102,26.6406 2.891,7.418 6.844,14.8789 10.586,22.3399 1.992,-2.0313 3.77,-4.0586 5.977,-5.8907 6.621,-5.4882 14.179,-10 22.214,-13.2695 8.118,-3.3398 16.711,-5.4101 25.305,-5.9297 17.012,-1 33.399,3.3203 46.387,12.5391 1.054,0.7422 1.816,1.8711 2.117,3.2422 0.48,2.2969 -0.574,4.5078 -2.449,5.6562 -0.586,0.4336 -1.25,0.7305 -1.992,0.9024 l -0.137,0.039 c -14.61,3.1289 -27.043,6.0391 -37.852,10.5313 -2.636,1.0508 -5.175,2.2187 -7.636,3.4297 -7.481,3.75 -14.2,8.2109 -20.625,13.4609 -8.575,7.0274 -16.016,15.957 -24.141,25.3086 -8.027,9.238 -18.066,36.879 -21.086,47.41 -0.059,0.211 -0.105,0.41 -0.164,0.621 0.273,-0.39 0.527,-0.84 0.801,-1.23 13.34,-19.473 30.984,-35.992 51.523,-48.6916 5.156,-3.1406 10.508,-6.0508 16.043,-8.711 16.555,-7.9101 34.641,-13.2578 53.293,-14.707 24.649,-1.3711 50.203,6.0195 67.5,24.6876 0.645,0.699 1.133,1.582 1.367,2.582 0.567,2.398 -0.508,4.758 -2.461,6.027 -0.605,0.434 -1.308,0.782 -2.07,0.981 l -0.148,0.019 c -23.555,5.582 -41.571,7.973 -59.629,11.293 -17.938,2.578 -35.645,7.707 -52.586,15.969 -16.926,8.172 -33.047,19.07 -47.891,31.879 -4.367,4 -8.769,8.242 -13.008,12.601 -12.304,17.5 -6.23,42.09 8.868,53.981 0.859,0.57 1.66,1.269 2.539,1.82 0.144,0.098 0.293,0.168 0.429,0.27 31.942,20.258 71.797,24.379 126.004,27.07 1.438,0.078 2.278,1.207 3.125,2.348 3.86,5.25 7.785,14.082 9.317,21.191 0.546,2.539 0.39,5.07 -1.875,6.34 -0.379,0.199 -0.887,0.41 -1.317,0.609 -0.156,0.102 -0.324,0.27 -0.48,0.352 -6.571,3.809 -18.387,11.348 -33.309,16.578 -1.367,0.492 -6.328,1.391 -12.746,2.43 58.078,51.992 96.23,138.761 96.23,236.91 0,50 -10.027,96.953 -27.41,137.969 40.84,-12.442 80.391,-12.559 97.012,-11.465 22.332,1.465 56.934,4.57 77.988,9.902 1.92,0.488 3.75,-0.097 5.05,-1.25 1.16,-1.172 1.81,-2.832 1.46,-4.707 -5.9,-31.113 -26.685,-141.055 -39.068,-209.707 -7.774,-43.062 -12.383,-98.512 -14.27,-132.891 -0.019,-0.371 0.481,-2.109 0.598,-2.281 0.078,-0.16 0.039,-0.34 0.117,-0.488 5.34,-8.711 13.945,-30.102 7.695,-59.063 -0.039,-0.199 0.039,-0.418 0.02,-0.609 -0.449,-2.008 -0.734,-3.949 -1.32,-6 8.703,0.262 18.398,-1.109 23.273,4.941 5.84,7.29 4.219,69.481 9.922,123.52 1.816,17.34 8.783,59.199 8.823,59.469 l 12.74,-7.438 c 12.04,-8.652 24.76,-16.441 38.14,-23.402 0,0 0.07,-0.02 0.1,-0.039 0.07,-0.02 0.13,-0.051 0.2,-0.09 5.12,-2.68 11.57,-2.191 16.23,1.789 6.13,5.223 6.83,14.441 1.6,20.59 -9.77,11.43 -20.06,22.168 -31.08,32.012 l -16.73,14.492 c -0.04,0.039 -8.52,5.957 -10.88,7.617 l 2.61,12.07 c 3.83,-1.699 19.01,-8.242 22.86,-9.902 14.47,-6.348 29.26,-13.418 44.51,-18.516 15.33,-4.902 30.49,-9.453 46.47,-12.5 6.05,-1.152 12.39,1.641 15.48,7.344 3.81,7.051 1.19,15.859 -5.85,19.629 l -0.24,0.137 c -13.52,7.324 -27.54,14.023 -41.09,21.035 -0.09,0.019 -0.16,0.058 -0.26,0.117 l -0.04,0.039 c -6.75,3.36 -13.46,6.563 -20.18,9.824 -6.77,3.321 -13.55,6.719 -20.31,10.469 -6.78,3.75 -21.43,11.543 -28.19,15.43 l 1.3,4.082 c 16.27,-3.399 40.41,-9.121 56.85,-12.168 16.29,-3.027 33.59,-6.875 50.69,-8.027 17.2,-1.094 33.99,-1.543 51.4,0 6.21,0.566 11.58,5.078 12.91,11.503 1.41,6.856 -2.3,13.594 -8.53,16.231 -0.95,0.41 -1.96,0.762 -3.03,0.996 l -0.42,0.098 c -15.62,3.222 -31.73,6.015 -47.27,9.511 -15.67,3.223 -30.75,6.192 -46.66,10.684 -20.44,5.703 -34.25,9.863 -54.53,16.23 l 1.63,5.332 c 12.31,-0.41 14.96,-0.429 27.25,-0.566 17.71,-0.234 35.43,-0.156 53.14,0.234 l 13.27,0.196 c 4.62,0.058 9.25,0.136 13.84,0.39 9.22,0.391 18.32,1.211 27.34,2.52 18.07,2.949 35.49,6.562 53.11,12.617 5.97,2.051 10.1,7.852 9.75,14.453 -0.27,5.078 -3.17,9.375 -7.29,11.758 -2.4,1.426 -5.22,2.188 -8.22,2.031 l -0.57,-0.019 c -16.58,-0.899 -33.76,-2.09 -50.47,-2.266 l -24.95,-0.469 -12.31,0.196 c -4.41,0.156 -8.65,0.312 -12.92,0.625 -17.18,1.113 -34.36,2.539 -51.51,4.199 -10.65,1.074 -21.33,2.285 -31.96,3.535 17.48,1.816 33.73,4.238 50.45,6.992 18.58,3.125 36.98,6.739 55.33,10.723 18.19,3.789 37.98,8.144 55.76,14.941 18.05,6.992 35.22,14.629 52.06,25.032 5.43,3.339 8.16,10.019 6.27,16.425" /><path
         id="path68"
         style="fill:#4f5c67;fill-opacity:1;fill-rule:nonzero;stroke:none"
         d="m 324.645,521.949 h -12.364 v 9.922 h 24.16 v -47.832 h -11.796 v 37.91" /><path
         id="path70"
         style="fill:#4f5c67;fill-opacity:1;fill-rule:nonzero;stroke:none"
         d="M 353.16,471.305 379,521.324 h -28.371 v 10.547 h 40.187 v -8.262 l -27.402,-55.718 -10.254,3.414" /><path
         id="path72"
         style="fill:#4f5c67;fill-opacity:1;fill-rule:nonzero;stroke:none"
         d="m 868.746,492.574 c 6.074,4.649 24.199,15.528 24.199,22.051 0,5.156 -3.632,6.66 -8.847,6.66 -4.395,0 -9.102,-1.601 -11.309,-2.539 l -2.863,8.203 c 2.355,1.446 8.672,3.633 14.66,3.633 15.508,0 19.375,-7.949 19.375,-15.605 0,-10.254 -13.809,-18.614 -20.977,-22.559 h 23.34 v -9.141 h -37.578 v 9.297" /><path
         id="path74"
         style="fill:#4f5c67;fill-opacity:1;fill-rule:nonzero;stroke:none"
         d="m 937.594,492.516 v 24.961 l -14.082,-24.961 z m 0,-9.2 -25.84,-0.039 v 9.239 l 20.762,36.777 h 16.308 v -36.777 h 8.828 v -9.2 h -8.828 V 467.18 h -11.23 v 16.136" /></g></g></svg>