<svg xmlns="http://www.w3.org/2000/svg" width="52" height="72" viewBox="0 0 39 54"><path d="M1.555 19.063l.566-1.805-.566 1.805" fill="rgb(65.490196%,64.705882%,65.098039%)"/><path d="M1.555 19.063l-.395 1.28h.055l.328-1.28" fill="rgb(74.117647%,73.72549%,73.72549%)"/><path d="M.004 30.086l-.008 1.1.016.535c.094.055 5.578 3.652 17.566 5.453.7.113 2.113.012 2.113.012.363-.04.836.047.594.602 0 0-.238.836-.492 1.45-.406.973-2.785 9.238-2.734 13.305l2.13 1.56-.008-.125c.11-1.836.45-5.578.875-7.812l2.203-11.19c.016-.102-.016-.187-.086-.25-.07-.055-.168-.094-.28-.066a12.4 12.4 0 0 1-1.062.199c-.95.188-1.914.29-2.883.3-4.89.094-15.23-4.047-17.934-5.066zM.1 32.98c.492 4.87 2.94 9.297 6.738 12.047l9.324 6.848c-.043-3.535 2.148-10.746 2.883-13.25.06-.184-.47-.363-.664-.39C7.406 37.242.2 33.047.1 32.98zm6.004-25.88c.316.672.902 1.316.902 1.316a.45.45 0 0 1 .09.082s.324-.277 1.16-.594c.695-.27 1.582-.355 1.582-.355s-.87-1.19-1.035-2.918a7.99 7.99 0 0 1-.043-1.527h-.016v-.004c-.453-.066-.914.008-1.324.207-.273.145-.527.32-.762.523-.375.332-.625.7-.727 1.094-.152.426-.207.89-.113 1.37.008.04.16.54.297.816m3.855-1.77c.375 1.035 1 1.895 1.48 2.082.07.035.145.055.207.055.5-.055 1.16-1.047 1.47-2.258.3-1.133.098-2.082-.406-2.484-.113-.082-.242-.156-.37-.223a1.69 1.69 0 0 0-.426-.137c-.023-.008-.043-.012-.066-.023.4-.2.688-.645.668-1.16-.012-.477-.31-.906-.754-1.094-.148-.06-.31-.1-.47-.086-.633.027-1.13.598-1.098 1.27a1.23 1.23 0 0 0 .777 1.098c-.316.082-.602.238-.832.445-.47.445-.6 1.402-.187 2.504m3.4 2.117c.95.352 1.95.547 2.965.582.027.012.047.023.07.035.262-.324.488-.676.676-1.047.117-.266.215-.54.293-.816a2.57 2.57 0 0 0-.109-1.371c-.098-.39-.352-.762-.727-1.098-.23-.2-.488-.375-.762-.523l-.012-.004c-.43-.2-.887-.277-1.332-.21.04.508.023 1.02-.047 1.523-.168 1.727-1.035 2.918-1.035 2.918h.023l-.004.004m7.234 12.277c-.008 0-.012-.008-.02-.012-.016-.004-.03-.004-.055-.004h-.027l-.195.02c-.676.04-1.336-.012-1.88-.223-.312-.098-.578-.277-.832-.445l-.875-.762c-.5-.46-1.45-1.137-2.422-1.223-1.102-.113-1.81.29-2.598.594-.074.027-.133.102-.137.184-.004.1.055.168.13.207.03.016.06.027.1.027.758.05 1.508.18 2.234.39.527.156 1.047.32 1.453.61.543.38 1.004.86 1.316 1.06.395.25.762.5 1.223.586.484.078.984.05 1.46-.074l.06-.016c.125-.035.246-.074.367-.12a3.48 3.48 0 0 0 .473-.223l.02-.012c.094-.055.195-.102.28-.168.066-.043.102-.11.1-.187-.004-.098-.082-.168-.168-.184m-3.012-7.184c.055.156.215.316.395.422.586.336.79.836-.086.938-.645.07-1.312-.344-3.684.293-1.39.38-3.03 1.762-3.602 2.395a10.24 10.24 0 0 0-.527.668c-.547.78-.54 1.84.06 2.6.246.31.54.582.863.813 2.082 1.39 4.035.238 4.25.027.172-.168.184-.234.148-.277-.023-.012-.684.34-1.598.34-.527 0-1.062-.1-1.504-.29a3.6 3.6 0 0 1-1.527-1.242c-.28-.457-.227-1.043.113-1.45s.738-.773 1.168-1.1c.898-.668 1.988-1.04 3.11-1.06h.11a5.53 5.53 0 0 1 1.711.281 5.51 5.51 0 0 1 .785.32c.766.39 1.426.938 1.922 1.613.008 0 .012.008.02.012a6.3 6.3 0 0 0 .598-1.5l.098-.38c.266-1.148.184-3.82-2.39-3.82-.047 0-.098.023-.145.035-.28.07-.336.223-.28.37m-4.805-4.465a11.68 11.68 0 0 0-2.578.273c-3.277.71-5.285 2.582-7.11 6.637-.367.723-.687 1.473-.96 2.238l-.566 1.8-.328 1.28h-.055c-.43 1.43-1.078 3.086-1.12 4.52-.03.754-.027 2.07-.027 3.563.352.168 13.19 5.258 19.16 5.133a38.89 38.89 0 0 0 3.082-.332c.016-.008 1.355-.422 1.438-.152.066.074.11.168.082.28l-2.344 12.39c-.414 2.32-.68 4.664-.805 7.016l-.016.527c.004.012 1.672-1.14 2.25-1.63 0 0 .043-.3.13-1.617.066-1.027.527-3.496.53-3.508l.762.445c.73.516 1.496.98 2.29 1.387.012 0 .012.008.02.008.305.156.695.13.973-.113a.86.86 0 0 0 .094-1.223c-.578-.672-1.2-1.305-1.863-1.895l-1-.855-.656-.445.156-.715 1.37.586c.867.37 1.75.79 2.672 1.098a25.42 25.42 0 0 0 2.785.738.88.88 0 0 0 .93-.434.85.85 0 0 0-.352-1.156v-.012c-.81-.434-1.652-.836-2.465-1.242l-1.227-.586-1.223-.61-1.695-.914.082-.246 3.414.723c.977.18 2.012.406 3.04.477 1.035.066 2.035.086 3.086 0 .375-.035.695-.3.773-.68a.84.84 0 0 0-.508-.957c-.06-.027-.117-.047-.18-.06l-.023-.004-2.836-.56c-.94-.187-1.852-.367-2.8-.63-1.094-.297-2.187-.617-3.27-.957l.094-.316 1.64.03 3.977-.027c.285 0 .555-.004.832-.02a16.2 16.2 0 0 0 1.641-.152 18.98 18.98 0 0 0 3.188-.746.85.85 0 0 0 .582-.852.86.86 0 0 0-.434-.695c-.145-.082-.312-.13-.492-.113h-.035c-.996.06-2.035.125-3.03.137l-1.496.027-.734-.012c-.266-.012-.52-.016-.773-.04a90.83 90.83 0 0 1-3.094-.25l-1.922-.207c1.012-.11 2.02-.246 3.023-.4 1.113-.187 2.22-.398 3.32-.637 1.1-.223 2.277-.477 3.344-.89 1.086-.4 2.113-.863 3.125-1.48a.84.84 0 0 0 .375-.969.85.85 0 0 0-.43-.512.86.86 0 0 0-.668-.074l-.043.012c-1.004.297-2.035.602-3.07.836l-1.54.355a21.05 21.05 0 0 1-1.562.27c-1.074.137-2.148.262-3.234.348-.69.06-1.402.113-2.094.137l.3-.078.887-.258c.578-.176 1.152-.367 1.72-.574a56.59 56.59 0 0 0 3.324-1.324 21.82 21.82 0 0 0 3.254-1.629c1.03-.652 1.996-1.398 2.883-2.227.285-.27.34-.69.148-1.035-.1-.156-.227-.28-.38-.348-.254-.12-.566-.13-.82.023l-.03.023c-.965.555-1.95 1.078-2.953 1.563-1.016.488-1.977.945-3.05 1.313s-2.156.707-3.25 1.016c-.54.148-1.082.28-1.63.406l-.36.078c.27-.113.535-.23.8-.355a31.08 31.08 0 0 0 1.715-.898 45.73 45.73 0 0 0 3.191-2.004c1.078-.69 2.094-1.473 3.035-2.34.93-.875 1.77-1.84 2.504-2.883.227-.316.2-.758-.074-1.06-.082-.086-.18-.152-.28-.2a.87.87 0 0 0-.961.141l-.035.027c-.86.785-1.758 1.535-2.69 2.238s-1.84 1.39-2.863 1.97c-.19.113-.387.21-.578.32-.84.473-1.7.922-2.57 1.34l-.508.223a16.85 16.85 0 0 1-.949.402l.168-.113c.375-.254.72-.527 1.063-.8l.566-.445c.996-.844 1.95-1.73 2.863-2.656l.035-.03c.96-.965 1.867-1.96 2.62-3.05a19.91 19.91 0 0 0 1.957-3.492.85.85 0 0 0-.301-1.02c-.4-.285-.94-.184-1.22.2l-.027.035c-.707 1-1.46 1.965-2.262 2.89l-.723.824a19.59 19.59 0 0 1-1.793 1.809l-.96.813a38.64 38.64 0 0 1-1.77 1.398l.28-.36c.492-.66.957-1.344 1.39-2.043l.89-1.44a25.74 25.74 0 0 0 1.367-2.57 18.88 18.88 0 0 0 .496-1.199c.48-1.316.863-2.625 1.074-4.062.055-.39-.168-.78-.566-.918-.47-.16-.96.066-1.117.512l-.02.043c-.36 1.016-.8 2.063-1.277 3.063-.07.168-.14.336-.223.484-.54 1.086-1.098 2.16-1.754 3.164-.04.055-.074.12-.113.176-.488.703-.996 1.395-1.527 2.066a22.29 22.29 0 0 1-5.809 4.254c-.72.344-1.45.813-2.184 1.168l-.03.016c-.5.234-.922.613-1.172 1.098a3.7 3.7 0 0 0-.156.391c-.082.234-.125.477-.125.738 0 .93.508 1.82 1.28 2.22a1.79 1.79 0 0 0 .848.223c.06 0 .1-.008.137-.012.266-.027.406-.14.406-.14s-.203-.543.113-.79a.96.96 0 0 1 .164-.09 1.12 1.12 0 0 1 .477-.109 1.24 1.24 0 0 1 .449.086 1.14 1.14 0 0 1 .695 1.047 1.15 1.15 0 0 1-1.016 1.133c-.348.1-.707.13-1.07.113a10.47 10.47 0 0 1-1.91-.176 10.73 10.73 0 0 1-2.418-.758c-.93-.465-1.797-1.04-2.582-1.707-1.742-1.594-2.84-3.777-2.94-6.19-.004-.113-.016-.223-.016-.336.004-.355.023-.71.066-1.062.078-.594.21-1.18.398-1.746.34-1.016.848-1.96 1.516-2.773.055-.078.36-.402.746-.78l.078-.078c.422-.4.938-.867 1.37-1.152a1.61 1.61 0 0 1-.121-.109 2.59 2.59 0 0 1-.148-.145c-.805-.078-1.086-.445-1.223-.77-.004-.012-.012-.023-.012-.027l-.027-.074c-.04-.11-.04-.477-.023-.527.063-.27.195-.52.39-.72.074-.078.148-.148.227-.21a1.86 1.86 0 0 1 .809-.34c.074-.016.148-.027.223-.03.008 0 .016-.008.027-.008.734-.078 1.47.238 1.773.992v.004c-.04.027-.47.113-.47.113-.152-.324-.406-.457-.7-.434a1.04 1.04 0 0 0-.312.07c-.066.027-.13.055-.168.113-.477.398-.06 1.414.602 1.48.113.012.227-.004.328-.047a29.62 29.62 0 0 1 3.258-.723c.215-.03.395-.055.543-.066.203-.312.215-2.332-1.402-2.988-1.277-.52-2.375-.602-3.39-.613zm0 0" fill="rgb(82.745098%,82.352941%,82.352941%)"/><path d="M22.258 33.22l1.133-.223c.11-.027.223.004.305.07-.086-.277-1.414.145-1.437.152" fill="rgb(74.117647%,73.72549%,73.72549%)"/></svg>