<svg xmlns="http://www.w3.org/2000/svg" width="62.667" height="72" viewBox="0 0 47 54" fill="rgb(30.980392%,36.078431%,40.392157%)"><path d="M18.535 6.355l.05.11c.297.62.84 1.22.84 1.22l.008-.004s.078-.055.238-.145l.188-.098a4.76 4.76 0 0 1 .668-.277c.652-.227 1.52-.3 1.52-.3s-.81-1.11-.96-2.71c-.086-.9-.05-1.383-.04-1.4l-.168-.008a2.6 2.6 0 0 0-1.621.566l-.03.027c-.594.48-.937 1.2-.937 1.953a2.34 2.34 0 0 0 .086.637l.16.438m4.53.223c.168.176.332.254.477.254h.04c.148 0 .313-.078.477-.254.45-.47.793-1.027 1.004-1.64.375-1.023.266-1.89-.168-2.3-.215-.195-.473-.32-.77-.36l-.29-.02c.504-.125.875-.566.875-1.102 0-.63-.516-1.14-1.156-1.14a1.15 1.15 0 0 0-1.156 1.145 1.14 1.14 0 0 0 .875 1.102l-.266.02c-.29.043-.555.168-.773.36-.434.414-.543 1.277-.168 2.305.258.707.645 1.293 1.008 1.637m11.04 7.543c.266.4.254.93.254.93s.53.1.797.352l.047-.047c.36-.437 1.02-1.148 1.21-2.184.152-.844.055-2.023-.125-2.398-.008-.012-.012-.035-.02-.047.168-.19.453-.648 1.234-.648.262.004.52.063.754.176.344.164.555.38.555.38l-1.03 1.75c-.258.414-.484.852-.676 1.3-.3.664-.383 1.094-.336 1.57.043.395.258 1.152.352 1.914.176 1.46-.113 2.172-.113 2.172l.016-.012-.004.016s1.754-1.14 2.863-3.69a2.06 2.06 0 0 1-.523-.172c-.148-.07-.28-.164-.414-.266-.98-.738-.762-1.523-.445-1.895l.28-.312.793-.84c.297-.332.48-.738.53-1.176l.03-.375c0-1.074-.53-1.8-1.203-2.168a2.25 2.25 0 0 0-.703-.246c-.754-.13-1.672.148-2.352.605-.258.172-.68.55-.797.844-.148.72.074.906.293 1.652.008.012.016.027.02.04.465 1.664.227 2.47-1.297 2.785m-7.527-1.492a4.14 4.14 0 0 0 .559.816c.02.016.04.03.055.05 0 0 .2-.172.723-.37.43-.164.98-.22.98-.22s-.54-.746-.645-1.812c-.055-.62-.035-.945-.027-.95h-.012v-.004c-.28-.047-.56.008-.82.13a2.35 2.35 0 0 0-.477.328c-.234.203-.395.434-.45.68-.102.27-.125.563-.07.848.047.172.105.344.18.508m2.406-1.102c.234.64.62 1.184.922 1.293.047.02.1.027.133.027.31-.035.72-.648.918-1.402.184-.703.055-1.297-.254-1.543-.145-.11-.316-.187-.496-.227a.19.19 0 0 1-.043-.016.74.74 0 0 0 .414-.715.76.76 0 0 0-.469-.68c-.094-.035-.19-.055-.293-.05-.39.016-.7.37-.68.79.012.316.21.578.48.68-.19.05-.37.145-.52.277-.29.273-.363.87-.11 1.56m2.11 1.32c.6.22 1.21.34 1.844.363.016.004.027.012.043.02a3.55 3.55 0 0 0 .422-.648 3.92 3.92 0 0 0 .18-.508 1.65 1.65 0 0 0-.07-.855 1.4 1.4 0 0 0-.449-.68 2.48 2.48 0 0 0-.477-.324 1.44 1.44 0 0 0-.832-.137c.004.008.027.332-.027.95-.102 1.074-.645 1.813-.645 1.813l.012.004v.004M25.082 6.86c.496.152 1.008.254 1.523.3.23.078.453.172.672.277l.188.098.238.145a5.21 5.21 0 0 0 .848-1.211l.05-.11.156-.437a2.28 2.28 0 0 0 .086-.637c0-.754-.344-1.473-.934-1.953l-.035-.027a2.59 2.59 0 0 0-1.621-.566l-.168.008c.012.027.043.504-.04 1.4-.152 1.598-.965 2.71-.965 2.71m.57 2.457l.164.723c.004 0 .063.004.063.008.387-.152 1.145-.375 1.145-.625v-.8c0-.145-.148-.28-.406-.398-.53-.25-1.54-.414-2.672-.437h-.66c-1.176.012-2.227.188-2.777.44-.266.117-.414.254-.414.398v.8c0 .246.766.47 1.152.625 0-.004.063-.004.063-.004l.168-.727s-.082-.03-.098-.066c-.047-.098.04-.156.184-.234a1.39 1.39 0 0 1 .574-.133c.12.44.14 1.125.113 1.715-.055 1.184-.28 2.664-.992 3.676.324.313.617.656.875 1.023.738-1.39.852-2.914.914-4.484v-2.05c.066 0 .297-.027.523-.027s.453.027.52.027v2.05c.063 1.598.18 3.148.953 4.56.277-.402.55-.727.81-.984l.06-.074c-.734-1.008-.965-2.52-1.016-3.715-.027-.6-.008-1.273.11-1.715.195.012.434.06.578.133.14.082.223.137.18.234-.012.035-.098.066-.098.066m9.93 11.152c-.023-.012-.035-.012-.043-.012h-.02l-.12.012a2.83 2.83 0 0 1-1.172-.133c-.187-.07-.36-.164-.52-.28l-.543-.477c-.305-.285-.895-.703-1.504-.766-.684-.066-1.117.18-1.613.37-.043.02-.082.06-.082.11s.027.11.082.13c.02.008.04.016.06.016a6.7 6.7 0 0 1 1.387.242c.32.078.625.203.902.375.336.234.63.535.82.656.254.16.477.31.762.363.3.05.617.027.9-.047l.043-.008.227-.078a2.02 2.02 0 0 0 .293-.141l.012-.008.18-.102c.043-.03.063-.074.063-.12-.008-.06-.055-.102-.113-.11m-1.883-4.445c.027.094.133.19.25.262.363.21.496.516-.05.582-.398.047-.812-.215-2.29.184-.867.234-1.883 1.094-2.238 1.488a3.69 3.69 0 0 0-.324.414c-.344.484-.336 1.14.027 1.605a2.77 2.77 0 0 0 .535.504c1.297.863 2.512.148 2.64.02.105-.105.113-.148.094-.176-.016-.012-.422.207-.996.207a2.25 2.25 0 0 1-.934-.18c-.203-.1-.672-.336-.953-.77a.76.76 0 0 1 .078-.902 4.38 4.38 0 0 1 .727-.68c.56-.402 1.19-.645 1.93-.656h.055c.363 0 .723.06 1.063.172.168.055.332.12.492.2.473.238.883.582 1.2 1.004.176-.285.3-.602.383-.926l.055-.234c.168-.715.12-2.367-1.48-2.367-.027 0-.055.012-.1.02-.168.043-.21.137-.18.23m-26.31-3.863l.793.844.28.31c.32.37.54 1.16-.44 1.898a2.55 2.55 0 0 1-.414.262 1.88 1.88 0 0 1-.52.168C8.203 18.2 9.957 19.34 9.957 19.34l-.008-.016c.008.004.012.008.02.012 0 0-.293-.72-.113-2.172.094-.762.31-1.516.352-1.9.055-.47-.027-.9-.336-1.57-.19-.453-.418-.887-.68-1.305l-1.027-1.75s.21-.215.555-.38c.234-.11.488-.172.75-.176.785 0 1.063.457 1.238.652-.008.012-.012.03-.02.047-.184.375-.28 1.555-.125 2.395.188 1.035.848 1.75 1.21 2.184l.047.047c.262-.258.793-.348.797-.352s-.016-.516.25-.93c-1.52-.316-1.762-1.117-1.297-2.78.008-.02.016-.027.02-.043.223-.742.44-.93.293-1.652-.117-.29-.54-.672-.797-.844-.672-.453-1.594-.73-2.348-.605a2.24 2.24 0 0 0-.707.246c-.672.367-1.203 1.098-1.203 2.168 0 .133.02.254.035.375.05.438.234.848.527 1.176m10.7.75c.316.113.648.188.98.223.523.2.72.37.72.37l.06-.055a3.87 3.87 0 0 0 .563-.812 3.94 3.94 0 0 0 .184-.508c.05-.285.027-.578-.074-.848a1.35 1.35 0 0 0-.445-.68c-.137-.12-.297-.23-.477-.332a1.44 1.44 0 0 0-.824-.129h-.012c.008.004.035.324-.027.945-.098 1.078-.64 1.816-.64 1.816m-1.14-.04c.043 0 .086-.008.133-.027.297-.11.688-.652.922-1.293.254-.69.176-1.285-.113-1.56-.145-.13-.316-.227-.516-.277.27-.102.47-.363.48-.68.02-.418-.29-.773-.684-.79a.67.67 0 0 0-.289.055c-.262.102-.457.363-.47.676s.156.594.414.715l-.043.016a1.25 1.25 0 0 0-.266.09c-.086.035-.164.082-.234.137-.313.246-.438.836-.25 1.543.195.75.61 1.367.918 1.402m-3.375-.29a3.58 3.58 0 0 0 .422.652l.043-.023c.922-.355 1.848-.355 1.848-.355v-.008l.012-.004s-.543-.742-.64-1.812c-.06-.617-.035-.94-.03-.945-.28-.043-.566.004-.82.13-.195.105-.352.21-.488.332-.234.203-.39.434-.445.68a1.6 1.6 0 0 0-.074.852 3.28 3.28 0 0 0 .184.508m3.28 6.867c.02 0 .04-.008.055-.016.05-.02.082-.07.082-.125s-.04-.098-.082-.11c-.488-.195-.93-.44-1.613-.37-.605.055-1.19.48-1.504.766l-.543.473c-.156.12-.332.215-.516.28-.336.133-.75.168-1.172.14l-.137-.016c-.012 0-.023.004-.035.004-.066.012-.113.06-.125.113-.004.047.02.094.05.117.063.043.13.074.188.11l.008.004a1.7 1.7 0 0 0 .297.137l.227.078.04.012c.297.074.613.098.914.047.29-.055.508-.21.762-.363.195-.12.484-.418.82-.656.25-.18.578-.28.902-.38a6.7 6.7 0 0 1 1.387-.242m-5.355-1.305l.055.234a3.82 3.82 0 0 0 .371.93c.324-.422.734-.77 1.21-1.008.156-.078.324-.145.492-.2a3.29 3.29 0 0 1 1.063-.172h.055c.742.012 1.375.254 1.93.656a4.35 4.35 0 0 1 .727.676c.223.254.254.617.078.906a2.3 2.3 0 0 1-.945.77 2.4 2.4 0 0 1-.937.18c-.57 0-.977-.223-.984-.215-.027.03-.023.074.082.18.133.13 1.348.844 2.64-.02a2.54 2.54 0 0 0 .539-.504 1.33 1.33 0 0 0 .027-1.605l-.328-.414c-.355-.398-1.37-1.258-2.238-1.488-1.473-.398-1.89-.137-2.29-.184-.547-.066-.418-.37-.05-.582.12-.062.22-.164.254-.262s-.008-.187-.18-.23c-.027-.012-.055-.02-.1-.02-1.602 0-1.648 1.656-1.48 2.367m19.477 24.328v.016h.012m-6.605-16.094c.06.105.266.27.31.6.008.04.813-.84.813-.84v-.836l-.855.36-.262.73m-5.23 22.004l1.117-.36.56-.246a4.14 4.14 0 0 0 .555-.328 2.28 2.28 0 0 0 .48-.449c.07-.086.133-.18.18-.28l.066-.156.035-.145c.027-.098-.035-.203-.14-.227-.04-.008-.078-.004-.11.008a.2.2 0 0 0-.09.059c-.105.125-.23.227-.375.305-.137.066-.28.117-.434.164a6.72 6.72 0 0 1-1.008.18l-1.07.117-1.055.063-1.105.035a7.04 7.04 0 0 0-1.246.141c-.172.043-.363.094-.56.184-.07.03-.133.063-.195.102a1.61 1.61 0 0 0-.629.699 1.36 1.36 0 0 0-.094.824c.047.242.164.465.336.645.07.074.18.1.27.055.027-.012.113-.082.113-.082.32-.508 1-.777 1.137-.81.55-.13 1.34-.168 2.098-.27.387-.055.773-.13 1.164-.23m-3.47-2.094c-.008.102.07.188.172.19.043.004.086-.008.113-.027h.004l.066-.043a1.58 1.58 0 0 1 .266-.145c.27-.12.547-.168.82-.176a5.76 5.76 0 0 1 1.184.113 6.33 6.33 0 0 0 1.512.078c.262-.02.523-.07.793-.137l.406-.16c.137-.078.32-.172.402-.363.035-.074 0-.168-.074-.195-.012-.004-.023-.012-.035-.012l-.734-.156-.664-.164-1.37-.285c-.516-.1-1.13-.086-1.707.137-.07.027-.14.06-.21.098-.488.246-.906.688-.945 1.254m.754-1.816l.477-.16c.004-.004-1.797-.645-.773-1.785l.004-.043c-.176-.027-.352-.012-.512.05s-.31.172-.418.31c-.488.594.18 1.238.195 1.254l-.44-.055c-.434-.29-1.152-1.008-.117-2.535-.03 0-.06-.004-.082-.004-.148-.008-.297.02-.434.082a2.37 2.37 0 0 0-.23.094c-.508.25-.855.72-.855 1.27 0 .215.06.43.164.62.078.137.176.262.293.37l-.484-.05c-.477-.535-.996-1.54.012-2.71l-.078-.008a.98.98 0 0 0-.434.086 1.37 1.37 0 0 0-.254.117 1.66 1.66 0 0 0-.832 1.41 2.59 2.59 0 0 0 .168.789c.664 1.598 3.793 1.113 4.64.902m15.902 3.066a1.91 1.91 0 0 0-.199-.102 2.98 2.98 0 0 0-.555-.184 7.04 7.04 0 0 0-1.246-.141l-1.105-.035-1.06-.062-1.07-.117-1.004-.18a2.85 2.85 0 0 1-.434-.164 1.34 1.34 0 0 1-.375-.305.19.19 0 0 0-.086-.055c-.035-.012-.074-.016-.113-.008-.098.027-.16.125-.137.227v.004l.035.137c.016.05.043.105.066.16a1.43 1.43 0 0 0 .18.281 2.28 2.28 0 0 0 .48.449 4.33 4.33 0 0 0 .551.324l.56.25 1.12.36a11.32 11.32 0 0 0 1.164.227l2.098.27c.457.145.855.43 1.137.813 0 0 .078.066.11.082.1.04.2.02.273-.055a1.34 1.34 0 0 0 .34-.645c.055-.28.023-.57-.094-.828-.125-.293-.375-.543-.63-.695"/><path d="M26.086 45.984c.148.074.29.12.418.168a4.16 4.16 0 0 0 .793.137c.504.035 1.012.008 1.512-.082.39-.074.785-.113 1.184-.11.273.008.547.05.82.176a1.58 1.58 0 0 1 .266.145l.055.04.012.004a.16.16 0 0 0 .117.027c.102-.004.18-.094.168-.19-.04-.566-.457-1.012-.945-1.258l-.21-.094c-.574-.223-1.187-.223-1.707-.14l-1.37.29-.664.164c-.21.063-.73.156-.73.156l-.035.012c-.074.035-.113.12-.074.19.1.195.266.285.39.36m8.574-4.582l-.25-.117c-.137-.06-.285-.1-.434-.082l-.078.004c1.004 1.176.484 2.176.012 2.71-.078.023-.406.043-.484.05a1.43 1.43 0 0 0 .293-.371 1.32 1.32 0 0 0 .168-.621c0-.55-.348-1.02-.855-1.266-.074-.04-.152-.07-.234-.094a.97.97 0 0 0-.434-.086l-.078.008c1.035 1.523.313 2.246-.12 2.535l-.437.055c.02-.012.688-.664.195-1.258-.11-.137-.254-.242-.418-.31a.93.93 0 0 0-.504-.055l-.004.05c1.02 1.14-.777 1.777-.773 1.777h-.004l.477.16c.844.21 3.973.695 4.633-.902a2.5 2.5 0 0 0 .168-.789 1.66 1.66 0 0 0-.828-1.41m-8.184-4.672c-.016-.023-.07-.035-.07-.035-.027-.004-.055 0-.074.012-.156.094-.25.195-.336.29a1.12 1.12 0 0 0-.18.309c-.04.105-.074.215-.047.328.035.14.12.27.242.355a.37.37 0 0 0 .27.051c.195-.062.293-.148.363-.25.063-.094.074-.203.078-.316 0-.12-.016-.238-.047-.355-.043-.14-.11-.273-.2-.39m1.578-5.234a1.15 1.15 0 0 1 .184.203l.055.086.066.13a3.28 3.28 0 0 1 .258.805.48.48 0 0 0-.164-.027c-.305-.027-.61.063-.844.258s-.383.47-.4.77c0 0 .234-.172.43-.22.172-.043.418-.012.418-.012l-.87.957c-.06-.137-.145-.234-.258-.258s-.242.043-.363.168l-.46-1.11s.21-.02.387.063c.152.086.285.2.39.336a1.67 1.67 0 0 0-.059-.637c-.11-.348-.375-.566-.8-.617-.082-.012-.168-.008-.25.004.328-.496.7-.867 1.082-1.047-.105.79.988.95 1.21.148zm.492 4.008a5.87 5.87 0 0 1-.199.813 7.18 7.18 0 0 1-.285.727c-.184-.238-.53-.81-.89-1.46l.043-.172a2.45 2.45 0 0 0 .043-.34c.37-.36.727-.78 1.094-1.19 0 0 .176.164.113.457-.055.277-.312.45-.312.45.238.004.336.016.555-.074l-.152.8zm-2.6 3.402c-.37-.047-.578-.262-.7-.402-.34-.39-.38-.766-.38-.77l1.324-1.6a.43.43 0 0 0 .25.277c.133.023.262-.047.38-.18l.828 1.504c-.473.77-1.21 1.227-1.703 1.156zm-1.066-4.234l.11-.535c.008.004.074.172.242.28.195.133.32.14.418.152 0 0-.137-.2-.18-.46-.043-.328.113-.6.113-.6.086.133.484 1.094.645 1.414l-.074.27-.02.152-.016.082c-.027.023-1.12 1.336-1.387 1.598-.148-.89.03-1.707.148-2.367zm1.852-4.223l-.008-.008-.05.03c-.238.105-.457.246-.656.414-.867.727-1.62 2.082-1.95 3.71-.312 1.56-.168 3.004.31 3.97.316.64.78 1.07 1.36 1.164.566.094 1.156-.145 1.7-.625.832-.742 1.547-2.06 1.863-3.63.324-1.61.156-3.105-.36-4.062-.316-.586-.766-.977-1.316-1.07a1.71 1.71 0 0 0-.895.113"/><path d="M22.805 32.96l-2.05.78 1.352-2.31c.004.012.066.324.617.55-.016.082.082.977.082.977zm.734 10.18h-.027c-2.406-.016-4.53-1.605-5.82-4.023l1.84-3.168.805 3.387s-.87.375-.43.637 1.38.066 1.38.066a4.85 4.85 0 0 0 .496.391c.305.227.652.395 1.023.492l.238.086s-.086.4.043.617c.055.086.102.156.27.156.047 0 .098-.012.145-.027a1.06 1.06 0 0 0 .363-.25c.203-.203.273-.348.426-.55-.004-.008.004-.02.016-.035.355-.098.734-.223 1.1-.664-.875-.336-1.613-1.12-1.898-2.418-.102-.473-.16-.992-.168-1.535a9.41 9.41 0 0 1 .156-1.781l.016-.062c.4-2.125 1.75-3.746 2.14-3.883-.12-.277-.07-.965-1.008-1.352-.203-.082-.832-.117-.89-.402.297-.2.523-.57.578-1.02.074-.602-.184-1.14-.594-1.336.098-.22.336-.523.336-.523l-.47-.496-.61.32s.156.434.156.668c-.406.133-.707.445-.773 1.004-.035.277.117.7.434 1.008.168.168.203.31.098.414-.23.23-.71.172-.957.523-.152.223-.34.734-.34.734l-1.133 2.406-.418.672s-.148.098-.312.23c-.137.11-.28.234-.37.348-.258.324-.152.906.004 1.148l-1.98 3.566-.113-.254c-.56-1.34-.87-2.87-.87-4.504 0-4.996 2.97-9.1 6.703-9.383h.867a5.51 5.51 0 0 1 1.203.234 7.01 7.01 0 0 1 .602.227c2.836 1.242 4.89 4.773 4.89 8.926 0 5.188-3.203 9.402-7.137 9.402zM47.035 26.9c-.043-.14-.14-.254-.27-.32-.12-.066-.27-.082-.414-.043l-.023.008c-.62.18-1.27.375-1.906.516l-.953.223c-.316.066-.63.117-.973.164a45.05 45.05 0 0 1-2.008.223c-.434.035-.867.063-1.3.082l.188-.05c.188-.05.37-.102.55-.16.36-.11.72-.23 1.07-.36.695-.25 1.387-.527 2.066-.824.68-.285 1.39-.61 2.023-1.012.637-.414 1.23-.844 1.79-1.38.168-.164.22-.43.1-.645-.055-.094-.137-.164-.234-.215-.156-.078-.348-.078-.508.016l-.023.012a26.46 26.46 0 0 1-1.832.973c-.63.305-1.227.594-1.895.82s-1.34.438-2.02.63a22.48 22.48 0 0 1-1.012.25l-.223.047c.168-.07.332-.145.496-.223.36-.172.715-.36 1.063-.555.688-.387 1.344-.81 1.988-1.242a13.58 13.58 0 0 0 1.883-1.453 11.69 11.69 0 0 0 1.559-1.789c.137-.2.125-.47-.047-.656-.05-.05-.11-.094-.176-.125a.55.55 0 0 0-.594.082l-.02.02a23.71 23.71 0 0 1-1.672 1.391c-.566.45-1.16.86-1.78 1.227-.12.07-.242.133-.36.2-.53.293-1.062.578-1.602.836l-.312.14c-.195.1-.39.176-.586.25l.105-.074c.23-.156.45-.328.66-.496l.348-.277c.633-.53 1.22-1.086 1.785-1.656l.02-.02c.602-.598 1.156-1.215 1.633-1.898.47-.687.887-1.383 1.215-2.168a.54.54 0 0 0-.187-.637c-.254-.176-.6-.113-.762.12l-.016.023c-.434.605-.906 1.227-1.4 1.797l-.445.512a12.06 12.06 0 0 1-1.109 1.125l-.61.512c-.355.3-.723.6-1.098.867l.168-.22c.3-.414.6-.836.863-1.27l.55-.898c.313-.516.602-1.047.852-1.598.11-.246.22-.496.31-.742.297-.816.535-1.633.664-2.52a.53.53 0 0 0-.352-.57c-.293-.105-.602.04-.7.316l-.008.027c-.234.645-.496 1.277-.793 1.898l-.14.3a18.89 18.89 0 0 1-1.09 1.965l-.07.11c-.305.438-.62.867-.953 1.29-1.004 1.102-2.695 2.203-3.61 2.645-.445.21-.898.504-1.355.723-.008.004-.012.012-.023.012a1.61 1.61 0 0 0-.727.68c-.04.078-.07.16-.098.242a1.43 1.43 0 0 0-.078.461c-.008.566.297 1.094.797 1.375.164.086.344.137.527.14.027 0 .055-.004.082-.004.168-.016.254-.082.254-.082s-.13-.34.066-.492c.035-.023.066-.04.102-.055a.71.71 0 0 1 .297-.062c.395.008.71.32.715.707 0 .36-.273.656-.625.703-.16.06-.47.07-.664.07-.398 0-.797-.04-1.187-.11-.52-.098-1.023-.254-1.504-.473-.57-.262-1.625-1.02-1.605-1.062-1.082-.992-1.762-2.34-1.824-3.848-.004-.07-.012-.137-.012-.207a5.3 5.3 0 0 1 .043-.66 5.15 5.15 0 0 1 .246-1.086 5.54 5.54 0 0 1 .938-1.727c.148-.164.305-.328.465-.48l.05-.05a6.24 6.24 0 0 1 .855-.715c-.023-.023-.05-.047-.074-.07-.03-.027-.062-.06-.1-.1-.496-.047-.672-.28-.754-.48-.004-.004-.008-.012-.012-.02l-.02-.047a.87.87 0 0 1-.012-.328.93.93 0 0 1 .238-.449.9.9 0 0 1 .141-.133 1.25 1.25 0 0 1 .504-.211c.047-.008.1-.02.14-.023.477-.047.934.148 1.12.613v.004c-.027.02-.293.066-.293.066-.094-.2-.25-.285-.437-.27-.06 0-.125.02-.195.047-.043.016-.082.035-.11.063-.297.246-.04.875.37.922.066.004.133 0 .203-.027.672-.187 1.344-.34 2.023-.453.113-.016.223-.03.34-.04.125-.2.133-1.453-.87-1.86-.79-.324-1.48-.375-2.102-.375a7.4 7.4 0 0 0-1.602.168c-2.043.44-3.285 1.61-4.422 4.125-.77 1.488-1.047 2.922-1.16 3.31h-.11c-.113-.422-.39-1.84-1.148-3.31-1.137-2.516-2.387-3.684-4.426-4.125-.527-.113-1.066-.172-1.61-.168a5.3 5.3 0 0 0-2.102.375c-1 .406-1 1.656-.875 1.848.12.016.234.027.344.047.69.11 1.836.38 2.016.45a.47.47 0 0 0 .211.031c.453-.05.727-.81.266-.988a.84.84 0 0 0-.195-.047c-.187-.012-.344.07-.437.27 0 0-.28-.055-.293-.066v-.004c.184-.47.645-.66 1.105-.613.063.008.105.016.152.023a1.1 1.1 0 0 1 .645.344.93.93 0 0 1 .238.449 1.03 1.03 0 0 1-.016.328c-.008.016-.012.03-.02.047-.004.004-.004.012-.008.02-.086.2-.262.43-.754.477-.03.03-.06.063-.1.1l-.078.066c.29.188.633.496.906.766.238.234.426.438.465.484.4.504.727 1.094.94 1.727.117.352.2.715.246 1.086a6.25 6.25 0 0 1 .043.664c0 .066-.012.14-.012.21l-.027.37c-.18.883-.5 1.734-.953 2.516-.027.04-.055.082-.082.117h.008c-.195.31-.434.6-.707.832.016.043-1.035.797-1.61 1.06-.477.22-.98.38-1.5.477-.39.07-.79.11-1.187.11-.195 0-.504-.012-.664-.07-.352-.047-.625-.344-.625-.703a.72.72 0 0 1 .715-.707c.105 0 .207.027.297.063.035.016.066.03.102.055.195.152.066.488.066.488s.094.074.254.086c.027 0 .05.008.082.004.184-.004.363-.055.527-.14a1.56 1.56 0 0 0 .797-1.379c0-.156-.027-.312-.078-.457-.027-.086-.055-.168-.098-.242a1.61 1.61 0 0 0-.727-.68c-.012-.004-.016-.008-.023-.012-.457-.22-.914-.512-1.355-.723-1.344-.684-2.562-1.574-3.613-2.645-.328-.418-.645-.848-.95-1.285-.027-.04-.047-.074-.07-.11-.406-.625-.754-1.29-1.1-1.965-.047-.098-.1-.203-.14-.305a20.7 20.7 0 0 1-.793-1.898l-.008-.027a.54.54 0 0 0-.687-.32c-.254.086-.398.336-.363.578a12.54 12.54 0 0 0 .664 2.52c.098.254.2.5.313.746.25.543.53 1.078.852 1.598l.55.895a20.11 20.11 0 0 0 .867 1.266l.168.223a26.2 26.2 0 0 1-1.102-.867l-.598-.504a12.56 12.56 0 0 1-1.109-1.125l-.45-.512a22.94 22.94 0 0 1-1.406-1.797l-.016-.023c-.082-.113-.207-.195-.348-.22s-.285.012-.402.094c-.215.148-.29.418-.195.637.324.79.746 1.484 1.21 2.172.477.68 1.035 1.297 1.633 1.895.004.008.012.016.023.023.566.578 1.16 1.13 1.78 1.652l.348.28c.215.164.43.336.66.496l.11.07c-.2-.074-.395-.164-.6-.246l-.312-.145c-.543-.258-1.078-.54-1.602-.836l-.355-.195c-.637-.36-1.203-.79-1.785-1.227s-1.133-.902-1.672-1.39l-.02-.02c-.16-.145-.395-.18-.594-.082-.066.027-.13.07-.18.125a.53.53 0 0 0-.047.652c.457.648.98 1.246 1.56 1.793.57.543 1.23 1.02 1.887 1.453.645.44 1.31.852 1.984 1.238a17.25 17.25 0 0 0 1.066.559c.16.078.328.152.496.22l-.223-.047c-.336-.074-.672-.164-1.016-.254-.68-.187-1.352-.395-2.02-.625s-1.266-.516-1.89-.82-1.234-.625-1.836-.973l-.012-.004c-.156-.1-.348-.098-.508-.016a.55.55 0 0 0-.238.215c-.125.215-.082.48.1.645a11.85 11.85 0 0 0 1.793 1.383c.63.402 1.34.727 2.023 1.012.68.297 1.367.57 2.066.828.348.125.703.246 1.066.355l.55.16.188.05a36.1 36.1 0 0 1-1.297-.082 34.66 34.66 0 0 1-2.008-.223c-.328-.04-.652-.094-.973-.164s-.637-.145-.953-.22c-.637-.148-1.285-.336-1.906-.52L.71 26.55a.54.54 0 0 0-.414.043.55.55 0 0 0-.27.32c-.07.234.027.48.234.605a11.47 11.47 0 0 0 1.941.922c.664.246 1.398.414 2.078.55a60.25 60.25 0 0 0 2.066.395 33.89 33.89 0 0 0 1.879.254l-1.19.133-1.922.152c-.16.012-.316.016-.48.023l-.457.008-.93-.016c-.625-.008-1.266-.05-1.883-.086h-.02c-.113-.004-.22.023-.31.074-.152.1-.262.25-.27.434-.016.242.137.457.363.53.656.223 1.305.36 1.98.465a11.02 11.02 0 0 0 1.016.094c.176.008.348.012.52.012l.496.008a55.79 55.79 0 0 0 1.98.012l1.016-.023.06.19-2.04.582c-.594.164-1.156.277-1.742.39-.578.13-1.18.23-1.762.352h-.016c-.04.008-.078.02-.113.035-.23.098-.37.344-.32.594a.54.54 0 0 0 .484.422c.637.05 1.277.05 1.914 0 .637-.04 1.28-.184 1.89-.293.617-.11 1.512-.324 2.12-.445l.047.148c-.25.14-.797.43-1.05.566a27.4 27.4 0 0 1-.754.387l-.758.355-1.547.785c-.262.137-.363.46-.22.72a.55.55 0 0 0 .578.273c.586-.12 1.168-.273 1.734-.46s1.117-.45 1.66-.68l.852-.367.098.44-.406.28-.62.53c-.414.36-.797.758-1.16 1.18-.195.223-.168.563.055.754.176.145.414.164.605.066.504-.258.98-.543 1.437-.863l.473-.277.332 2.188c.21 1.984.148 4.27.367 4.535.184.223.543.172.867.184-.02-.074-.03-.145-.05-.223-.23-1.082.1-1.867.29-2.187.004-.008.004-.012.008-.02s.02-.07.02-.082c-.07-1.262-.242-3.3-.53-4.88l-1.453-7.7c-.012-.062.008-.13.055-.172a.2.2 0 0 1 .188-.047c.785.19 2.078.31 2.9.363.62.04 2.105.035 3.637-.43-.68 1.605-1.027 3.332-1.02 5.07 0 3.602 1.418 6.785 3.582 8.695a5.29 5.29 0 0 0-.496.094c-.562.19-.996.47-1.242.605-.004.004-.012.008-.016.016-.016.008-.035.012-.047.02-.086.047-.1.14-.07.234.066.277.184.543.348.777.027.043.063.082.117.082 2.023.102 3.508.25 4.7.992.05.03.078.06.113.078.56.44.79 1.34.328 1.984a10.85 10.85 0 0 1-.484.461c-.55.47-1.152.87-1.79 1.172s-1.293.496-1.957.586c-.672.12-1.344.21-2.227.414h-.004c-.027.008-.055.02-.078.035-.074.047-.113.133-.094.223a.22.22 0 0 0 .051.094c.645.688 1.594.953 2.52.906a5.63 5.63 0 0 0 1.984-.539c.207-.098.406-.203.598-.32.77-.47 1.43-1.074 1.922-1.79l.03-.043-.008.02c-.113.387-.488 1.406-.78 1.742-.305.344-.582.672-.902.93a4.29 4.29 0 0 1-.77.492c-.094.047-.187.086-.285.125-.402.168-.867.277-1.414.387h-.004c-.027.008-.055.016-.074.035-.074.04-.113.125-.094.207.012.047.04.1.078.117.484.34 1.098.496 1.73.46a3.12 3.12 0 0 0 .941-.219 3.21 3.21 0 0 0 .828-.488c.082-.066.148-.137.223-.22.14.273.29.55.39.82.14.328.254.652.438.977.043.074.133.11.168.102a.31.31 0 0 0 .184-.102c.18-.324.305-.652.445-.977.113-.277.254-.547.395-.82.074.074.137.148.223.22a3.21 3.21 0 0 0 .828.488 3.12 3.12 0 0 0 .941.219c.637.035 1.246-.12 1.73-.46.04-.027.066-.07.078-.117.016-.086-.023-.168-.094-.207-.023-.02-.047-.027-.074-.035h-.008c-.543-.113-1.004-.22-1.4-.387a2.63 2.63 0 0 1-.285-.125c-.277-.137-.535-.3-.77-.496-.32-.258-.598-.586-.902-.93-.297-.336-.672-1.355-.78-1.738v-.023c.008.012.02.027.027.043.496.72 1.156 1.324 1.922 1.793a8.73 8.73 0 0 0 .598.316c.625.3 1.297.484 1.988.543.922.047 1.87-.223 2.516-.9a.17.17 0 0 0 .051-.094c.023-.1-.02-.172-.094-.22-.02-.02-.047-.03-.078-.04h-.004c-.88-.203-1.55-.29-2.223-.4a6.58 6.58 0 0 1-1.961-.59c-.633-.3-1.23-.7-1.785-1.168a18.01 18.01 0 0 1-.484-.465c-.457-.64-.23-1.543.332-1.984.027-.02.063-.047.094-.066.008 0 .012-.004.02-.008 1.19-.746 2.676-.898 4.7-.992.055-.004.082-.047.117-.086.16-.234.277-.496.348-.773.02-.094.012-.187-.07-.234-.016-.008-.035-.016-.05-.023-.008-.004-.012-.012-.016-.016-.246-.137-.687-.4-1.242-.605-.156-.04-.316-.07-.477-.086 2.164-1.9 3.6-5.098 3.6-8.703a12.85 12.85 0 0 0-1.023-5.066c1.523.457 3 .46 3.617.422.836-.055 2.13-.164 2.9-.363.074-.02.14.004.188.047s.066.105.055.176l-1.453 7.7a43.45 43.45 0 0 0-.531 4.875c0 .016.016.078.023.082.37.684.473 1.457.293 2.188-.004.012.004.02 0 .023-.016.074-.027.145-.05.22.324-.008.684.043.867-.18.22-.266.156-2.55.37-4.54.066-.633.324-2.176.328-2.184l.477.277c.453.316.926.605 1.422.86a.55.55 0 0 0 .613-.062c.23-.19.254-.527.06-.754-.363-.418-.75-.81-1.16-1.176l-.625-.53c0-.004-.316-.223-.406-.28l.102-.44.852.363c.54.234 1.1.496 1.66.68s1.133.348 1.734.46a.55.55 0 0 0 .574-.27.53.53 0 0 0-.219-.723l-.008-.004c-.504-.273-1.027-.516-1.53-.773l-.012-.004-.754-.36a13.93 13.93 0 0 1-.762-.387l-1.05-.566.047-.148 2.12.445c.61.11 1.254.254 1.89.297.645.04 1.27.055 1.918 0 .23-.023.43-.187.48-.422.055-.25-.082-.496-.32-.598-.035-.012-.07-.027-.11-.035h-.016l-1.766-.348c-.586-.12-1.145-.23-1.738-.395a52.69 52.69 0 0 1-2.035-.594l.063-.19 1.016.02 1.98-.008.496-.008c.172 0 .344-.004.516-.012a11.02 11.02 0 0 0 1.016-.094c.672-.113 1.324-.242 1.98-.465.227-.074.38-.29.363-.53a.53.53 0 0 0-.27-.434c-.094-.055-.2-.082-.31-.074h-.023c-.613.035-1.258.078-1.883.082l-.93.02-.46-.012-.48-.02c-.64-.043-1.28-.094-1.922-.156l-1.19-.13a30.71 30.71 0 0 0 1.879-.254 52.09 52.09 0 0 0 2.066-.395 14.53 14.53 0 0 0 2.078-.551 11.47 11.47 0 0 0 1.941-.922c.203-.125.31-.367.234-.605m-34.902 7.96h-.46v-.363h.902v1.758h-.44v-1.39m1.063 1.855l.965-1.836h-1.06v-.387h1.5v.305l-1.023 2.047-.383-.13m19.227-.78c.223-.172.902-.57.902-.81 0-.195-.133-.25-.328-.25-.168 0-.336.055-.422.094l-.105-.3a1.2 1.2 0 0 1 .547-.133c.578 0 .723.29.723.57 0 .38-.516.684-.785.828h.867v.336h-1.398v-.34m2.566.008v-.918l-.523.918zm0 .336h-.96v-.336l.773-1.352h.61v1.352h.328v.336h-.328v.594h-.422v-.594"/></svg>