<?xml version="1.0" encoding="UTF-8" standalone="no"?>
<svg
   xmlns:dc="http://purl.org/dc/elements/1.1/"
   xmlns:cc="http://creativecommons.org/ns#"
   xmlns:rdf="http://www.w3.org/1999/02/22-rdf-syntax-ns#"
   xmlns:svg="http://www.w3.org/2000/svg"
   xmlns="http://www.w3.org/2000/svg"
   xmlns:sodipodi="http://sodipodi.sourceforge.net/DTD/sodipodi-0.dtd"
   xmlns:inkscape="http://www.inkscape.org/namespaces/inkscape"
   viewBox="0 0 69.087106 97.1644"
   height="97.164398"
   width="69.087105"
   xml:space="preserve"
   id="svg2"
   version="1.1"
   sodipodi:docname="лого-соет-обучающихся-02.svg"
   inkscape:version="0.92.4 (5da689c313, 2019-01-14)"><sodipodi:namedview
     pagecolor="#ffffff"
     bordercolor="#666666"
     borderopacity="1"
     objecttolerance="10"
     gridtolerance="10"
     guidetolerance="10"
     inkscape:pageopacity="0"
     inkscape:pageshadow="2"
     inkscape:window-width="1920"
     inkscape:window-height="1001"
     id="namedview3831"
     showgrid="false"
     inkscape:zoom="1.4142136"
     inkscape:cx="-94.401362"
     inkscape:cy="79.674078"
     inkscape:window-x="-9"
     inkscape:window-y="-9"
     inkscape:window-maximized="1"
     inkscape:current-layer="g12" /><metadata
     id="metadata8"><rdf:RDF><cc:Work
         rdf:about=""><dc:format>image/svg+xml</dc:format><dc:type
           rdf:resource="http://purl.org/dc/dcmitype/StillImage" /></cc:Work></rdf:RDF></metadata><defs
     id="defs6"><clipPath
       id="clipPath64"
       clipPathUnits="userSpaceOnUse"><path
         id="path62"
         d="m 280.164,946.27 -4.359,-412.454 c 35.761,-13.699 173.027,-69.5 238.015,-68.211 13.243,0.266 26.09,1.516 38.266,4.036 l 0.031,0.007 c 5.16,0.793 9.988,1.684 14.11,2.688 1.429,0.352 2.793,-0.07 3.757,-0.891 0.868,-0.851 1.356,-2.047 1.094,-3.382 -4.398,-22.379 -19.906,-101.446 -29.144,-150.817 -5.649,-30.187 -10.125,-80.492 -11.598,-105.324 v 0 l 4.387,-3.223 168.398,123.746 c 56.652,41.629 90.676,111.688 90.676,186.703 l 4.519,427.122 z"
         inkscape:connector-curvature="0" /></clipPath><linearGradient
       id="linearGradient74"
       spreadMethod="pad"
       gradientTransform="matrix(501.165,501.165,501.165,-501.165,298.11,444.147)"
       gradientUnits="userSpaceOnUse"
       y2="0"
       x2="1"
       y1="0"
       x1="0"><stop
         id="stop66"
         offset="0"
         style="stop-opacity:1;stop-color:#661822" /><stop
         id="stop68"
         offset="0.458128"
         style="stop-opacity:1;stop-color:#661822" /><stop
         id="stop70"
         offset="0.625616"
         style="stop-opacity:1;stop-color:#8f252d" /><stop
         id="stop72"
         offset="1"
         style="stop-opacity:1;stop-color:#8f252d" /></linearGradient><clipPath
       id="clipPath104"
       clipPathUnits="userSpaceOnUse"><path
         id="path102"
         d="m 492.289,240.266 c -0.582,47.652 28.574,144.73 38.336,178.578 0.715,2.476 -6.246,4.91 -8.812,5.144 -145.918,13.336 -241.762,70.223 -242.829,70.871 l -1.043,17.137 c 1.075,-0.648 73.852,-49.211 233.211,-73.594 9.313,-1.425 28.047,-0.113 28.047,-0.113 4.828,0.512 11.09,-0.574 7.91,-8.141 0,0 -3.171,-11.234 -6.535,-19.414 -5.394,-13.129 -36.972,-124.433 -36.301,-179.39 z"
         inkscape:connector-curvature="0" /></clipPath><linearGradient
       id="linearGradient116"
       spreadMethod="pad"
       gradientTransform="matrix(0,280.652,280.652,0,412.958,231.345)"
       gradientUnits="userSpaceOnUse"
       y2="0"
       x2="1"
       y1="0"
       x1="0"><stop
         id="stop106"
         offset="0"
         style="stop-opacity:1;stop-color:#450f15" /><stop
         id="stop108"
         offset="0.0492611"
         style="stop-opacity:1;stop-color:#450f15" /><stop
         id="stop110"
         offset="0.275862"
         style="stop-opacity:1;stop-color:#661822" /><stop
         id="stop112"
         offset="0.921182"
         style="stop-opacity:1;stop-color:#8f252d" /><stop
         id="stop114"
         offset="1"
         style="stop-opacity:1;stop-color:#8f252d" /></linearGradient></defs><g
     transform="matrix(1.3333333,0,0,-1.3333333,-37.037114,125.19973)"
     id="g10"><g
       transform="scale(0.1)"
       id="g12"><path
         id="path78"
         style="fill:#a7a5a6;fill-opacity:1;fill-rule:nonzero;stroke:none"
         d="m 298.5,682.383 c 2.555,8.422 5.09,16.555 7.539,24.273 -3.219,-9.082 -5.711,-17.406 -7.539,-24.273"
         inkscape:connector-curvature="0" /><path
         id="path80"
         style="fill:#bdbcbc;fill-opacity:1;fill-rule:nonzero;stroke:none"
         d="m 298.5,682.383 c -1.719,-5.672 -3.437,-11.465 -5.145,-17.324 0.477,0.007 0.778,0.011 0.778,0.011 0.863,3.106 2.222,9.254 4.367,17.313"
         inkscape:connector-curvature="0" /><path
         id="path82"
         transform="matrix(7.5000002,0,0,-7.5000002,0,1191.3)"
         style="fill:#d3d2d2;fill-opacity:1;fill-rule:nonzero;stroke:none;stroke-width:0.13333333"
         d="m 37.058594,87.664062 -0.02148,1.957032 c 0,0.320747 0.01806,0.637746 0.02734,0.957031 0.171373,0.105128 9.873415,6.562334 31.089844,9.808595 1.241733,0.19 3.738281,0.0156 3.738281,0.0156 0.643733,-0.0683 1.478688,0.0751 1.054688,1.08399 0,0 -0.422561,1.49918 -0.871094,2.58984 -0.7192,1.75054 -4.929311,16.59037 -4.839844,23.91797 l 3.775391,2.81055 -0.01563,-0.22071 c 0.196266,-3.31093 0.793808,-10.01803 1.546875,-14.04296 1.231866,-6.5828 3.300182,-17.125513 3.886719,-20.109379 0.0348,-0.178 -0.03142,-0.337706 -0.146485,-0.451172 -0.128667,-0.109467 -0.310753,-0.166074 -0.501953,-0.119141 -0.548933,0.133867 -1.192859,0.253642 -1.880859,0.359375 h -0.0039 c -1.623466,0.336 -3.335962,0.503596 -5.101562,0.539063 -8.6656,0.171866 -26.967528,-7.269167 -31.736328,-9.095704 z m 0.148437,5.201172 c 0.866045,8.748656 5.192685,16.703696 11.921875,21.648436 l 16.509766,12.29102 c -0.0776,-6.3536 3.809728,-19.29748 5.111328,-23.81055 0.09533,-0.33013 -0.833648,-0.65435 -1.175781,-0.68555 -19.417728,-1.77466 -32.175947,-9.327937 -32.367188,-9.443356 z"
         inkscape:connector-curvature="0" /><path
         id="path84"
         style="fill:#d3d2d2;fill-opacity:1;fill-rule:nonzero;stroke:none"
         d="m 358.723,843.523 c 4.226,-8.988 11.968,-17.679 11.968,-17.679 0,0 0.067,0.043 0.086,0.058 0.047,-0.054 1.129,-1.16 1.129,-1.16 0,0 4.242,3.719 15.391,8.047 9.219,3.582 20.988,4.836 20.988,4.836 0,0 -11.558,16.086 -13.734,39.313 -1.266,13.457 -0.699,20.421 -0.571,20.535 -0.085,0.011 -0.171,0 -0.257,0.019 l 0.015,0.094 c -5.886,0.992 -11.972,-0.152 -17.566,-2.809 -3.867,-2.148 -7.277,-4.515 -10.145,-7.07 -4.988,-4.441 -8.332,-9.426 -9.621,-14.746 -2.051,-5.68 -2.773,-11.945 -1.554,-18.434 0.101,-0.558 2.109,-7.261 3.871,-11.004"
         inkscape:connector-curvature="0" /><path
         id="path86"
         style="fill:#d3d2d2;fill-opacity:1;fill-rule:nonzero;stroke:none"
         d="m 410.027,867.324 c 5,-13.926 13.274,-25.613 19.672,-28.058 0.985,-0.414 1.93,-0.672 2.809,-0.672 h 0.004 c 6.609,0.785 15.363,14.121 19.597,30.429 3.965,15.266 1.27,28.043 -5.406,33.45 -1.527,1.148 -3.199,2.121 -4.973,2.906 -1.789,0.812 -3.675,1.461 -5.656,1.891 -0.308,0.066 -0.601,0.187 -0.91,0.277 5.481,2.687 9.18,8.715 8.863,15.601 -0.3,6.801 -4.429,12.465 -10.039,14.704 -1.925,0.808 -4.019,1.23 -6.215,1.132 -8.429,-0.382 -14.96,-8.027 -14.554,-17.089 0.324,-6.895 4.562,-12.59 10.273,-14.766 l 0.012,-0.004 c -4.223,-1.098 -7.949,-3.215 -11.031,-5.988 -6.211,-5.965 -7.77,-18.926 -2.446,-33.813"
         inkscape:connector-curvature="0" /><path
         id="path88"
         style="fill:#d3d2d2;fill-opacity:1;fill-rule:nonzero;stroke:none"
         d="m 455.184,838.875 c 0,0 19.695,-0.152 39.382,-7.84 0.352,-0.137 0.594,-0.324 0.922,-0.484 2.637,3.363 6.457,8.66 9.016,14.101 1.762,3.739 3.769,10.442 3.879,10.996 1.211,6.489 0.488,12.758 -1.563,18.438 -1.293,5.324 -4.636,10.305 -9.617,14.754 -2.867,2.551 -6.277,4.914 -10.14,7.062 -0.051,0.02 -0.098,0.036 -0.145,0.059 -0.035,0.019 -0.07,0.043 -0.102,0.062 -5.593,2.649 -11.679,3.801 -17.566,2.813 0.125,-0.109 0.688,-7.086 -0.57,-20.539 -2.18,-23.227 -13.739,-39.309 -13.739,-39.309 0,0 0.188,-0.015 0.301,-0.023 l -0.058,-0.09"
         inkscape:connector-curvature="0" /><path
         id="path90"
         style="fill:#d3d2d2;fill-opacity:1;fill-rule:nonzero;stroke:none"
         d="m 551.305,673.492 h -0.016 c -0.086,0.024 -0.137,0.106 -0.226,0.117 -0.243,0.043 -0.469,0.106 -0.719,0.082 l -0.406,-0.031 c -0.907,-0.082 -1.743,-0.176 -2.583,-0.269 -9.003,-0.551 -17.761,0.121 -24.996,2.945 -4.097,1.352 -7.632,3.668 -11.062,6.098 -0.793,0.66 -9.965,8.754 -11.609,10.289 -6.637,6.211 -19.172,15.316 -32.133,16.593 -14.617,1.454 -23.946,-3.902 -34.422,-8.023 -0.977,-0.402 -1.738,-1.348 -1.809,-2.469 -0.066,-1.23 0.649,-2.293 1.711,-2.765 0.367,-0.204 0.758,-0.348 1.203,-0.375 10.367,-0.746 20.246,-2.508 29.621,-5.266 6.954,-2.102 13.852,-4.34 19.301,-8.219 7.176,-5.101 13.371,-11.59 17.496,-14.195 5.348,-3.402 10.094,-6.672 16.231,-7.899 6.449,-1.093 13.164,-0.648 19.461,0.997 0.273,0.07 0.547,0.164 0.836,0.238 1.668,0.418 3.269,1.051 4.875,1.648 2.183,0.875 4.312,1.856 6.289,3.02 0.082,0.047 0.164,0.101 0.246,0.144 1.285,0.754 2.636,1.379 3.832,2.278 0.039,0.027 0.078,0.039 0.121,0.07 0.75,0.566 1.199,1.504 1.105,2.516 -0.109,1.3 -1.117,2.265 -2.347,2.476"
         inkscape:connector-curvature="0" /><path
         id="path92"
         style="fill:#d3d2d2;fill-opacity:1;fill-rule:nonzero;stroke:none"
         d="m 511.145,770.02 c 0.668,-2.079 2.863,-4.266 5.339,-5.711 7.817,-4.536 10.59,-11.184 -1.101,-12.571 -8.52,-1.008 -17.399,4.672 -48.879,-3.972 -18.469,-5.075 -40.227,-23.711 -47.789,-32.297 -2.34,-2.66 -4.746,-5.739 -6.996,-8.985 -7.301,-10.546 -7.223,-24.738 0.672,-34.855 4.703,-6.012 9.957,-9.926 11.488,-10.961 27.637,-18.723 53.582,-3.211 56.406,-0.391 2.266,2.266 2.41,3.164 1.973,3.75 -0.051,0.075 -0.133,0.051 -0.192,0.106 -0.015,-0.004 -0.035,-0.012 -0.05,-0.02 -0.004,0.008 0.007,0.028 0.007,0.028 -0.058,0.074 -8.789,-4.633 -21.046,-4.633 -6.954,0 -14.071,1.222 -19.977,3.871 -4.324,1.969 -14.328,7.312 -20.223,16.758 -3.812,6.121 -3.015,14.019 1.606,19.562 4.637,5.563 10.258,10.813 15.527,14.692 11.871,8.722 25.485,13.988 41.285,14.234 0.387,0.008 0.754,0.047 1.137,0.047 7.945,0 15.555,-1.383 22.715,-3.731 3.617,-1.191 7.105,-2.656 10.457,-4.355 10.133,-5.195 18.906,-12.637 25.613,-21.746 0.016,0.027 0.039,0.066 0.055,0.094 0.055,-0.075 0.129,-0.133 0.187,-0.215 2.579,4.398 5.493,10.988 7.957,20.222 0.442,1.625 0.868,3.282 1.278,5.075 3.504,15.488 2.48,51.441 -31.707,51.441 -0.629,0 -1.262,-0.285 -1.891,-0.43 -3.644,-0.972 -4.516,-2.937 -3.851,-5.007"
         inkscape:connector-curvature="0" /><path
         id="path94"
         transform="matrix(7.5000002,0,0,-7.5000002,0,1191.3)"
         style="fill:#d3d2d2;fill-opacity:1;fill-rule:nonzero;stroke:none;stroke-width:0.13333333"
         d="m 59.666016,48.175781 c -1.6068,-0.0027 -3.067118,0.162988 -4.564454,0.492188 -5.810399,1.276533 -9.347937,4.644581 -12.585937,11.925781 -0.711467,1.3964 -1.263071,2.762324 -1.710937,4.025391 -0.326536,1.029066 -0.66324,2.113394 -1.003907,3.236328 -0.286,1.074533 -0.468917,1.89446 -0.583984,2.308593 0,0 -0.03992,9.08e-4 -0.103516,0.002 -0.746266,2.56 -1.894249,5.520715 -1.978515,8.103515 -0.04427,1.35 -0.04297,3.726038 -0.04297,6.398438 0.6176,0.2968 23.345065,9.438436 33.894531,9.220703 1.65,-0.121867 3.690592,-0.314903 5.453125,-0.595703 0.02867,-0.0093 2.388302,-0.762025 2.542969,-0.265625 0.122933,0.1256 0.191363,0.302133 0.154297,0.5 -0.626534,3.303733 -2.833904,14.97798 -4.148438,22.26758 -0.825066,4.57134 -1.223295,8.96417 -1.423828,12.61524 -0.002,0.0385 -0.03846,0.93534 -0.02539,0.95507 0.0083,0.0157 2.956603,-2.05444 3.980469,-2.92578 0,0 0.08029,-0.5374 0.232422,-2.9082 0.118133,-1.848 0.934253,-6.28632 0.939453,-6.31445 l 1.351563,0.78906 c 1.278666,0.91987 2.628561,1.74726 4.048828,2.48633 0,0 0.0087,-1.5e-4 0.01172,0.002 0.0068,0.003 0.0122,0.009 0.01953,0.0117 0.544267,0.28493 1.228923,0.23348 1.722656,-0.18945 0.652,-0.5552 0.727255,-1.53444 0.169922,-2.1875 -1.035467,-1.21414 -2.128561,-2.35417 -3.298828,-3.39844 l -1.775391,-1.53906 c -0.0043,-0.003 -0.905183,-0.63206 -1.15625,-0.8086 l 0.279297,-1.28125 c 0.406267,0.18067 2.015428,0.87372 2.423828,1.05078 1.537467,0.67294 3.108429,1.42507 4.726563,1.9668 1.628133,0.52027 3.238213,1.00271 4.935547,1.32617 0.6412,0.12347 1.314978,-0.17463 1.642578,-0.77929 0.404666,-0.74894 0.125839,-1.68252 -0.621094,-2.08399 l -0.02539,-0.0156 c -1.4344,-0.77654 -2.922794,-1.48763 -4.361328,-2.23243 -0.0089,-0.003 -0.01996,-0.007 -0.0293,-0.0137 l -0.0039,-0.002 c -0.716667,-0.35733 -1.428092,-0.6967 -2.140625,-1.04297 -0.719733,-0.35267 -1.44047,-0.71541 -2.158203,-1.11328 -0.7192,-0.3984 -2.276407,-1.22525 -2.994141,-1.63672 l 0.138672,-0.43555 c 1.728134,0.36094 4.291776,0.97057 6.03711,1.29297 1.7296,0.32187 3.565792,0.73005 5.380859,0.85352 1.827067,0.11506 3.610051,0.1624 5.458984,0 0.6588,-0.0604 1.228474,-0.54092 1.369141,-1.22266 0.150533,-0.72706 -0.242297,-1.44305 -0.904297,-1.72265 -0.100533,-0.0437 -0.208266,-0.0815 -0.322265,-0.10547 l -0.04492,-0.0117 c -1.657334,-0.3412 -3.368645,-0.6383 -5.017578,-1.00977 -1.664536,-0.3432 -3.266012,-0.65681 -4.955079,-1.13281 -2.169733,-0.60627 -3.636396,-1.04754 -5.789062,-1.72461 l 0.171875,-0.56641 c 1.305733,0.0432 1.590398,0.045 2.894531,0.0606 1.880267,0.024 3.760178,0.0162 5.642578,-0.0254 l 1.40625,-0.0215 c 0.491734,-0.005 0.98217,-0.014 1.470703,-0.041 0.978134,-0.0407 1.946077,-0.12744 2.902344,-0.26758 1.9188,-0.31306 3.768766,-0.697179 5.640626,-1.339845 0.63334,-0.217734 1.07174,-0.833203 1.03321,-1.533203 -0.0287,-0.540134 -0.33651,-0.996447 -0.77344,-1.248047 -0.25413,-0.1516 -0.55478,-0.232577 -0.87305,-0.214844 h -0.0586 c -1.76094,0.0964 -3.586048,0.223921 -5.359381,0.242187 l -2.648437,0.04883 -1.308594,-0.02148 c -0.469867,-0.01667 -0.918027,-0.03307 -1.371094,-0.06641 -1.824533,-0.118267 -3.649017,-0.268246 -5.46875,-0.445312 -1.130667,-0.114002 -2.265511,-0.241134 -3.392578,-0.375 1.855733,-0.192802 3.580402,-0.450988 5.355469,-0.742188 1.9724,-0.3328 3.926066,-0.715739 5.875,-1.138672 1.9308,-0.401467 4.032322,-0.864604 5.919922,-1.585937 1.916673,-0.743334 3.738813,-1.554604 5.527343,-2.658203 0.57547,-0.353602 0.86513,-1.062988 0.66407,-1.742188 -0.12347,-0.414667 -0.40599,-0.738542 -0.76172,-0.921875 -0.34627,-0.190133 -0.76698,-0.24882 -1.17578,-0.126953 l -0.0664,0.01953 c -1.76667,0.529733 -3.61444,1.080487 -5.431644,1.501953 -0.9084,0.226534 -1.81373,0.443292 -2.716797,0.640625 -0.902667,0.192267 -1.791931,0.345763 -2.769531,0.476563 -1.9016,0.253066 -3.814084,0.466373 -5.71875,0.628906 -1.223467,0.1016 -2.477579,0.187386 -3.695313,0.242188 0.173867,-0.0464 0.347031,-0.09063 0.529297,-0.140626 0.531334,-0.146933 1.050807,-0.298937 1.566406,-0.460937 1.030802,-0.3224 2.043149,-0.66849 3.041016,-1.035156 2.002133,-0.731734 3.943746,-1.52886 5.882813,-2.38086 1.937066,-0.8292 3.967276,-1.76982 5.763673,-2.929687 1.8088,-1.193733 3.50859,-2.438281 5.09766,-3.988281 0.488,-0.4776 0.61426,-1.244482 0.25586,-1.863282 -0.16147,-0.280133 -0.40001,-0.486567 -0.67188,-0.615234 -0.44533,-0.222933 -0.9881,-0.226726 -1.45117,0.04102 l -0.0625,0.03711 c -1.67547,0.967733 -3.44955,1.961614 -5.218753,2.810547 -1.788533,0.8756 -3.486264,1.711148 -5.394531,2.363281 -1.894267,0.662 -3.82658,1.280758 -5.748047,1.81836 -0.960933,0.268133 -1.924059,0.516241 -2.880859,0.734374 l -0.640625,0.136719 c 0.484933,-0.2084 0.957215,-0.419111 1.416015,-0.642578 1.0448,-0.5088 2.047077,-1.050795 3.027344,-1.611328 1.956667,-1.1276 3.825097,-2.334157 5.654297,-3.587891 1.874933,-1.262933 3.743494,-2.636278 5.371094,-4.205078 1.624935,-1.602533 3.120535,-3.238668 4.433595,-5.177734 0.38587,-0.571867 0.34964,-1.356405 -0.13476,-1.888672 -0.1464,-0.1604 -0.31933,-0.279415 -0.50586,-0.363281 -0.54534,-0.259867 -1.2151,-0.185106 -1.6875,0.246093 l -0.0566,0.05273 c -1.500013,1.366667 -3.114793,2.772198 -4.761726,4.019531 -1.652579,1.271256 -3.264397,2.509455 -5.072266,3.544922 -0.338533,0.196933 -0.683837,0.381552 -1.023437,0.574219 -1.504667,0.852533 -3.021001,1.673623 -4.552734,2.410156 -0.296934,0.142133 -0.592272,0.277176 -0.888672,0.412109 -0.5588,0.255734 -1.118048,0.49861 -1.675781,0.72461 0.101999,-0.06867 0.205754,-0.134678 0.304687,-0.205078 0.6568,-0.462934 1.27424,-0.946481 1.878906,-1.435547 0.3344,-0.269334 0.669741,-0.53832 0.994141,-0.814453 1.795866,-1.526 3.471152,-3.140458 5.074219,-4.775391 0.0204,-0.0208 0.04223,-0.0417 0.0625,-0.0625 1.700533,-1.729733 3.291511,-3.516108 4.642578,-5.484375 1.332266,-1.992667 2.523698,-3.995791 3.457031,-6.275391 0.264004,-0.6448 0.06053,-1.409858 -0.533203,-1.828125 -0.0077,-0.0063 -0.01983,-0.0074 -0.0293,-0.01367 l -0.002,-0.002 c -0.6928,-0.488133 -1.64486,-0.321392 -2.130859,0.369141 l -0.04688,0.06445 c -1.227199,1.7432 -2.580972,3.54412 -4.003906,5.189453 -0.4244,0.497867 -0.85045,0.993709 -1.28125,1.484375 -1.0068,1.1468 -2.042682,2.259105 -3.166015,3.253907 -0.563067,0.498933 -1.131839,0.976364 -1.701172,1.457031 -1.031734,0.870933 -2.073299,1.717983 -3.134766,2.511719 0.164667,-0.212936 0.331481,-0.425424 0.488281,-0.640626 0.8792,-1.206666 1.690311,-2.430148 2.464844,-3.666015 0.536933,-0.8584 1.05854,-1.722464 1.566406,-2.591797 0.896267,-1.499467 1.714009,-3.038341 2.421875,-4.619141 0.317734,-0.7088 0.619566,-1.422257 0.884766,-2.15039 0.848933,-2.369867 1.533951,-4.722443 1.896484,-7.28711 0.09947,-0.7036 -0.306753,-1.40501 -1.001953,-1.652343 -0.0027,-5.34e-4 -0.0051,-2.6e-4 -0.0078,-0.002 -0.0083,-0.0021 -0.01646,-0.0091 -0.02539,-0.01172 -0.7952,-0.283334 -1.668905,0.132401 -1.951172,0.927734 l -0.02539,0.07617 c -0.643734,1.818133 -1.419986,3.688234 -2.261719,5.490234 -0.133733,0.287067 -0.253158,0.585988 -0.390625,0.867188 -0.949467,1.9552 -1.940856,3.876794 -3.097656,5.683594 -0.06813,0.107333 -0.131839,0.217952 -0.201172,0.324218 -0.868134,1.2744 -1.774105,2.510177 -2.701172,3.714844 -2.857333,3.184933 -7.67303,6.372892 -10.279297,7.640625 -1.2688,0.6156 -2.565281,1.45917 -3.863281,2.095703 -0.02027,0.0104 -0.03979,0.02138 -0.05859,0.03125 -0.876533,0.424934 -1.629599,1.104037 -2.072266,1.970703 -0.112533,0.219867 -0.202716,0.451454 -0.28125,0.689453 -0.137066,0.420269 -0.222656,0.862879 -0.222656,1.330079 0,1.668133 0.907883,3.266468 2.271485,3.980468 0.453599,0.245334 0.958798,0.390117 1.5,0.40625 0.0896,0.0025 0.160147,-0.0092 0.238281,-0.01758 0.4656,-0.0484 0.724609,-0.251953 0.724609,-0.251953 0,0 -0.364509,-0.979788 0.19336,-1.419922 0.09213,-0.06093 0.190835,-0.110916 0.292968,-0.15625 0.257867,-0.116133 0.542684,-0.1875 0.84375,-0.1875 0.2828,0 0.550655,0.05816 0.794922,0.160156 0.726,0.319869 1.232422,1.039613 1.232422,1.882813 0,1.043733 -0.780443,1.896317 -1.787109,2.03125 -0.4552,0.178533 -1.330986,0.208984 -1.886719,0.208984 -1.156267,0 -2.285173,-0.121552 -3.378906,-0.324218 -1.5052,-0.276534 -2.94165,-0.751101 -4.28125,-1.365235 -1.628134,-0.750533 -4.618133,-2.942759 -4.572266,-3.068359 -3.078133,-2.8568 -5.022786,-6.781314 -5.189453,-11.123047 -0.0077,-0.199467 -0.0332,-0.396056 -0.0332,-0.597656 0,-0.624534 0.04532,-1.304776 0.117187,-1.91211 0.127067,-1.068666 0.369212,-2.118985 0.705078,-3.136718 0.600534,-1.817734 1.510582,-3.521309 2.675782,-4.984375 0.112933,-0.140667 0.639512,-0.721065 1.320312,-1.394532 0.03907,-0.0396 0.08096,-0.07954 0.121094,-0.11914 l 0.02148,-0.02148 c 0.749068,-0.737207 1.658221,-1.563267 2.435547,-2.072265 h 0.002 c 0.0018,-0.0011 0.0042,-0.0035 0.0059,-0.0039 -0.0532,-0.03387 -0.138743,-0.111445 -0.22461,-0.195312 -0.100533,-0.0968 -0.201726,-0.202205 -0.255859,-0.263672 -1.4172,-0.138 -1.921137,-0.812012 -2.158203,-1.382812 -0.0077,-0.01773 -0.01523,-0.03553 -0.02148,-0.05273 -0.01867,-0.04533 -0.03967,-0.09428 -0.05273,-0.132812 -0.074,-0.214 -0.07146,-0.859972 -0.04492,-0.951172 0.1068,-0.5224 0.420653,-1.039189 0.689453,-1.294922 0.126,-0.142667 0.258838,-0.268553 0.398438,-0.376953 0.426133,-0.329733 0.910581,-0.509375 1.425781,-0.609375 0.128533,-0.02707 0.257872,-0.05085 0.388672,-0.06445 0.01667,-0.0025 0.03269,-0.0062 0.04883,-0.0078 1.315067,-0.138533 2.615385,0.432544 3.136719,1.777344 l 0.0059,0.0098 c -0.07347,0.05107 -0.833984,0.191406 -0.833984,0.191406 h -0.0039 c -0.269336,-0.578133 -0.717608,-0.820317 -1.244141,-0.78125 -0.175067,0.0136 -0.359762,0.05895 -0.548828,0.132812 -0.123467,0.04853 -0.226987,0.1119 -0.314453,0.1875 -0.8448,0.718667 -0.103327,2.536996 1.066406,2.664063 0.183867,0.0204 0.376705,-0.0018 0.576172,-0.07617 0.0063,-0.0027 0.01522,-0.0046 0.02148,-0.0078 0.514533,-0.203069 3.778721,-0.986122 5.742188,-1.294922 0.377066,-0.06 0.710757,-0.103894 0.96289,-0.121094 0.0063,-0.0041 0.01557,-0.0095 0.02344,-0.01367 v -0.002 l 0.002,-0.002 c 0.3412,-0.552534 0.3568,-4.178709 -2.5,-5.359375 -2.256267,-0.933867 -4.215348,-1.083404 -5.988281,-1.085938 z"
         inkscape:connector-curvature="0" /><path
         id="path96"
         style="fill:#bdbcbc;fill-opacity:1;fill-rule:nonzero;stroke:none"
         d="m 573.289,491.602 c 5.508,0.878 10.664,1.863 15.059,2.972 1.527,0.391 2.988,-0.074 4.015,-0.984 -1.16,3.723 -18.859,-1.918 -19.074,-1.988"
         inkscape:connector-curvature="0" /><g
         id="g100"
         clip-path="url(#clipPath104)" /></g></g></svg>