<?xml version="1.0" standalone="no"?>
<!DOCTYPE svg PUBLIC "-//W3C//DTD SVG 20010904//EN"
 "http://www.w3.org/TR/2001/REC-SVG-20010904/DTD/svg10.dtd">
<svg version="1.0" xmlns="http://www.w3.org/2000/svg"
 width="100.000000pt" height="100.000000pt" viewBox="0 0 100.000000 100.000000"
 preserveAspectRatio="xMidYMid meet">

<g transform="translate(0.000000,100.000000) scale(0.100000,-0.100000)"
fill="#000000" stroke="none">
<path d="M380 915 c-5 -14 -10 -36 -10 -48 0 -42 -12 -46 -120 -49 l-105 -3
-3 -247 -2 -248 -40 0 c-33 0 -40 -3 -40 -20 0 -20 7 -20 440 -20 433 0 440 0
440 20 0 17 -7 20 -40 20 l-40 0 -2 248 -3 247 -107 3 -108 3 -5 27 c-15 70
-22 87 -35 87 -16 0 -19 -28 -7 -82 l7 -33 -100 0 -99 0 6 33 c11 50 9 80 -4
84 -7 3 -17 -7 -23 -22z m-65 -225 c0 -18 -6 -26 -23 -28 -24 -4 -38 18 -28
44 3 9 15 14 28 12 17 -2 23 -10 23 -28z m365 -182 l80 -108 -175 0 -175 0 87
110 c49 60 91 109 95 107 4 -1 43 -50 88 -109z m-231 73 c12 -16 21 -32 21
-36 0 -3 -25 -37 -56 -76 l-56 -69 -60 0 -60 0 44 53 c24 28 63 76 87 105 23
28 47 52 51 52 5 0 18 -13 29 -29z"/>
<path d="M242 193 c-22 -105 -24 -121 -12 -128 19 -12 29 7 45 90 8 44 15 81
15 83 0 1 -9 2 -19 2 -15 0 -22 -11 -29 -47z"/>
<path d="M482 183 c2 -44 7 -58 18 -58 11 0 16 14 18 58 3 52 1 57 -18 57 -19
0 -21 -5 -18 -57z"/>
<path d="M710 238 c0 -22 33 -165 39 -171 19 -19 33 5 26 42 -21 116 -27 131
-46 131 -10 0 -19 -1 -19 -2z"/>
</g>
</svg>
