<?xml version="1.0" standalone="no"?>
<!DOCTYPE svg PUBLIC "-//W3C//DTD SVG 20010904//EN"
 "http://www.w3.org/TR/2001/REC-SVG-20010904/DTD/svg10.dtd">
<svg version="1.0" xmlns="http://www.w3.org/2000/svg"
 width="846.000000pt" height="779.000000pt" viewBox="0 0 846.000000 779.000000"
 preserveAspectRatio="xMidYMid meet">

<g transform="translate(0.000000,779.000000) scale(0.100000,-0.100000)"
fill="#000000" stroke="none">
<path d="M2767 5396 c-851 -304 -1550 -555 -1552 -557 -2 -3 159 -63 358 -134
l362 -129 965 149 c531 81 1022 157 1092 168 123 19 127 20 139 49 6 16 32 46
56 67 93 82 229 75 315 -16 77 -81 77 -228 -1 -317 -32 -36 -107 -66 -168 -66
-56 0 -98 17 -175 72 -14 10 -185 -14 -880 -121 -475 -73 -872 -135 -882 -138
-12 -3 356 -140 959 -355 l979 -349 1563 558 c1476 527 1561 559 1533 570 -85
36 -3085 1103 -3099 1103 -9 -1 -713 -250 -1564 -554z"/>
<path d="M2040 3481 l0 -1018 -44 -44 c-90 -90 -88 -217 4 -309 92 -93 218
-93 310 -1 92 93 94 215 4 308 l-44 47 0 1018 0 1018 -115 0 -115 0 0 -1019z"/>
<path d="M2420 3489 c0 -778 -8 -709 97 -811 241 -233 833 -430 1468 -488 163
-15 559 -12 737 5 605 58 1182 251 1423 477 114 106 106 41 103 820 l-3 676
-949 -339 c-523 -186 -955 -339 -962 -339 -7 0 -385 133 -840 296 -456 163
-884 316 -951 340 l-123 43 0 -680z"/>
</g>
</svg>
